<?xml version="1.0" encoding="UTF-8" standalone="no"?>
<!DOCTYPE svg PUBLIC "-//W3C//DTD SVG 1.1//EN" "http://www.w3.org/Graphics/SVG/1.1/DTD/svg11.dtd">
<svg width="100%" height="100%" viewBox="0 0 334 334" version="1.1" xmlns="http://www.w3.org/2000/svg" xmlns:xlink="http://www.w3.org/1999/xlink" xml:space="preserve" xmlns:serif="http://www.serif.com/" style="fill-rule:evenodd;clip-rule:evenodd;stroke-linejoin:round;stroke-miterlimit:1.41421;">
    <g>
        <g>
            <g transform="matrix(1.84615,0,0,0.815789,-64.3846,32.3684)">
                <path d="M65.1,192L69,230L43,230L65.1,192Z" style="fill:rgb(51,217,183);"/>
            </g>
            <g transform="matrix(1,0,0,1.01389,0,-3.98611)">
                <rect x="6" y="215" width="52" height="72" style="fill:rgb(51,217,183);"/>
            </g>
        </g>
        <g transform="matrix(-1,0,0,1.05922,329,-14.9967)">
            <g transform="matrix(1.84615,0,0,0.815789,-64.3846,32.3684)">
                <path d="M65.1,192L69,230L43,230L65.1,192Z" style="fill:rgb(51,217,183);"/>
            </g>
            <g transform="matrix(1,0,0,1.01389,0,-3.98611)">
                <rect x="6" y="215" width="52" height="72" style="fill:rgb(51,217,183);"/>
            </g>
        </g>
        <rect x="150" y="240" width="31" height="47" style="fill:rgb(51,217,183);"/>
        <path d="M330.938,214.279L278.02,174.374L278.02,158.348C278.02,156.151 276.989,154.082 275.235,152.759L171.077,74.214C168.581,72.332 165.143,72.332 162.647,74.214L58.489,152.759C56.735,154.082 55.704,156.151 55.704,158.348L55.704,174.374L2.786,214.279C1.032,215.602 0.001,217.671 0.001,219.868L0.001,290.59C0.001,294.456 3.135,297.59 7.001,297.59L326.723,297.59C330.589,297.59 333.723,294.456 333.723,290.59L333.723,219.868C333.723,217.671 332.692,215.602 330.938,214.279ZM174.431,283.589L159.292,283.589L159.292,248.303L174.431,248.303L174.431,283.589ZM188.431,283.589L188.431,241.303C188.431,237.437 185.297,234.303 181.431,234.303L152.292,234.303C148.426,234.303 145.292,237.437 145.292,241.303L145.292,283.589L111.406,283.589L69.704,283.589L69.704,161.836L166.862,88.569L264.02,161.836L264.02,283.589L222.317,283.589L188.431,283.589ZM14.001,223.356L55.704,191.908L55.704,283.589L14.001,283.589L14.001,223.356ZM319.723,283.589L278.02,283.589L278.02,191.908L319.723,223.356L319.723,283.589Z" style="fill-rule:nonzero;"/>
        <path d="M11.215,169.273L166.862,51.902L322.508,169.274C323.771,170.226 325.25,170.686 326.718,170.686C328.839,170.686 330.936,169.725 332.312,167.9C334.64,164.814 334.025,160.424 330.938,158.097L171.077,37.546C168.581,35.664 165.143,35.664 162.647,37.546L2.786,158.096C-0.301,160.424 -0.916,164.813 1.412,167.899C3.739,170.986 8.13,171.601 11.215,169.273Z" style="fill-rule:nonzero;"/>
    </g>
</svg>
