<?xml version="1.0" encoding="UTF-8" standalone="no"?>
<!DOCTYPE svg PUBLIC "-//W3C//DTD SVG 1.1//EN" "http://www.w3.org/Graphics/SVG/1.1/DTD/svg11.dtd">
<svg width="100%" height="100%" viewBox="0 0 512 512" version="1.1" xmlns="http://www.w3.org/2000/svg" xmlns:xlink="http://www.w3.org/1999/xlink" xml:space="preserve" xmlns:serif="http://www.serif.com/" style="fill-rule:evenodd;clip-rule:evenodd;stroke-linejoin:round;stroke-miterlimit:1.41421;">
    <g transform="matrix(1.14036,0,0,1,-16.0554,32.4997)">
        <ellipse cx="349.5" cy="223.5" rx="28.5" ry="32.5" style="fill:rgb(51,217,183);"/>
    </g>
    <rect x="16" y="308" width="124" height="189" style="fill:rgb(51,217,183);"/>
    <path d="M85.072,454.931C83.213,453.07 80.633,452.001 78.003,452.001C75.373,452.001 72.793,453.07 70.933,454.931C69.073,456.792 68.003,459.371 68.003,462.001C68.003,464.631 69.072,467.211 70.933,469.07C72.793,470.93 75.373,472.001 78.003,472.001C80.633,472.001 83.213,470.931 85.072,469.07C86.932,467.211 88.003,464.631 88.003,462.001C88.003,459.371 86.933,456.791 85.072,454.931Z" style="fill-rule:nonzero;"/>
    <path d="M469.524,182.938C467.664,181.077 465.094,180.008 462.454,180.008C459.824,180.008 457.244,181.077 455.384,182.938C453.525,184.798 452.454,187.378 452.454,190.008C452.454,192.638 453.524,195.218 455.384,197.077C457.244,198.937 459.824,200.008 462.454,200.008C465.094,200.008 467.664,198.938 469.524,197.077C471.393,195.218 472.463,192.638 472.463,190.008C472.463,187.378 471.393,184.798 469.524,182.938Z" style="fill-rule:nonzero;"/>
    <path d="M509.065,2.929C507.189,1.054 504.645,0 501.992,0L255.998,0.013C250.476,0.013 245.999,4.491 245.999,10.013L245.999,38.61L151.21,64.009C145.875,65.439 142.709,70.922 144.139,76.256L193.266,259.598L150.767,302.097C145.358,294.199 136.276,289.005 126.003,289.005L30.006,289.005C13.464,289.005 0.007,302.463 0.007,319.004L0.007,482C0.007,498.542 13.464,512 30.006,512L126.004,512C140.057,512 151.879,502.284 155.119,489.22L167.009,499.589C176.188,507.593 187.948,512.001 200.127,512.001L501.994,512.001C507.516,512.001 511.994,507.523 511.994,502.001L511.994,10C511.992,7.348 510.94,4.804 509.065,2.929ZM136.002,482.001C136.002,487.514 131.516,492.001 126.002,492.001L30.005,492.001C24.491,492.001 20.005,487.515 20.005,482.001L20.005,319.005C20.005,313.491 24.491,309.005 30.005,309.005L68.004,309.005L68.004,424.2C68.004,429.722 72.482,434.2 78.004,434.2C83.526,434.2 88.004,429.722 88.004,424.2L88.004,309.005L126.003,309.005C131.517,309.005 136.003,313.491 136.003,319.005L136.003,482.001L136.002,482.001ZM166.045,80.739L245.999,59.315L245.999,96.37L239.297,98.166C236.734,98.853 234.551,100.528 233.225,102.825C231.899,105.122 231.539,107.851 232.226,110.413C236.069,124.754 227.528,139.547 213.187,143.39C210.622,144.078 208.435,145.756 207.11,148.058C205.785,150.359 205.428,153.093 206.121,155.657L245.1,299.995L225.03,299.995L214.687,259.531C214.358,258.243 213.782,257.056 213.011,256.024L166.045,80.739ZM245.999,142.229L245.999,226.61L227.76,159.075C235.379,155.141 241.614,149.255 245.999,142.229ZM389.663,492L200.125,492C192.78,492 185.687,489.342 180.151,484.515L156.002,463.454L156.002,325.147L199.66,281.489L207.578,312.469C208.71,316.896 212.697,319.992 217.266,319.992L413.87,320.004C421.59,320.004 427.87,326.284 427.87,334.004C427.87,341.724 421.59,348.004 413.87,348.004L313.13,348.004C307.608,348.004 303.13,352.482 303.13,358.004C303.13,363.526 307.608,368.004 313.13,368.004L445.17,368.004C452.89,368.004 459.17,374.284 459.17,382.004C459.17,389.724 452.89,396.004 445.17,396.004L313.13,396.004C307.608,396.004 303.13,400.482 303.13,406.004C303.13,411.526 307.608,416.004 313.13,416.004L423.773,416.004C431.493,416.004 437.773,422.284 437.773,430.004C437.773,437.724 431.493,444.004 423.773,444.004L313.13,444.004C307.608,444.004 303.13,448.482 303.13,454.004C303.13,459.526 307.608,464.004 313.13,464.004L389.663,464.004C397.383,464.004 403.663,470.284 403.663,478.004C403.662,485.72 397.382,492 389.663,492ZM491.994,492L491.993,492L420.634,492C422.573,487.727 423.662,482.99 423.662,478C423.662,473.01 422.573,468.273 420.634,464L423.773,464C442.52,464 457.772,448.748 457.772,430.001C457.772,424.533 456.467,419.366 454.163,414.784C468.559,410.83 479.168,397.635 479.168,382.002C479.168,374.418 476.67,367.407 472.457,361.747L472.457,235.007C472.457,229.485 467.979,225.007 462.457,225.007C456.935,225.007 452.457,229.485 452.457,235.007L452.457,348.799C450.107,348.284 447.67,348.004 445.168,348.004L444.84,348.004C446.779,343.731 447.868,338.994 447.868,334.004C447.868,315.256 432.616,300.005 413.869,300.005L397.794,300.005C414.863,292.685 426.851,275.719 426.851,256C426.851,229.611 405.383,208.142 378.994,208.142C352.606,208.142 331.137,229.611 331.137,256C331.137,275.719 343.126,292.685 360.194,300.005L305.531,300.005L305.531,109.863C323.395,105.97 337.491,91.875 341.383,74.01L416.604,74.01C420.496,91.875 434.592,105.97 452.456,109.863L452.456,140.953C452.456,146.475 456.934,150.953 462.456,150.953C467.978,150.953 472.456,146.475 472.456,140.953L472.456,100.935C472.456,95.413 467.978,90.935 462.456,90.935C447.609,90.935 435.532,78.856 435.532,64.01C435.532,58.488 431.054,54.01 425.532,54.01L332.456,54.01C326.934,54.01 322.456,58.488 322.456,64.01C322.456,78.857 310.378,90.935 295.532,90.935C290.01,90.935 285.532,95.413 285.532,100.935L285.532,300.004L266,300.004L266,20.011L491.994,20L491.994,492ZM378.996,283.858C363.635,283.858 351.139,271.361 351.139,256.001C351.139,240.641 363.636,228.143 378.996,228.143C394.356,228.143 406.853,240.64 406.853,256C406.853,271.36 394.357,283.858 378.996,283.858Z" style="fill-rule:nonzero;"/>
</svg>
