<?xml version="1.0" encoding="UTF-8" standalone="no"?>
<!DOCTYPE svg PUBLIC "-//W3C//DTD SVG 1.1//EN" "http://www.w3.org/Graphics/SVG/1.1/DTD/svg11.dtd">
<svg width="100%" height="100%" viewBox="0 0 60 60" version="1.1" xmlns="http://www.w3.org/2000/svg" xmlns:xlink="http://www.w3.org/1999/xlink" xml:space="preserve" xmlns:serif="http://www.serif.com/" style="fill-rule:evenodd;clip-rule:evenodd;stroke-linejoin:round;stroke-miterlimit:1.41421;">
    <g>
        <g transform="matrix(1,0,0,0.75,0,1.25)">
            <rect x="17" y="1" width="6" height="4" style="fill:rgb(51,217,183);"/>
        </g>
        <g transform="matrix(1,0,0,0.75,13,1.25)">
            <rect x="17" y="1" width="6" height="4" style="fill:rgb(51,217,183);"/>
        </g>
        <path d="M46.5,32C50.639,32 54,35.137 54,39C54,42.863 50.639,46 46.5,46C42.361,46 39,42.863 39,39C39,35.137 42.361,32 46.5,32ZM46.5,36C48.156,36 49.5,37.344 49.5,39C49.5,40.656 48.156,42 46.5,42C44.844,42 43.5,40.656 43.5,39C43.5,37.344 44.844,36 46.5,36Z" style="fill:rgb(51,217,183);"/>
        <path d="M46.5,31C42.428,31 39.064,34.06 38.569,38L27.5,38L27.5,31.875C28.54,31.616 29.439,30.957 30.006,30.002L42.926,8.151C43.682,6.876 43.695,5.345 42.961,4.057C42.227,2.769 40.904,2 39.421,2L37.149,2C36.585,0.822 35.391,0 34,0C32.404,0 28.5,1.227 28.5,3.5C28.5,5.773 32.404,7 34,7C35.758,7 37.204,5.692 37.449,4L39.42,4C40.175,4 40.849,4.392 41.222,5.048C41.596,5.703 41.589,6.483 41.204,7.133L28.284,28.984C27.907,29.62 27.24,30 26.5,30C25.76,30 25.093,29.62 24.709,28.974L11.428,7.132C11.043,6.483 11.036,5.703 11.41,5.048C11.784,4.392 12.458,4 13.212,4L15.55,4C15.796,5.692 17.242,7 19,7C20.596,7 24.5,5.773 24.5,3.5C24.5,1.227 20.596,0 19,0C17.609,0 16.415,0.822 15.851,2L13.212,2C11.729,2 10.406,2.77 9.672,4.058C8.938,5.346 8.951,6.876 9.713,8.161L22.995,30.003C23.561,30.958 24.46,31.616 25.5,31.875L25.5,38L16.5,38C10.435,38 5.5,42.935 5.5,49C5.5,55.065 10.435,60 16.5,60C22.565,60 27.5,55.065 27.5,49L27.5,40L38.569,40C39.064,43.94 42.428,47 46.5,47C50.911,47 54.5,43.411 54.5,39C54.5,34.589 50.911,31 46.5,31ZM34,5C32.766,5 30.642,4.011 30.502,3.5C30.642,2.989 32.766,2 34,2C34.827,2 35.5,2.673 35.5,3.5C35.5,4.327 34.827,5 34,5ZM19,2C20.234,2 22.358,2.989 22.498,3.5C22.358,4.011 20.234,5 19,5C18.173,5 17.5,4.327 17.5,3.5C17.5,2.673 18.173,2 19,2ZM25.5,49C25.5,53.963 21.462,58 16.5,58C11.538,58 7.5,53.963 7.5,49C7.5,44.037 11.538,40 16.5,40L25.5,40L25.5,49ZM46.5,45C43.191,45 40.5,42.309 40.5,39C40.5,35.691 43.191,33 46.5,33C49.809,33 52.5,35.691 52.5,39C52.5,42.309 49.809,45 46.5,45Z" style="fill-rule:nonzero;"/>
        <path d="M46.5,35C44.294,35 42.5,36.794 42.5,39C42.5,41.206 44.294,43 46.5,43C48.706,43 50.5,41.206 50.5,39C50.5,36.794 48.706,35 46.5,35ZM46.5,41C45.397,41 44.5,40.103 44.5,39C44.5,37.897 45.397,37 46.5,37C47.603,37 48.5,37.897 48.5,39C48.5,40.103 47.603,41 46.5,41Z" style="fill-rule:nonzero;"/>
    </g>
</svg>
