<?xml version="1.0" encoding="UTF-8" standalone="no"?>
<!DOCTYPE svg PUBLIC "-//W3C//DTD SVG 1.1//EN" "http://www.w3.org/Graphics/SVG/1.1/DTD/svg11.dtd">
<svg width="100%" height="100%" viewBox="0 0 512 512" version="1.1" xmlns="http://www.w3.org/2000/svg" xmlns:xlink="http://www.w3.org/1999/xlink" xml:space="preserve" xmlns:serif="http://www.serif.com/" style="fill-rule:evenodd;clip-rule:evenodd;stroke-linejoin:round;stroke-miterlimit:1.41421;">
    <g transform="matrix(0.834487,0.551028,-0.551028,0.834487,164.974,-200.618)">
        <rect x="396" y="169" width="29" height="104" style="fill:rgb(51,217,183);"/>
    </g>
    <rect x="353" y="119" width="20" height="86" style="fill:rgb(51,217,183);"/>
    <rect x="316" y="144" width="29" height="105" style="fill:rgb(51,217,183);"/>
    <g transform="matrix(0.97479,0,0,1.02362,0.428571,-5.88189)">
        <rect x="17" y="122" width="119" height="127" style="fill:rgb(51,217,183);"/>
    </g>
    <g transform="matrix(1.168,0,0,1.05833,-27.384,-13.3)">
        <ellipse cx="100.5" cy="168" rx="62.5" ry="60" style="fill:rgb(51,217,183);"/>
    </g>
    <path d="M70.127,453.096L70.035,453.026C65.651,449.669 59.375,450.499 56.015,454.884C52.657,459.268 53.489,465.545 57.872,468.904L57.964,468.974C59.778,470.364 61.916,471.036 64.038,471.036C67.043,471.036 70.015,469.686 71.983,467.116C75.343,462.731 74.511,456.455 70.127,453.096Z" style="fill-rule:nonzero;"/>
    <path d="M70.127,371.096L70.035,371.026C65.651,367.669 59.375,368.499 56.015,372.884C52.657,377.268 53.489,383.545 57.872,386.904L57.964,386.974C59.778,388.364 61.916,389.036 64.038,389.036C67.043,389.036 70.015,387.686 71.983,385.116C75.343,380.731 74.511,374.455 70.127,371.096Z" style="fill-rule:nonzero;"/>
    <path d="M70.127,289.096L70.035,289.026C65.651,285.669 59.375,286.499 56.015,290.884C52.657,295.268 53.489,301.545 57.872,304.904L57.964,304.974C59.778,306.364 61.916,307.036 64.038,307.036C67.043,307.036 70.015,305.686 71.983,303.116C75.343,298.731 74.511,292.455 70.127,289.096Z" style="fill-rule:nonzero;"/>
    <path d="M454.04,453.065L453.947,452.995C449.545,449.659 443.273,450.523 439.937,454.925C436.601,459.326 437.465,465.599 441.867,468.935L441.96,469.005C443.767,470.374 445.888,471.036 447.992,471.036C451.015,471.036 454.003,469.671 455.97,467.076C459.306,462.674 458.441,456.401 454.04,453.065Z" style="fill-rule:nonzero;"/>
    <path d="M454.04,371.066L453.947,370.996C449.545,367.66 443.273,368.524 439.937,372.926C436.602,377.326 437.466,383.599 441.867,386.935L441.96,387.005C443.767,388.374 445.888,389.036 447.992,389.036C451.015,389.036 454.003,387.671 455.97,385.076C459.306,380.675 458.442,374.402 454.04,371.066Z" style="fill-rule:nonzero;"/>
    <path d="M454.04,289.066L453.947,288.996C449.545,285.66 443.273,286.524 439.937,290.926C436.601,295.328 437.466,301.599 441.867,304.935L441.96,305.005C443.767,306.374 445.888,307.036 447.992,307.036C451.015,307.036 454.003,305.671 455.97,303.076C459.306,298.675 458.442,292.402 454.04,289.066Z" style="fill-rule:nonzero;"/>
    <path d="M369.472,328L369.342,328C363.82,328 359.342,332.477 359.342,338C359.342,343.523 363.819,348 369.342,348L369.472,348C374.994,348 379.472,343.523 379.472,338C379.472,332.477 374.994,328 369.472,328Z" style="fill-rule:nonzero;"/>
    <path d="M142.658,410L142.528,410C137.006,410 132.528,414.477 132.528,420C132.528,425.523 137.006,430 142.528,430L142.658,430C148.18,430 152.658,425.523 152.658,420C152.658,414.477 148.181,410 142.658,410Z" style="fill-rule:nonzero;"/>
    <path d="M80.79,185.19C78.93,183.33 76.35,182.26 73.72,182.26C71.09,182.26 68.51,183.33 66.65,185.19C64.791,187.05 63.72,189.63 63.72,192.27C63.72,194.9 64.79,197.47 66.65,199.33C68.51,201.2 71.081,202.26 73.72,202.26C76.35,202.26 78.93,201.2 80.79,199.33C82.649,197.47 83.72,194.9 83.72,192.27C83.72,189.63 82.65,187.06 80.79,185.19Z" style="fill-rule:nonzero;"/>
    <path d="M502,246L460.466,246C478.338,235.72 490.407,216.444 490.407,194.389C490.407,171.493 477.417,151.112 457.627,141.195C461.041,133.605 462.812,125.362 462.812,116.847C462.812,84.033 436.116,57.336 403.301,57.336C392.955,57.336 383.019,59.946 374.164,64.941C362.546,56.753 348.653,52.314 334.31,52.314C333.337,52.314 332.372,52.348 331.408,52.388C320.843,21.59 291.383,0.048 258.203,0.048C228.283,0.048 201.209,17.377 188.453,43.93C186.06,43.708 183.656,43.596 181.254,43.596C149.809,43.596 121.881,62.585 109.957,90.9C107.841,90.254 105.688,89.69 103.503,89.201C104.649,76.42 108.703,66.622 115.62,60.034C121.645,54.295 127.697,53.106 127.952,53.058L127.813,53.081L127.811,53.07C129.925,52.759 131.926,51.784 133.445,50.258C135.304,48.398 136.375,45.828 136.375,43.198C136.375,40.558 135.305,37.988 133.445,36.118C131.585,34.258 129.005,33.188 126.375,33.188C125.814,33.188 125.257,33.247 124.707,33.341L124.704,33.324C118.766,34.259 110.645,37.587 103.155,44.349L103.155,10C103.155,4.477 98.677,0 93.155,0L69.155,0C63.633,0 59.155,4.477 59.155,10L59.155,47.391C47.651,33.292 35.232,25.05 34.269,24.421C29.65,21.408 23.472,22.71 20.451,27.322C17.429,31.935 18.72,38.13 23.326,41.161C23.657,41.378 53.912,61.638 58.407,90.783C24.568,100.948 0,130.689 0,165.714C0,180.266 8.299,215.208 16.444,246L10,246C4.478,246 0,250.477 0,256L0,502C0,507.523 4.478,512 10,512L502,512C507.522,512 512,507.523 512,502L512,256C512,250.477 507.522,246 502,246ZM181.254,63.596C185.101,63.596 188.953,63.981 192.706,64.741C197.59,65.729 202.455,62.974 204.117,58.276C212.21,35.411 233.945,20.048 258.203,20.048C281.843,20.048 302.94,34.787 311.503,56.19C284.492,65.641 265.058,91.368 265.058,121.564C265.058,127.087 269.536,131.564 275.058,131.564C280.58,131.564 285.058,127.087 285.058,121.564C285.058,94.407 307.152,72.314 334.309,72.314C346.352,72.314 357.95,76.717 366.964,84.713C370.519,87.866 375.804,88.081 379.604,85.229C386.481,80.065 394.675,77.336 403.299,77.336C425.085,77.336 442.81,95.061 442.81,116.847C442.81,125.412 440.115,133.561 435.014,140.411C433.02,143.09 432.494,146.589 433.615,149.736C434.736,152.883 437.352,155.263 440.592,156.08C458.146,160.506 470.406,176.259 470.406,194.389C470.406,216.175 452.681,233.9 430.895,233.9C428.413,233.9 425.893,233.658 423.404,233.181C418.557,232.249 413.758,234.997 412.1,239.645C411.317,241.842 410.326,243.969 409.161,246L396.537,246L437.486,187.3C439.025,185.094 439.61,182.36 439.109,179.717C438.608,177.074 437.063,174.744 434.824,173.254L405.669,153.852C403.398,152.34 400.606,151.821 397.945,152.418C395.283,153.014 392.979,154.671 391.569,157.007L376.99,181.147L388.924,120.778C389.988,115.389 386.508,110.15 381.128,109.044L355.683,103.811C353.054,103.269 350.316,103.809 348.088,105.307C345.86,106.805 344.328,109.136 343.837,111.775L340.572,129.31L317.235,129.31C311.713,129.31 307.235,133.787 307.235,139.31L307.235,196.854C300.589,162.825 270.562,137.06 234.618,137.06C218.421,137.06 203.037,142.199 190.131,151.922C179.488,159.939 171.129,170.851 166.099,183.119C167.373,175.609 168.001,169.849 168.001,165.715C168.001,152.154 164.318,139.383 157.841,128.233C163.095,113.938 176.754,104.227 192.204,104.227C194.659,104.227 197.119,104.474 199.517,104.96C204.404,105.954 209.276,103.191 210.935,98.488C213.081,92.41 216.815,86.973 221.735,82.765C225.931,79.175 226.423,72.862 222.833,68.665C219.244,64.468 212.932,63.977 208.733,67.566C203.239,72.266 198.703,77.964 195.36,84.315C194.309,84.256 193.256,84.227 192.205,84.227C172.301,84.227 154.321,94.647 144.177,110.899C139.427,106.326 134.095,102.291 128.286,98.901C137.066,77.779 157.846,63.596 181.254,63.596ZM365.622,238.655L403.288,176.29L415.235,184.241L372.153,246L364.17,246L365.622,238.655ZM353.113,198.797L353.113,171.03C353.166,170.82 353.224,170.612 353.264,170.396L361.633,125.452L367.378,126.634L353.113,198.797ZM327.163,228.653C327.206,228.274 327.235,227.89 327.235,227.5L327.235,149.309L333.114,149.309L333.114,246L329.958,246C329.985,245.374 330,244.747 330,244.118C330,238.667 328.988,233.455 327.163,228.653ZM190,182C189.704,182 189.413,182.019 189.117,182.022C198.894,166.842 216.026,157.059 234.617,157.059C261.039,157.059 283.075,176.14 287.707,201.243C273.87,201.341 261.608,208.304 254.02,218.957C241.199,196.885 217.313,182 190,182ZM243.057,246L138.517,246L136.944,246C141.649,220.988 163.643,202 190.001,202C216.359,202 238.352,220.988 243.057,246ZM288,221.236C300.131,221.236 310,231.501 310,244.118C310,244.749 309.97,245.376 309.921,246L266.078,246C266.029,245.376 265.999,244.749 265.999,244.118C266,231.501 275.869,221.236 288,221.236ZM79.155,20L83.155,20L83.155,87.057C81.814,87.07 80.48,87.106 79.155,87.177L79.155,20ZM20.597,157.81C21.221,157.932 21.865,158 22.524,158L71.962,158C77.484,158 81.962,153.523 81.962,148C81.962,142.477 77.484,138 71.962,138L27.606,138C38.416,119.585 59.637,107.037 84,107.037C119.29,107.037 148,133.359 148,165.714C148,168.323 147.583,173.137 145.994,182L106.275,182C100.753,182 96.275,186.477 96.275,192C96.275,197.523 100.753,202 106.275,202L139.481,202C127.348,213.359 119.039,228.74 116.695,246L37.141,246C26.216,205.214 20,176.152 20,165.714C20,163.033 20.215,160.398 20.597,157.81ZM492,328L404,328C398.478,328 394,332.477 394,338C394,343.523 398.478,348 404,348L492,348L492,410L176.606,410C171.084,410 166.606,414.477 166.606,420C166.606,425.523 171.084,430 176.606,430L492,430L492,492L20,492L20,430L108,430C113.522,430 118,425.523 118,420C118,414.477 113.522,410 108,410L20,410L20,348L335.394,348C340.916,348 345.394,343.523 345.394,338C345.394,332.477 340.916,328 335.394,328L20,328L20,266L492,266L492,328Z" style="fill-rule:nonzero;"/>
    <path d="M245.465,54L245.333,54C239.811,54 235.333,58.477 235.333,64C235.333,69.523 239.811,74 245.333,74L245.465,74C250.987,74 255.465,69.523 255.465,64C255.465,58.477 250.987,54 245.465,54Z" style="fill-rule:nonzero;"/>
</svg>
