<?xml version="1.0" encoding="UTF-8" standalone="no"?><!DOCTYPE svg PUBLIC "-//W3C//DTD SVG 1.1//EN" "http://www.w3.org/Graphics/SVG/1.1/DTD/svg11.dtd"><svg width="100%" height="100%" viewBox="0 0 76 76" version="1.1" xmlns="http://www.w3.org/2000/svg" xmlns:xlink="http://www.w3.org/1999/xlink" xml:space="preserve" xmlns:serif="http://www.serif.com/" style="fill-rule:evenodd;clip-rule:evenodd;stroke-linejoin:round;stroke-miterlimit:1.41421;"><clipPath id="_clip1"><rect id="_013-light-bulb" serif:id="013-light-bulb" x="0" y="0" width="76" height="76"/></clipPath><g clip-path="url(#_clip1)"><g><path d="M41.8,49.4c0.7,0 1.267,-0.567 1.267,-1.267l0,-17.733l3.8,0c3.492,0 6.333,-2.841 6.333,-6.333c0,-3.493 -2.841,-6.334 -6.333,-6.334c-3.493,0 -6.334,2.841 -6.334,6.334l0,3.8l-5.066,0l0,-3.8c0,-3.493 -2.841,-6.334 -6.334,-6.334c-3.492,0 -6.333,2.841 -6.333,6.334c0,3.492 2.841,6.333 6.333,6.333l3.8,0l0,17.733c0,0.7 0.568,1.267 1.267,1.267c0.699,0 1.266,-0.567 1.266,-1.267l0,-17.733l5.067,0l0,17.733c0,0.7 0.567,1.267 1.267,1.267Zm1.267,-25.333c0,-2.095 1.705,-3.8 3.8,-3.8c2.095,0 3.8,1.705 3.8,3.8c0,2.095 -1.705,3.8 -3.8,3.8l-3.8,0l0,-3.8Zm-10.134,3.8l-3.8,0c-2.095,0 -3.8,-1.705 -3.8,-3.8c0,-2.095 1.705,-3.8 3.8,-3.8c2.095,0 3.8,1.705 3.8,3.8l0,3.8Z" style="fill-rule:nonzero;"/><path d="M9.044,2.694l4.849,4.07c0.238,0.2 0.527,0.296 0.814,0.296c0.361,0 0.721,-0.153 0.971,-0.452c0.449,-0.536 0.38,-1.335 -0.156,-1.784l-4.849,-4.07c-0.536,-0.449 -1.334,-0.379 -1.785,0.155c-0.449,0.538 -0.38,1.336 0.156,1.785Z" style="fill-rule:nonzero;"/><path d="M9.864,13.747l-5.95,-2.165c-0.657,-0.238 -1.383,0.1 -1.624,0.758c-0.238,0.657 0.1,1.384 0.758,1.624l5.949,2.164c0.143,0.052 0.289,0.078 0.433,0.078c0.517,0 1.003,-0.321 1.191,-0.835c0.239,-0.657 -0.1,-1.384 -0.757,-1.624Z" style="fill-rule:nonzero;"/><path d="M61.289,7.06c0.286,0 0.575,-0.097 0.812,-0.296l4.851,-4.072c0.536,-0.45 0.607,-1.248 0.156,-1.785c-0.446,-0.533 -1.245,-0.606 -1.783,-0.156l-4.852,4.072c-0.536,0.45 -0.605,1.248 -0.156,1.785c0.25,0.298 0.61,0.452 0.972,0.452Z" style="fill-rule:nonzero;"/><path d="M7.597,24.069l-6.33,0c-0.7,0 -1.267,0.568 -1.267,1.267c0,0.699 0.567,1.266 1.267,1.266l6.33,0c0.7,0 1.267,-0.567 1.267,-1.266c0,-0.699 -0.567,-1.267 -1.267,-1.267Z" style="fill-rule:nonzero;"/><path d="M73.707,12.336c-0.238,-0.656 -0.966,-0.997 -1.622,-0.756l-5.951,2.166c-0.659,0.239 -0.997,0.966 -0.758,1.624c0.188,0.514 0.673,0.833 1.191,0.833c0.143,0 0.29,-0.024 0.432,-0.077l5.952,-2.166c0.658,-0.239 0.997,-0.967 0.756,-1.624Z" style="fill-rule:nonzero;"/><rect x="27.164" y="54.477" width="21.375" height="15.289" style="fill:#33d9b7;"/><path d="M38,0c-13.969,0 -25.333,11.365 -25.333,25.333c0,10.691 4.192,18.666 13.197,25.098c0.043,0.03 0.106,0.068 0.153,0.094c0.066,0.035 1.429,0.796 1.771,2.932c-1.43,0.546 -2.455,1.923 -2.455,3.543c0,0.973 0.368,1.861 0.971,2.533c-0.603,0.673 -0.971,1.561 -0.971,2.534c0,0.973 0.368,1.86 0.971,2.533c-0.603,0.673 -0.971,1.561 -0.971,2.534c0,2.095 1.705,3.8 3.8,3.8c0.7,0 1.267,-0.568 1.267,-1.267c0,-0.699 -0.567,-1.267 -1.267,-1.267c-0.698,0 -1.266,-0.568 -1.266,-1.266c0,-0.698 0.568,-1.267 1.266,-1.267l12.667,0c0.7,0 1.267,-0.567 1.267,-1.267c0,-0.699 -0.567,-1.266 -1.267,-1.266l-12.667,0c-0.698,0 -1.266,-0.569 -1.266,-1.267c0,-0.698 0.568,-1.266 1.266,-1.266l12.667,0c0.7,0 1.267,-0.568 1.267,-1.267c0,-0.699 -0.567,-1.267 -1.267,-1.267l-12.667,0c-0.698,0 -1.266,-0.568 -1.266,-1.266c0,-0.698 0.568,-1.267 1.266,-1.267l17.734,0c0.7,0 -0.535,-0.716 -0.535,-1.415c0,-0.699 0.473,-0.97 -0.227,-0.97l-15.791,-0.148c-0.449,-3.19 -2.516,-4.572 -3.034,-4.87c-8.355,-5.988 -12.08,-13.083 -12.08,-22.997c0,-12.571 10.229,-22.8 22.8,-22.8c12.572,0 22.8,10.229 22.8,22.8c0,9.914 -3.725,17.009 -12.08,22.997c-0.583,0.335 -3.12,2.039 -3.12,6.137c0,0.699 0.566,1.266 1.267,1.266c0.699,0 1.266,0.569 1.266,1.267c0,0.698 -0.567,1.266 -1.266,1.266c-0.701,0 -1.267,0.568 -1.267,1.267c0,0.699 0.566,1.267 1.267,1.267c0.699,0 1.266,0.568 1.266,1.266c0,0.698 -0.567,1.267 -1.266,1.267c-0.701,0 -1.267,0.567 -1.267,1.266c0,0.7 0.566,1.267 1.267,1.267c0.699,0 1.266,0.569 1.266,1.267c0,0.722 -0.544,1.266 -1.266,1.266l-12.667,0c-0.699,0 -1.267,0.568 -1.267,1.267l0,2.533c0,2.095 1.705,3.8 3.8,3.8l2.534,0c2.095,0 3.8,-1.705 3.8,-3.8l0,-1.267l3.8,0c2.132,0 3.8,-1.669 3.8,-3.8c0,-0.972 -0.368,-1.86 -0.971,-2.533c0.603,-0.673 0.971,-1.561 0.971,-2.533c0,-0.973 -0.368,-1.861 -0.971,-2.534c0.603,-0.672 0.971,-1.56 0.971,-2.533c0,-1.62 -1.025,-2.997 -2.456,-3.543c0.342,-2.136 1.703,-2.896 1.755,-2.925c0.06,-0.029 0.117,-0.063 0.17,-0.101c9.003,-6.432 13.197,-14.407 13.197,-25.098c0,-13.968 -11.364,-25.333 -25.333,-25.333Zm2.533,72.2c0,0.698 -0.567,1.267 -1.266,1.267l-2.534,0c-0.698,0 -1.266,-0.569 -1.266,-1.267l0,-1.267l5.066,0l0,1.267Z" style="fill-rule:nonzero;"/><path d="M74.733,24.067l-6.333,0c-0.7,0 -1.267,0.567 -1.267,1.266c0,0.699 0.567,1.267 1.267,1.267l6.333,0c0.701,0 1.267,-0.568 1.267,-1.267c0,-0.699 -0.566,-1.266 -1.267,-1.266Z" style="fill-rule:nonzero;"/><rect x="29.094" y="68.43" width="6.383" height="2.523"/></g></g></svg>