<?xml version="1.0" encoding="UTF-8" standalone="no"?><!DOCTYPE svg PUBLIC "-//W3C//DTD SVG 1.1//EN" "http://www.w3.org/Graphics/SVG/1.1/DTD/svg11.dtd"><svg width="100%" height="100%" viewBox="0 0 76 76" version="1.1" xmlns="http://www.w3.org/2000/svg" xmlns:xlink="http://www.w3.org/1999/xlink" xml:space="preserve" xmlns:serif="http://www.serif.com/" style="fill-rule:evenodd;clip-rule:evenodd;stroke-linejoin:round;stroke-miterlimit:1.41421;"><rect x="34.675" y="44.017" width="21.058" height="10.292" style="fill:#33d9b7;"/><rect x="1.108" y="29.767" width="32.617" height="4.908" style="fill:#33d9b7;"/><rect x="1.108" y="66.658" width="32.617" height="4.908" style="fill:#33d9b7;"/><rect x="55.733" y="38" width="18.683" height="6.017" style="fill:#33d9b7;"/><rect x="55.733" y="65.55" width="18.683" height="6.017" style="fill:#33d9b7;"/><rect x="33.725" y="63.175" width="14.567" height="5.383" style="fill:#33d9b7;"/><path d="M72.2,36.733l0,-27.866c0,-3.493 -2.841,-6.334 -6.333,-6.334l-55.734,0c-3.492,0 -6.333,2.841 -6.333,6.334l0,19c-2.095,0 -3.8,1.705 -3.8,3.8l0,38c0,2.095 1.705,3.8 3.8,3.8l27.867,0c2.095,0 3.8,-1.705 3.8,-3.8l10.616,0c1.194,0 2.295,-0.545 3.019,-1.494c0.725,-0.948 0.96,-2.154 0.646,-3.306l-2.49,-9.134l7.209,0l0,13.934c0,2.095 1.705,3.8 3.8,3.8l13.933,0c2.095,0 3.8,-1.705 3.8,-3.8l0,-29.134c0,-2.095 -1.705,-3.8 -3.8,-3.8Zm-39.267,32.934c0,0.698 -0.568,1.266 -1.266,1.266l-27.867,0c-0.698,0 -1.267,-0.568 -1.267,-1.266l0,-2.534l30.4,0l0,2.534Zm0,-5.067l-30.4,0l0,-27.867l30.4,0l0,27.867Zm0,-30.4l-30.4,0l0,-2.533c0,-0.698 0.569,-1.267 1.267,-1.267l27.867,0c0.698,0 1.266,0.569 1.266,1.267l0,2.533Zm14.372,31.334c0.105,0.383 0.027,0.785 -0.215,1.102c-0.242,0.316 -0.608,0.497 -1.007,0.497l-10.616,0l0,-2.533l11.583,0l0.255,0.934Zm-11.838,-3.467l0,-6.334l9.165,0l1.728,6.334l-10.893,0Zm19,-8.867l-19,0l0,-7.6l19,0l0,7.6Zm0,-12.667l0,2.534l-19,0l0,-11.4c0,-2.095 -1.705,-3.8 -3.8,-3.8l-25.334,0l0,-19c0,-2.095 1.705,-3.8 3.8,-3.8l55.734,0c2.095,0 3.8,1.705 3.8,3.8l0,27.866l-11.4,0c-2.095,0 -3.8,1.705 -3.8,3.8Zm19,29.134c0,0.698 -0.569,1.266 -1.267,1.266l-13.933,0c-0.698,0 -1.267,-0.568 -1.267,-1.266l0,-2.534l16.467,0l0,2.534Zm0,-5.067l-16.467,0l0,-19l16.467,0l0,19Zm0,-21.533l-16.467,0l0,-2.534c0,-0.698 0.569,-1.266 1.267,-1.266l13.933,0c0.698,0 1.267,0.568 1.267,1.266l0,2.534Z" style="fill-rule:nonzero;"/><path d="M11.771,49.77l-5.067,5.066l1.791,1.792l5.067,-5.067l-1.791,-1.791Z"/><path d="M26.97,43.437l-15.2,15.2l1.791,1.791l15.201,-15.2l-1.792,-1.791Z"/><path d="M21.903,39.639l-7.6,7.599l1.791,1.791l7.6,-7.599l-1.791,-1.791Z"/><path d="M66.234,48.506l-6.332,6.332l1.791,1.792l6.332,-6.332l-1.791,-1.792Z"/><path d="M68.767,53.578l-6.332,6.332l1.791,1.792l6.332,-6.332l-1.791,-1.792Z"/><path d="M40.902,16.838l-7.599,7.6l1.791,1.791l7.6,-7.599l-1.792,-1.792Z"/><path d="M52.303,14.305l-7.599,7.6l1.791,1.791l7.599,-7.6l-1.791,-1.791Z"/><path d="M42.169,24.439l-5.066,5.067l1.791,1.791l5.067,-5.066l-1.792,-1.792Z"/><path d="M48.508,9.241l-5.079,5.08l1.791,1.791l5.079,-5.079l-1.791,-1.792Z"/><rect x="8.867" y="7.6" width="2.533" height="2.533"/><rect x="13.933" y="7.6" width="2.533" height="2.533"/><rect x="19" y="7.6" width="2.533" height="2.533"/></svg>