<?xml version="1.0" encoding="UTF-8" standalone="no"?>
<!DOCTYPE svg PUBLIC "-//W3C//DTD SVG 1.1//EN" "http://www.w3.org/Graphics/SVG/1.1/DTD/svg11.dtd">
<svg width="100%" height="100%" viewBox="0 0 491 491" version="1.1" xmlns="http://www.w3.org/2000/svg" xmlns:xlink="http://www.w3.org/1999/xlink" xml:space="preserve" xmlns:serif="http://www.serif.com/" style="fill-rule:evenodd;clip-rule:evenodd;stroke-linejoin:round;stroke-miterlimit:1.41421;">
    <g>
        <path id="XMLID_83_" d="M337.2,178.4L244.438,178.4L239.7,178.4L239.7,80.9C185.9,80.9 142.2,124.5 142.2,178.4C142.2,232.3 185.8,275.9 239.7,275.9C293.6,275.9 337.2,232.3 337.2,178.4Z" style="fill:rgb(255,138,55);fill-rule:nonzero;"/>
        <g transform="matrix(1,0,0,1,0,-0.3)">
            <path d="M480.9,0.3L9.1,0.3C4.1,0.3 0,4.4 0,9.4C0,14.4 4.1,18.5 9.1,18.5L26.6,18.5L26.6,310C26.6,324.2 38.1,335.7 52.3,335.7L439.7,335.7C453.9,335.7 465.4,324.2 465.4,310L465.4,18.4L481,18.4C486,18.4 490.1,14.3 490.1,9.3C490.1,4.3 485.9,0.3 480.9,0.3ZM447.2,310C447.2,314.2 443.8,317.5 439.7,317.5L52.2,317.5C48,317.5 44.7,314.1 44.7,310L44.7,18.4L447.2,18.4L447.2,310Z" style="fill-rule:nonzero;"/>
        </g>
        <path d="M170.7,474.3C167.2,477.8 167.2,483.6 170.7,487.1C172.5,488.9 174.8,489.8 177.1,489.8C179.4,489.8 181.7,488.9 183.5,487.1L241.7,428.9L241.7,480.7C241.7,485.7 245.8,489.8 250.8,489.8C255.8,489.8 259.9,485.7 259.9,480.7L259.9,428.9L317.8,486.8C319.6,488.6 321.9,489.5 324.2,489.5C326.5,489.5 328.8,488.6 330.6,486.8C334.1,483.3 334.1,477.5 330.6,474L259.9,403.3L259.9,375.9L295.8,375.9C300.8,375.9 304.9,371.8 304.9,366.8C304.9,361.8 300.8,357.7 295.8,357.7L204.5,357.7C199.5,357.7 195.4,361.8 195.4,366.8C195.4,371.8 199.5,375.9 204.5,375.9L241.8,375.9L241.8,403.3L170.7,474.3Z" style="fill-rule:nonzero;"/>
        <path d="M239.7,285C298.5,285 346.3,237.2 346.3,178.4C346.3,173.4 342.2,169.3 337.2,169.3L248.8,169.3L248.8,80.9C248.8,75.9 244.7,71.8 239.7,71.8C180.9,71.8 133.1,119.6 133.1,178.4C133.1,237.2 180.9,285 239.7,285ZM230.6,90.4L230.6,178.4C230.6,183.4 234.7,187.5 239.7,187.5L327.7,187.5C323.1,232 285.4,266.9 239.7,266.9C190.9,266.9 151.3,227.2 151.3,178.5C151.3,132.7 186.1,95 230.6,90.4Z" style="fill-rule:nonzero;"/>
        <path d="M282.9,145.6L359.4,145.6C364.4,145.6 368.5,141.5 368.5,136.5C368.5,115.6 360.9,95.5 347.1,79.8C330.8,61.5 307.4,51 282.9,51C277.9,51 273.8,55.1 273.8,60.1L273.8,136.6C273.8,141.6 277.8,145.6 282.9,145.6ZM291.9,69.7C307.8,71.9 322.6,79.7 333.4,91.9C342.3,101.9 347.9,114.3 349.7,127.5L291.9,127.5L291.9,69.7Z" style="fill-rule:nonzero;"/>
    </g>
</svg>
