<?xml version="1.0" encoding="UTF-8" standalone="no"?>
<!DOCTYPE svg PUBLIC "-//W3C//DTD SVG 1.1//EN" "http://www.w3.org/Graphics/SVG/1.1/DTD/svg11.dtd">
<svg width="100%" height="100%" viewBox="0 0 512 512" version="1.1" xmlns="http://www.w3.org/2000/svg" xmlns:xlink="http://www.w3.org/1999/xlink" xml:space="preserve" xmlns:serif="http://www.serif.com/" style="fill-rule:evenodd;clip-rule:evenodd;stroke-linejoin:round;stroke-miterlimit:1.41421;">
    <g>
        <g transform="matrix(1,0,0,1.13462,0,-23.5577)">
            <rect x="357" y="123" width="128" height="52" style="fill:rgb(255,138,55);"/>
        </g>
        <g transform="matrix(0.68254,0,0,1.06481,133.222,-8.03704)">
            <rect x="385" y="16" width="63" height="108" style="fill:rgb(255,138,55);"/>
        </g>
        <rect x="385" y="17" width="69" height="67" style="fill:rgb(255,138,55);"/>
    </g>
    <g transform="matrix(1,0,0,1.00602,-328.284,324.953)">
        <g transform="matrix(1,0,0,1.13462,0,-23.5577)">
            <rect x="357" y="123" width="128" height="52" style="fill:rgb(255,138,55);"/>
        </g>
        <g transform="matrix(0.68254,0,0,1.06481,133.222,-8.03704)">
            <rect x="385" y="16" width="63" height="108" style="fill:rgb(255,138,55);"/>
        </g>
        <rect x="385" y="17" width="69" height="67" style="fill:rgb(255,138,55);"/>
    </g>
    <path d="M133.164,429.958L118.111,429.958L118.111,421.537L128.121,410.514C133.828,404.228 136.971,396.091 136.971,387.602L136.971,360.312C136.971,340.298 120.688,324.016 100.675,324.016L84.757,324.016C64.743,324.016 48.461,340.299 48.461,360.312L48.461,387.601C48.461,396.091 51.604,404.228 57.311,410.513L67.321,421.536L67.321,429.956L52.267,429.956C32.553,429.956 16.515,445.995 16.515,465.708L16.515,504.328C16.515,508.565 19.949,511.999 24.186,511.999L161.247,511.999C165.483,511.999 168.918,508.566 168.918,504.328L168.918,465.71C168.916,445.996 152.878,429.958 133.164,429.958ZM153.574,496.658L31.855,496.658L31.855,465.71C31.855,454.455 41.011,445.3 52.265,445.3L74.99,445.3C79.226,445.3 82.661,441.867 82.661,437.629L82.661,418.304C82.661,415.716 81.38,413.427 79.417,412.038L68.668,400.2C65.53,396.744 63.802,392.269 63.802,387.601L63.802,360.312C63.802,348.758 73.202,339.357 84.757,339.357L100.674,339.357C112.228,339.357 121.629,348.757 121.629,360.312L121.629,387.601C121.629,392.269 119.901,396.744 116.763,400.2L106.015,412.039C104.052,413.428 102.771,415.717 102.771,418.305L102.771,437.63C102.771,441.867 106.205,445.301 110.442,445.301L133.166,445.301C144.421,445.301 153.576,454.457 153.576,465.711L153.576,496.658L153.574,496.658Z" style="fill-rule:nonzero;"/>
    <path d="M459.733,105.943L444.68,105.943L444.68,97.521L454.69,86.499C460.397,80.213 463.54,72.076 463.54,63.587L463.54,36.297C463.539,16.284 447.256,0 427.243,0L411.326,0C391.312,0 375.03,16.284 375.03,36.297L375.03,63.586C375.03,72.075 378.173,80.212 383.88,86.498L393.89,97.52L393.89,105.942L378.836,105.942C359.122,105.942 343.084,121.981 343.084,141.694L343.084,180.312C343.084,184.549 346.519,187.983 350.755,187.983L487.816,187.983C492.052,187.983 495.487,184.55 495.487,180.312L495.487,141.695C495.485,121.982 479.447,105.943 459.733,105.943ZM358.425,172.642L358.425,141.695C358.425,130.44 367.581,121.285 378.835,121.285L401.559,121.285C405.795,121.285 409.23,117.852 409.23,113.614L409.23,94.287C409.23,91.699 407.948,89.41 405.986,88.021L395.238,76.183C392.099,72.726 390.371,68.252 390.371,63.584L390.371,36.297C390.371,24.742 399.771,15.341 411.326,15.341L427.243,15.341C438.797,15.341 448.198,24.741 448.198,36.297L448.198,63.586C448.198,68.254 446.469,72.729 443.332,76.185L432.584,88.023C430.621,89.412 429.34,91.701 429.34,94.289L429.34,113.615C429.34,117.852 432.774,121.286 437.011,121.286L459.735,121.286C470.99,121.286 480.145,130.442 480.145,141.696L480.145,172.643L358.425,172.643L358.425,172.642Z" style="fill-rule:nonzero;"/>
    <path d="M341.274,91.194L307.495,57.415C304.499,54.42 299.642,54.42 296.647,57.415C293.651,60.412 293.651,65.268 296.647,68.264L317.332,88.949L92.847,88.949C88.611,88.949 85.176,92.382 85.176,96.62L85.176,120.039C85.176,124.276 88.61,127.71 92.847,127.71C97.084,127.71 100.518,124.277 100.518,120.039L100.518,104.29L317.331,104.29L296.647,124.974C293.651,127.971 293.651,132.827 296.647,135.823C298.144,137.32 300.108,138.069 302.071,138.069C304.034,138.069 305.997,137.32 307.495,135.823L341.274,102.045C342.713,100.606 343.521,98.656 343.521,96.62C343.521,94.584 342.713,92.635 341.274,91.194Z" style="fill-rule:nonzero;"/>
    <path d="M92.847,146.851C88.611,146.851 85.176,150.284 85.176,154.522L85.176,288.4C85.176,292.637 88.61,296.071 92.847,296.071C97.084,296.071 100.518,292.638 100.518,288.4L100.518,154.521C100.518,150.284 97.084,146.851 92.847,146.851Z" style="fill-rule:nonzero;"/>
    <path d="M418.94,202.499C414.704,202.499 411.269,205.932 411.269,210.17L411.269,415.042L190.423,415.042L211.108,394.357C214.104,391.36 214.104,386.504 211.108,383.508C208.112,380.513 203.255,380.513 200.26,383.508L166.481,417.287C163.485,420.284 163.485,425.14 166.481,428.136L200.26,461.915C201.757,463.412 203.721,464.161 205.684,464.161C207.647,464.161 209.61,463.412 211.108,461.915C214.104,458.918 214.104,454.062 211.108,451.066L190.423,430.382L418.94,430.382C423.176,430.382 426.611,426.949 426.611,422.711L426.611,210.17C426.611,205.933 423.176,202.499 418.94,202.499Z" style="fill-rule:nonzero;"/>
    <path d="M306.866,220.554C306.118,200.861 290.105,184.848 270.411,184.099C259.984,183.705 250.117,187.461 242.619,194.681C235.117,201.904 230.986,211.615 230.986,222.025C230.986,226.262 234.421,229.696 238.657,229.696C242.893,229.696 246.328,226.263 246.328,222.025C246.328,215.823 248.79,210.036 253.259,205.732C257.726,201.431 263.6,199.19 269.828,199.429C281.554,199.876 291.089,209.41 291.534,221.136C291.937,231.739 285.088,241.079 274.881,243.85C266.866,246.026 261.267,253.361 261.267,261.685L261.267,280.981C261.267,285.218 264.702,288.652 268.938,288.652C273.174,288.652 276.609,285.219 276.609,280.981L276.609,261.685C276.609,260.267 277.551,259.022 278.901,258.656C296.042,254.004 307.541,238.335 306.866,220.554Z" style="fill-rule:nonzero;"/>
    <path d="M268.939,292.623C260.085,292.623 252.882,299.825 252.882,308.68C252.882,317.533 260.084,324.737 268.939,324.737C277.794,324.737 284.996,317.534 284.996,308.68C284.996,299.827 277.793,292.623 268.939,292.623ZM268.94,309.396C268.545,309.396 268.225,309.076 268.225,308.681C268.225,308.286 268.545,307.965 268.94,307.965C269.335,307.965 269.655,308.286 269.655,308.681C269.655,309.076 269.335,309.396 268.94,309.396Z" style="fill-rule:nonzero;"/>
</svg>
