<?xml version="1.0" encoding="UTF-8" standalone="no"?>
<!DOCTYPE svg PUBLIC "-//W3C//DTD SVG 1.1//EN" "http://www.w3.org/Graphics/SVG/1.1/DTD/svg11.dtd">
<svg width="100%" height="100%" viewBox="0 0 496 496" version="1.1" xmlns="http://www.w3.org/2000/svg" xmlns:xlink="http://www.w3.org/1999/xlink" xml:space="preserve" xmlns:serif="http://www.serif.com/" style="fill-rule:evenodd;clip-rule:evenodd;stroke-linejoin:round;stroke-miterlimit:1.41421;">
    <g>
        <ellipse cx="40.5" cy="89" rx="11.5" ry="10" style="fill:rgb(255,138,55);"/>
        <ellipse cx="249.5" cy="24.5" rx="15.5" ry="14.5" style="fill:rgb(255,138,55);"/>
        <g transform="matrix(1,0,0,1,0,-1)">
            <ellipse cx="393.5" cy="89" rx="14.5" ry="10" style="fill:rgb(255,138,55);"/>
        </g>
        <g transform="matrix(0.85,0,0,1,68.4,0)">
            <ellipse cx="476" cy="24.5" rx="20" ry="14.5" style="fill:rgb(255,138,55);"/>
        </g>
        <ellipse cx="22.5" cy="248.5" rx="13.5" ry="12.5" style="fill:rgb(255,138,55);"/>
        <g transform="matrix(1,0,0,1.26087,0,-85.0435)">
            <ellipse cx="22.5" cy="314.5" rx="13.5" ry="11.5" style="fill:rgb(255,138,55);"/>
        </g>
        <circle cx="80.5" cy="422.5" r="14.5" style="fill:rgb(255,138,55);"/>
        <g transform="matrix(1,0,0,0.56,0,201.52)">
            <ellipse cx="33.25" cy="483" rx="10.75" ry="25" style="fill:rgb(255,138,55);"/>
        </g>
        <ellipse cx="217" cy="472" rx="15" ry="14" style="fill:rgb(255,138,55);"/>
        <ellipse cx="378.5" cy="472" rx="13.5" ry="14" style="fill:rgb(255,138,55);"/>
        <ellipse cx="472" cy="472" rx="13" ry="14" style="fill:rgb(255,138,55);"/>
        <g transform="matrix(1,0,0,1,-0.5,-3.5)">
            <path d="M248.5,179C285.754,179 316,211.486 316,251.5C316,291.514 285.754,324 248.5,324C211.246,324 181,291.514 181,251.5C181,211.486 211.246,179 248.5,179ZM248.5,225.5C262.022,225.5 273,237.15 273,251.5C273,265.85 262.022,277.5 248.5,277.5C234.978,277.5 224,265.85 224,251.5C224,237.15 234.978,225.5 248.5,225.5Z" style="fill:rgb(255,138,55);"/>
        </g>
        <g transform="matrix(2.61,0,0,1.22727,-271.75,-48.1818)">
            <rect x="175" y="190" width="50" height="22" style="fill:rgb(255,138,55);"/>
        </g>
        <g transform="matrix(2.61,0,0,1.22727,-271.75,51.8182)">
            <rect x="175" y="190" width="50" height="22" style="fill:rgb(255,138,55);"/>
        </g>
        <rect x="161" y="238" width="31" height="23" style="fill:rgb(255,138,55);"/>
        <rect x="306" y="235" width="28" height="30" style="fill:rgb(255,138,55);"/>
        <rect x="234" y="164" width="26" height="27" style="fill:rgb(255,138,55);"/>
        <rect x="234" y="307" width="26" height="31" style="fill:rgb(255,138,55);"/>
        <path d="M40,449.472L40,364.28L58.424,352L88,352L88,336L53.576,336L24,355.72L24,449.472C14.704,452.784 8,461.584 8,472C8,485.232 18.768,496 32,496C45.232,496 56,485.232 56,472C56,461.584 49.288,452.784 40,449.472ZM32,480C27.584,480 24,476.416 24,472C24,467.584 27.584,464 32,464C36.416,464 40,467.584 40,472C40,476.416 36.416,480 32,480Z" style="fill-rule:nonzero;"/>
        <path d="M46.528,320L88,320L88,304L46.528,304C43.216,294.712 34.416,288 24,288C10.768,288 0,298.768 0,312C0,325.232 10.768,336 24,336C34.416,336 43.216,329.288 46.528,320ZM16,312C16,307.584 19.584,304 24,304C28.416,304 32,307.584 32,312C32,316.416 28.416,320 24,320C19.584,320 16,316.416 16,312Z" style="fill-rule:nonzero;"/>
        <path d="M24,272C34.416,272 43.216,265.288 46.528,256L88,256L88,240L46.528,240C43.216,230.704 34.416,224 24,224C10.768,224 0,234.768 0,248C0,261.232 10.768,272 24,272ZM24,240C28.416,240 32,243.584 32,248C32,252.416 28.416,256 24,256C19.584,256 16,252.416 16,248C16,243.584 19.584,240 24,240Z" style="fill-rule:nonzero;"/>
        <rect x="56" y="272" width="32" height="16"/>
        <rect x="56" y="208" width="32" height="16"/>
        <rect x="0" y="176" width="88" height="16"/>
        <path d="M60.688,160L88,160L88,144L67.312,144L48,124.688L48,110.528C57.288,107.216 64,98.416 64,88C64,74.768 53.232,64 40,64C26.768,64 16,74.768 16,88C16,98.416 22.704,107.216 32,110.528L32,131.312L60.688,160ZM40,80C44.416,80 48,83.584 48,88C48,92.416 44.416,96 40,96C35.584,96 32,92.416 32,88C32,83.584 35.584,80 40,80Z" style="fill-rule:nonzero;"/>
        <path d="M144,67.312L144,88L160,88L160,60.688L131.312,32L0,32L0,48L124.688,48L144,67.312Z" style="fill-rule:nonzero;"/>
        <path d="M176,35.312L176,88L192,88L192,28.688L163.312,0L0,0L0,16L156.688,16L176,35.312Z" style="fill-rule:nonzero;"/>
        <rect x="208" y="56" width="16" height="32"/>
        <rect x="304" y="0" width="16" height="88"/>
        <path d="M240,46.528L240,88L256,88L256,59.312L272,75.312L272,88L288,88L288,68.688L262.392,43.08C268.192,38.696 272,31.816 272,24C272,10.768 261.232,0 248,0C234.768,0 224,10.768 224,24C224,34.416 230.704,43.216 240,46.528ZM248,16C252.416,16 256,19.584 256,24C256,28.416 252.416,32 248,32C243.584,32 240,28.416 240,24C240,19.584 243.584,16 248,16Z" style="fill-rule:nonzero;"/>
        <path d="M352,51.312L371.312,32L449.472,32C451.888,38.776 457.224,44.112 464,46.528L464,156.688L444.688,176L408,176L408,192L451.312,192L480,163.312L480,46.528C489.288,43.216 496,34.416 496,24C496,10.768 485.232,0 472,0C461.584,0 452.784,6.712 449.472,16L364.688,16L336,44.688L336,88L352,88L352,51.312ZM472,16C476.416,16 480,19.584 480,24C480,28.416 476.416,32 472,32C467.584,32 464,28.416 464,24C464,19.584 467.584,16 472,16Z" style="fill-rule:nonzero;"/>
        <path d="M414.08,97.392L432,115.312L432,124.688L412.688,144L408,144L408,160L419.312,160L448,131.312L448,108.688L419.312,80L414.528,80C411.216,70.712 402.416,64 392,64C378.768,64 368,74.768 368,88C368,101.232 378.768,112 392,112C401.904,112 410.416,105.968 414.08,97.392ZM392,96C387.584,96 384,92.416 384,88C384,83.584 387.584,80 392,80C396.416,80 400,83.584 400,88C400,92.416 396.416,96 392,96Z" style="fill-rule:nonzero;"/>
        <rect x="408" y="208" width="88" height="16"/>
        <path d="M480,449.472L480,268.688L451.312,240L408,240L408,256L444.688,256L464,275.312L464,316.688L451.312,304L408,304L408,320L444.688,320L464,339.312L464,449.472C454.704,452.784 448,461.584 448,472C448,485.232 458.768,496 472,496C485.232,496 496,485.232 496,472C496,461.584 489.288,452.784 480,449.472ZM472,480C467.584,480 464,476.416 464,472C464,467.584 467.584,464 472,464C476.416,464 480,467.584 480,472C480,476.416 476.416,480 472,480Z" style="fill-rule:nonzero;"/>
        <rect x="408" y="272" width="32" height="16"/>
        <path d="M448,364.688L419.312,336L408,336L408,352L412.688,352L432,371.312L432,416L352,416L352,408L336,408L336,432L432,432L432,444.688L412.688,464L398.528,464C395.216,454.712 386.416,448 376,448C362.768,448 352,458.768 352,472C352,485.232 362.768,496 376,496C386.416,496 395.216,489.288 398.528,480L419.312,480L448,451.312L448,364.688ZM376,480C371.584,480 368,476.416 368,472C368,467.584 371.584,464 376,464C380.416,464 384,467.584 384,472C384,476.416 380.416,480 376,480Z" style="fill-rule:nonzero;"/>
        <path d="M160,408L144,408L144,416L102.528,416C99.216,406.712 90.416,400 80,400C66.768,400 56,410.768 56,424C56,437.232 66.768,448 80,448C90.416,448 99.216,441.288 102.528,432L160,432L160,408ZM80,432C75.584,432 72,428.416 72,424C72,419.584 75.584,416 80,416C84.416,416 88,419.584 88,424C88,428.416 84.416,432 80,432Z" style="fill-rule:nonzero;"/>
        <rect x="304" y="408" width="16" height="88"/>
        <rect x="272" y="408" width="16" height="88"/>
        <path d="M240,420.688L224,436.688L224,408L208,408L208,449.472C198.704,452.784 192,461.584 192,472C192,485.232 202.768,496 216,496C229.232,496 240,485.232 240,472C240,464.184 236.192,457.304 230.392,452.92L256,427.312L256,408L240,408L240,420.688ZM216,480C211.584,480 208,476.416 208,472C208,467.584 211.584,464 216,464C220.416,464 224,467.584 224,472C224,476.416 220.416,480 216,480Z" style="fill-rule:nonzero;"/>
        <path d="M192,408L176,408L176,428.688L152,452.688L152,496L168,496L168,459.312L192,435.312L192,408Z" style="fill-rule:nonzero;"/>
        <path d="M336,392L352,392L352,376L376,376L376,352L392,352L392,336L376,336L376,320L392,320L392,304L376,304L376,288L392,288L392,272L376,272L376,256L392,256L392,240L376,240L376,224L392,224L392,208L376,208L376,192L392,192L392,176L376,176L376,160L392,160L392,144L376,144L376,120L352,120L352,104L336,104L336,120L320,120L320,104L304,104L304,120L288,120L288,104L272,104L272,120L256,120L256,104L240,104L240,120L224,120L224,104L208,104L208,120L192,120L192,104L176,104L176,120L160,120L160,104L144,104L144,120L140.688,120L120,140.688L120,144L104,144L104,160L120,160L120,176L104,176L104,192L120,192L120,208L104,208L104,224L120,224L120,240L104,240L104,256L120,256L120,272L104,272L104,288L120,288L120,304L104,304L104,320L120,320L120,336L104,336L104,352L120,352L120,376L144,376L144,392L160,392L160,376L176,376L176,392L192,392L192,376L208,376L208,392L224,392L224,376L240,376L240,392L256,392L256,376L272,376L272,392L288,392L288,376L304,376L304,392L320,392L320,376L336,376L336,392ZM136,360L136,147.312L147.312,136L360,136L360,360L136,360Z" style="fill-rule:nonzero;"/>
        <path d="M318.888,211.048L332.848,197.088L298.912,163.152L284.952,177.112C280.792,174.928 276.464,173.136 272,171.728L272,152L224,152L224,171.728C219.528,173.136 215.2,174.928 211.048,177.112L197.088,163.152L163.152,197.088L177.112,211.048C174.936,215.208 173.136,219.536 171.728,224L152,224L152,272L171.728,272C173.136,276.472 174.928,280.8 177.112,284.952L163.152,298.912L197.088,332.848L211.048,318.888C215.208,321.064 219.528,322.864 224,324.272L224,344L272,344L272,324.272C276.472,322.864 280.8,321.072 284.952,318.888L298.912,332.848L332.848,298.912L318.888,284.952C321.064,280.8 322.864,276.472 324.272,272L344,272L344,224L324.272,224C322.864,219.528 321.072,215.2 318.888,211.048ZM328,256L311.776,256L310.36,262.224C308.76,269.24 305.992,275.896 302.144,282.016L298.736,287.424L310.232,298.92L298.92,310.232L287.424,298.736L282.016,302.144C275.896,305.992 269.24,308.76 262.224,310.36L256,311.776L256,328L240,328L240,311.776L233.776,310.36C226.76,308.76 220.104,305.992 213.984,302.144L208.576,298.736L197.08,310.232L185.768,298.92L197.264,287.424L193.856,282.016C190.008,275.896 187.24,269.24 185.64,262.224L184.224,256L168,256L168,240L184.224,240L185.64,233.776C187.24,226.76 190.008,220.104 193.856,213.984L197.264,208.576L185.768,197.08L197.08,185.768L208.576,197.256L213.984,193.848C220.104,190 226.76,187.232 233.776,185.632L240,184.224L240,168L256,168L256,184.224L262.224,185.64C269.24,187.24 275.896,190.008 282.016,193.856L287.424,197.264L298.92,185.776L310.232,197.088L298.736,208.584L302.144,213.992C305.992,220.112 308.76,226.768 310.36,233.784L311.776,240L328,240L328,256Z" style="fill-rule:nonzero;"/>
        <path d="M248,208C225.944,208 208,225.944 208,248C208,270.056 225.944,288 248,288C270.056,288 288,270.056 288,248C288,225.944 270.056,208 248,208ZM248,272C234.768,272 224,261.232 224,248C224,234.768 234.768,224 248,224C261.232,224 272,234.768 272,248C272,261.232 261.232,272 248,272Z" style="fill-rule:nonzero;"/>
    </g>
</svg>
