<?xml version="1.0" encoding="UTF-8" standalone="no"?>
<!DOCTYPE svg PUBLIC "-//W3C//DTD SVG 1.1//EN" "http://www.w3.org/Graphics/SVG/1.1/DTD/svg11.dtd">
<svg width="100%" height="100%" viewBox="0 0 492 492" version="1.1" xmlns="http://www.w3.org/2000/svg" xmlns:xlink="http://www.w3.org/1999/xlink" xml:space="preserve" xmlns:serif="http://www.serif.com/" style="fill-rule:evenodd;clip-rule:evenodd;stroke-linejoin:round;stroke-miterlimit:1.41421;">
    <rect x="8" y="327" width="472" height="59" style="fill:rgb(255,138,55);"/>
    <path d="M491.52,399.36L491.52,20.48L0,20.48L0,399.36L153.6,399.36L153.6,450.56L112.64,450.56L112.64,471.04L378.88,471.04L378.88,450.56L337.92,450.56L337.92,399.36L491.52,399.36ZM20.48,40.96L471.04,40.96L471.04,317.44L20.48,317.44L20.48,40.96ZM317.44,450.56L174.08,450.56L174.08,399.36L317.44,399.36L317.44,450.56ZM20.48,378.88L20.48,337.92L471.04,337.92L471.04,378.88L20.48,378.88Z" style="fill-rule:nonzero;"/>
    <rect x="307.2" y="61.44" width="133.12" height="20.48"/>
    <rect x="235.52" y="61.44" width="51.2" height="20.48"/>
    <rect x="194.56" y="61.44" width="20.48" height="20.48"/>
    <rect x="153.6" y="61.44" width="20.48" height="20.48"/>
    <rect x="317.44" y="215.04" width="122.88" height="20.48"/>
    <rect x="276.48" y="215.04" width="20.48" height="20.48"/>
    <rect x="235.52" y="215.04" width="20.48" height="20.48"/>
    <rect x="337.92" y="163.84" width="102.4" height="20.48"/>
    <rect x="194.56" y="163.84" width="122.88" height="20.48"/>
    <rect x="225.28" y="112.64" width="40.96" height="20.48"/>
    <rect x="286.72" y="112.64" width="153.6" height="20.48"/>
    <rect x="51.2" y="112.64" width="153.6" height="20.48"/>
    <rect x="245.76" y="266.24" width="194.56" height="20.48"/>
    <path d="M176.2,202.68L161.72,217.16L190.32,245.76L161.72,274.36L176.2,288.84L219.28,245.76L176.2,202.68Z" style="fill-rule:nonzero;"/>
    <path d="M94.28,217.16L79.8,202.68L36.72,245.76L79.8,288.84L94.28,274.36L65.68,245.76L94.28,217.16Z" style="fill-rule:nonzero;"/>
    <g transform="matrix(0.3711,-0.9286,0.9286,0.3711,-147.728,273.431)">
        <rect x="72.86" y="235.538" width="110.281" height="20.48"/>
    </g>
</svg>
