<?xml version="1.0" encoding="UTF-8" standalone="no"?>
<!DOCTYPE svg PUBLIC "-//W3C//DTD SVG 1.1//EN" "http://www.w3.org/Graphics/SVG/1.1/DTD/svg11.dtd">
<svg width="100%" height="100%" viewBox="0 0 512 512" version="1.1" xmlns="http://www.w3.org/2000/svg" xmlns:xlink="http://www.w3.org/1999/xlink" xml:space="preserve" xmlns:serif="http://www.serif.com/" style="fill-rule:evenodd;clip-rule:evenodd;stroke-linejoin:round;stroke-miterlimit:1.41421;">
    <g transform="matrix(1.175,0,0,1,-17.5,0)">
        <ellipse cx="80" cy="64" rx="20" ry="21" style="fill:rgb(255,138,55);"/>
    </g>
    <g transform="matrix(1.175,0,0,1,74.5,0)">
        <ellipse cx="80" cy="64" rx="20" ry="21" style="fill:rgb(255,138,55);"/>
    </g>
    <g transform="matrix(1.175,0,0,1,168.5,0)">
        <ellipse cx="80" cy="64" rx="20" ry="21" style="fill:rgb(255,138,55);"/>
    </g>
    <g transform="matrix(0.698659,-0.715455,0.715455,0.698659,166.651,126.772)">
        <rect x="64" y="171" width="81" height="116" style="fill:rgb(255,138,55);"/>
    </g>
    <path d="M503.983,4.276L256,4.276L8.017,4.276C3.589,4.276 0,7.865 0,12.292L0,499.708C0,504.135 3.589,507.725 8.017,507.725L503.983,507.725C508.41,507.725 512,504.136 512,499.708L512,114.906L512,12.292C512,7.865 508.411,4.276 503.983,4.276ZM495.967,491.691L256,491.691L16.033,491.691L16.033,122.923L495.967,122.923L495.967,491.691ZM495.967,106.889L256,106.889L16.033,106.889L16.033,20.309L495.967,20.309L495.967,106.889Z" style="fill-rule:nonzero;"/>
    <path d="M427.023,38.48L332.96,38.48C328.533,38.48 324.943,42.069 324.943,46.497C324.943,50.924 328.532,54.514 332.96,54.514L427.023,54.514C431.45,54.514 435.04,50.925 435.04,46.497C435.04,42.07 431.45,38.48 427.023,38.48Z" style="fill-rule:nonzero;"/>
    <path d="M469.779,38.48L452.677,38.48C448.25,38.48 444.66,42.069 444.66,46.497C444.66,50.924 448.249,54.514 452.677,54.514L469.779,54.514C474.206,54.514 477.796,50.925 477.796,46.497C477.795,42.07 474.206,38.48 469.779,38.48Z" style="fill-rule:nonzero;"/>
    <path d="M264.551,29.929C260.716,29.929 256.939,30.576 253.329,31.853C253.32,31.856 253.313,31.861 253.304,31.863C239.892,36.617 230.881,49.367 230.881,63.6C230.881,77.832 239.892,90.582 253.303,95.337C253.312,95.34 253.319,95.345 253.328,95.348C256.939,96.624 260.715,97.272 264.55,97.272C283.116,97.272 298.22,82.167 298.22,63.602C298.22,45.037 283.117,29.929 264.551,29.929ZM264.551,81.236C262.54,81.236 260.563,80.897 258.671,80.229C258.67,80.229 258.669,80.228 258.668,80.228C251.638,77.74 246.914,71.058 246.914,63.599C246.914,56.14 251.637,49.459 258.669,46.97C258.67,46.97 258.671,46.97 258.672,46.969C260.563,46.3 262.541,45.962 264.552,45.962C274.277,45.962 282.189,53.874 282.189,63.599C282.189,73.324 274.276,81.236 264.551,81.236Z" style="fill-rule:nonzero;"/>
    <path d="M170.489,29.929C151.923,29.929 136.819,45.034 136.819,63.599C136.819,82.164 151.924,97.269 170.489,97.269C189.054,97.269 204.159,82.165 204.159,63.599C204.159,45.033 189.054,29.929 170.489,29.929ZM170.489,81.236C160.764,81.236 152.852,73.324 152.852,63.599C152.852,53.874 160.764,45.962 170.489,45.962C180.214,45.962 188.126,53.874 188.126,63.599C188.126,73.324 180.213,81.236 170.489,81.236Z" style="fill-rule:nonzero;"/>
    <path d="M76.426,29.929C57.86,29.929 42.756,45.034 42.756,63.599C42.756,82.164 57.861,97.269 76.426,97.269C94.991,97.269 110.096,82.165 110.096,63.599C110.096,45.033 94.992,29.929 76.426,29.929ZM76.426,81.236C66.701,81.236 58.789,73.324 58.789,63.599C58.789,53.874 66.701,45.962 76.426,45.962C86.151,45.962 94.063,53.874 94.063,63.599C94.063,73.324 86.151,81.236 76.426,81.236Z" style="fill-rule:nonzero;"/>
    <path d="M480.454,214.537L395.803,129.884C392.672,126.753 387.596,126.753 384.465,129.884L330.5,183.85L256,183.85L72.15,183.85C67.723,183.85 64.133,187.439 64.133,191.867C64.133,196.295 67.722,199.884 72.15,199.884L314.466,199.884L250.331,264.019L193.681,320.669L72.15,320.669C67.723,320.669 64.133,324.258 64.133,328.686C64.133,333.114 67.722,336.703 72.15,336.703L177.647,336.703L160.369,353.981C160.36,353.99 160.352,353.998 160.342,354.008L160.328,354.022C160.303,354.047 160.283,354.073 160.259,354.099C160.1,354.263 159.945,354.431 159.798,354.609C159.743,354.674 159.698,354.744 159.645,354.811C159.537,354.951 159.429,355.091 159.33,355.24C159.265,355.337 159.208,355.439 159.147,355.539C159.073,355.661 158.996,355.782 158.929,355.909C158.861,356.037 158.802,356.169 158.741,356.299C158.692,356.404 158.639,356.506 158.595,356.614C158.528,356.776 158.471,356.943 158.414,357.109C158.386,357.191 158.354,357.27 158.328,357.354C158.264,357.566 158.211,357.78 158.166,357.996C158.157,358.038 158.144,358.077 158.135,358.119L158.13,358.144C158.128,358.154 158.126,358.163 158.125,358.173L138.263,457.489L72.15,457.489C67.723,457.489 64.133,461.078 64.133,465.506C64.133,469.933 67.722,473.523 72.15,473.523L144.791,473.523C144.803,473.523 144.814,473.524 144.827,473.524L144.845,473.524C144.857,473.524 144.869,473.523 144.881,473.523L151.157,473.523C153.296,473.523 155.234,472.68 156.671,471.315L191.709,464.307C191.714,464.306 191.719,464.305 191.724,464.304L191.756,464.298L252.171,452.215C252.178,452.214 252.186,452.212 252.194,452.211L252.222,452.206C252.269,452.196 252.313,452.181 252.36,452.171C252.57,452.125 252.779,452.075 252.985,452.013C253.073,451.986 253.156,451.952 253.243,451.923C253.404,451.867 253.567,451.813 253.725,451.748C253.837,451.701 253.944,451.646 254.053,451.595C254.179,451.536 254.306,451.48 254.43,451.413C254.56,451.343 254.683,451.265 254.808,451.19C254.905,451.131 255.005,451.076 255.099,451.013C255.248,450.914 255.389,450.805 255.53,450.697C255.596,450.646 255.666,450.6 255.731,450.545C255.906,450.401 256.072,450.248 256.234,450.09C256.261,450.063 256.291,450.042 256.316,450.015L256.332,449.999C256.341,449.99 256.349,449.983 256.357,449.974L261.666,444.665L371.972,334.359L419.987,286.344L480.452,225.879C483.584,222.743 483.584,217.667 480.454,214.537ZM202.669,334.353C202.67,334.352 202.671,334.351 202.672,334.351L261.67,275.353L329.67,207.353L345.542,223.226L193.208,375.56L177.335,359.687L202.669,334.353ZM356.878,234.564L375.774,253.46L306.218,323.016L250.332,378.902L223.441,405.793L204.545,386.897L356.878,234.564ZM155.055,455.283L158.829,436.414L173.924,451.509L155.055,455.283ZM192.819,447.731L162.608,417.52L170.922,375.95L217.773,422.801L234.391,439.418L192.819,447.731ZM360.637,323.016L250.65,433.002L234.777,417.13L261.668,390.239L317.554,334.353L387.11,264.797L402.982,280.669L360.637,323.016ZM414.32,269.332L392.78,247.792L362.546,217.559L341.006,196.018L390.135,146.89L463.449,220.204L414.32,269.332Z" style="fill-rule:nonzero;"/>
    <path d="M394.211,169.096C391.081,165.965 386.004,165.965 382.874,169.096L363.634,188.336C360.503,191.467 360.503,196.543 363.634,199.673C365.199,201.238 367.251,202.021 369.302,202.021C371.353,202.021 373.405,201.239 374.97,199.673L394.21,180.433C397.342,177.302 397.342,172.225 394.211,169.096Z" style="fill-rule:nonzero;"/>
</svg>
