<?xml version="1.0" encoding="UTF-8" standalone="no"?>
<!DOCTYPE svg PUBLIC "-//W3C//DTD SVG 1.1//EN" "http://www.w3.org/Graphics/SVG/1.1/DTD/svg11.dtd">
<svg width="100%" height="100%" viewBox="0 0 61 61" version="1.1" xmlns="http://www.w3.org/2000/svg" xmlns:xlink="http://www.w3.org/1999/xlink" xml:space="preserve" xmlns:serif="http://www.serif.com/" style="fill-rule:evenodd;clip-rule:evenodd;stroke-linejoin:round;stroke-miterlimit:1.41421;">
    <g>
        <rect x="1" y="22" width="4" height="9" style="fill:rgb(255,138,55);"/>
        <rect x="9" y="35" width="7" height="21" style="fill:rgb(255,138,55);"/>
        <g transform="matrix(1,0,0,1.02273,0,-1.11364)">
            <rect x="41" y="5" width="7" height="44" style="fill:rgb(255,138,55);"/>
        </g>
        <path d="M50.052,20.458L50.052,7.589C50.052,5.75 49.11,4.087 47.532,3.143C46.732,2.664 45.847,2.417 44.957,2.402C44.074,2.378 43.185,2.583 42.37,3.02L40,4.29L40,4.316L22.787,13.538C21.542,14.205 20.649,15.335 20.264,16.649L7.236,17.445C5.59,17.562 4.288,18.851 4.091,20.453L3.211,20.453C1.44,20.452 0,21.893 0,23.663L0,29.241C0,31.012 1.44,32.452 3.211,32.452L4.096,32.452C4.313,34.227 5.756,35.655 7.588,35.786L8.052,35.814L8.052,53.102C8.052,55.583 10.071,57.602 12.552,57.602C15.033,57.602 17.052,55.583 17.052,53.102L17.052,36.362L20.29,36.559C20.7,37.886 21.627,39.01 22.918,39.654L40,48.195L40,48.221L42.499,49.471C43.236,49.84 44.029,50.023 44.82,50.023C44.828,50.023 44.836,50.021 44.844,50.021C44.853,50.021 44.863,50.023 44.872,50.023C45.815,50.023 46.756,49.762 47.594,49.245C49.133,48.294 50.052,46.645 50.052,44.836L50.052,32.447C52.784,32.419 55,30.192 55,27.452L55,25.452C55,22.713 52.784,20.486 50.052,20.458ZM15.052,53.103C15.052,54.482 13.931,55.603 12.552,55.603C11.173,55.603 10.052,54.482 10.052,53.103L10.052,52.453L12.052,52.453C12.605,52.453 13.052,52.006 13.052,51.453C13.052,50.9 12.605,50.453 12.052,50.453L10.052,50.453L10.052,48.453L12.052,48.453C12.605,48.453 13.052,48.006 13.052,47.453C13.052,46.9 12.605,46.453 12.052,46.453L10.052,46.453L10.052,44.453L12.052,44.453C12.605,44.453 13.052,44.006 13.052,43.453C13.052,42.9 12.605,42.453 12.052,42.453L10.052,42.453L10.052,40.453L12.052,40.453C12.605,40.453 13.052,40.006 13.052,39.453C13.052,38.9 12.605,38.453 12.052,38.453L10.052,38.453L10.052,35.941L15.052,36.251L15.052,53.103ZM43.446,47.682L42,46.959L42,5.515L43.365,4.784C43.787,4.558 44.241,4.449 44.698,4.424C44.762,4.422 44.824,4.403 44.888,4.404C44.894,4.404 44.899,4.405 44.905,4.405C45.44,4.42 45.972,4.571 46.452,4.859C47.422,5.439 48,6.459 48,7.589L48,44.835C48,45.946 47.436,46.958 46.49,47.542C46.023,47.831 45.504,47.988 44.979,48.015C44.458,48.033 43.933,47.925 43.446,47.682ZM4,30.452L3.211,30.452C2.543,30.452 2,29.909 2,29.242L2,23.664C2,22.996 2.543,22.453 3.211,22.453L4,22.453L4,30.452ZM6.052,31.999L6.052,20.865C6.052,20.119 6.635,19.493 7.368,19.44L20.052,18.666L20.052,34.54L7.72,33.791C6.784,33.724 6.052,32.937 6.052,31.999ZM23.812,37.865C22.726,37.323 22.052,36.232 22.052,35.018L22.052,18.108C22.052,16.932 22.696,15.857 23.733,15.302L40,6.586L40,45.958L23.812,37.865ZM53,27.452C53,29.089 51.682,30.418 50.052,30.447L50.052,22.457C51.682,22.486 53,23.816 53,25.452L53,27.452Z" style="fill-rule:nonzero;"/>
        <path d="M57.817,19.876C57.5,19.425 56.875,19.317 56.423,19.635C55.972,19.953 55.863,20.576 56.182,21.029C57.338,22.67 57.95,24.503 57.999,26.479C58.063,28.972 56.753,31.08 56.186,31.87C55.864,32.319 55.967,32.944 56.415,33.266C56.592,33.393 56.796,33.454 56.997,33.454C57.309,33.454 57.615,33.309 57.81,33.037C58.495,32.082 60.078,29.527 59.998,26.429C59.939,24.05 59.205,21.846 57.817,19.876Z" style="fill-rule:nonzero;"/>
        <path d="M31.896,15.009C31.651,14.515 31.054,14.31 30.556,14.556L26.105,16.757C24.807,17.452 24,18.799 24,20.273L24,22.453C24,23.006 24.447,23.453 25,23.453C25.553,23.453 26,23.006 26,22.453L26,20.273C26,19.539 26.402,18.867 27.021,18.536L31.444,16.349C31.938,16.104 32.142,15.504 31.896,15.009Z" style="fill-rule:nonzero;"/>
        <path d="M25,24.452C24.447,24.452 24,24.899 24,25.452L24,27.452C24,28.005 24.447,28.452 25,28.452C25.553,28.452 26,28.005 26,27.452L26,25.452C26,24.9 25.553,24.452 25,24.452Z" style="fill-rule:nonzero;"/>
    </g>
</svg>
