<?xml version="1.0" encoding="UTF-8" standalone="no"?>
<!DOCTYPE svg PUBLIC "-//W3C//DTD SVG 1.1//EN" "http://www.w3.org/Graphics/SVG/1.1/DTD/svg11.dtd">
<svg width="100%" height="100%" viewBox="0 0 491 491" version="1.1" xmlns="http://www.w3.org/2000/svg" xmlns:xlink="http://www.w3.org/1999/xlink" xml:space="preserve" xmlns:serif="http://www.serif.com/" style="fill-rule:evenodd;clip-rule:evenodd;stroke-linejoin:round;stroke-miterlimit:1.41421;">
    <g transform="matrix(1.13485,0.560012,-0.360991,0.731541,61.5506,-128.713)">
        <rect x="435" y="325" width="42" height="115" style="fill:rgb(255,138,55);"/>
    </g>
    <g>
        <circle cx="166.658" cy="164.129" r="137.1" style="fill:rgb(255,138,55);"/>
        <path d="M490.358,377.629C490.358,377.329 490.358,377.029 490.258,376.729C490.258,376.429 490.158,376.129 490.058,375.829C489.958,375.529 489.958,375.229 489.858,375.029C489.758,374.729 489.658,374.529 489.458,374.229C489.358,373.929 489.258,373.729 489.058,373.429C488.958,373.129 488.758,372.929 488.558,372.729C488.358,372.529 488.258,372.229 488.058,372.029C487.858,371.829 487.658,371.629 487.358,371.429C487.158,371.229 486.958,371.029 486.758,370.829C486.558,370.629 486.258,370.529 485.958,370.329C485.758,370.229 485.558,370.029 485.258,369.929L374.958,315.529C374.658,315.329 374.358,315.229 373.958,315.129C372.058,314.429 326.558,298.529 289.358,315.229L207.258,344.929C207.058,345.029 206.758,345.129 206.558,345.229C194.758,350.629 188.558,362.729 191.058,375.429C193.558,388.029 203.758,396.929 216.558,397.529C216.658,397.529 216.658,397.529 216.758,397.529C217.558,397.529 221.158,397.329 258.558,394.929C274.858,393.929 291.658,392.829 293.158,392.729C297.858,392.529 301.758,388.729 301.858,383.929C301.958,378.929 298.058,374.729 292.958,374.629C292.458,374.629 292.458,374.629 257.458,376.829C239.958,377.929 220.358,379.229 217.058,379.429C210.758,378.929 209.258,373.629 208.858,372.029C208.158,368.629 209.158,364.129 213.858,361.829L295.858,332.129C296.058,332.029 296.258,331.929 296.558,331.829C325.358,318.729 362.958,330.529 367.458,331.929L416.558,356.129L389.558,419.829C376.258,411.629 360.058,409.429 345.058,413.929L234.858,447.029C221.758,451.029 207.258,449.529 195.158,442.929L22.558,349.429C16.358,346.029 18.358,340.129 18.858,338.929C19.458,337.329 22.058,332.329 28.358,334.029L162.458,378.729C167.158,380.329 172.358,377.729 173.958,373.029C175.558,368.229 172.958,363.129 168.258,361.529L33.858,316.629C33.658,316.529 33.558,316.529 33.358,316.529C20.058,312.929 7.158,319.329 2.058,332.129C-3.142,345.029 1.758,358.629 13.958,365.329L186.658,459.129C202.958,468.029 222.458,470.029 240.158,464.629L350.358,431.529C360.458,428.529 371.358,429.929 380.258,435.629L436.458,471.029C436.758,471.229 436.958,471.329 437.258,471.429C437.358,471.429 437.358,471.529 437.458,471.529L437.558,471.529C437.658,471.629 437.758,471.629 437.958,471.629C438.158,471.729 438.458,471.829 438.658,471.929C438.758,471.929 438.958,472.029 439.058,472.029C439.258,472.129 439.558,472.129 439.758,472.229C439.858,472.229 440.058,472.229 440.158,472.329C440.558,472.329 440.858,472.429 441.258,472.429C441.658,472.429 442.058,472.429 442.458,472.329C442.558,472.329 442.758,472.329 442.858,472.229C443.158,472.229 443.358,472.129 443.658,472.029C443.758,472.029 443.958,471.929 444.058,471.929C444.258,471.829 444.558,471.729 444.758,471.629C444.858,471.529 445.058,471.529 445.158,471.429C445.358,471.329 445.558,471.229 445.858,471.029C445.958,470.929 446.158,470.829 446.258,470.829C446.458,470.729 446.658,470.529 446.858,470.429C446.958,470.329 447.158,470.229 447.258,470.129L448.158,469.229C448.358,469.029 448.458,468.829 448.558,468.629C448.658,468.529 448.758,468.329 448.858,468.229C448.858,468.229 448.858,468.129 448.958,468.129C448.958,468.029 449.058,467.929 449.058,467.929C449.158,467.729 449.358,467.429 449.458,467.129L489.458,381.929C489.558,381.629 489.658,381.429 489.758,381.129C489.858,380.829 489.958,380.529 490.058,380.329C490.158,380.029 490.158,379.729 490.158,379.429C490.158,379.129 490.258,378.829 490.258,378.529C490.358,378.229 490.358,377.929 490.358,377.629ZM469.358,382.229L437.458,450.129L405.158,429.729L432.858,364.329L469.358,382.229Z" style="fill-rule:nonzero;"/>
        <path d="M153.858,173.229L179.258,173.229C189.658,173.229 198.058,181.629 198.058,192.029C198.058,202.429 189.658,210.829 179.258,210.829L133.558,210.829C128.558,210.829 124.458,214.929 124.458,219.929C124.458,224.929 128.558,229.029 133.558,229.029L157.458,229.029L157.458,246.929C157.458,251.929 161.558,256.029 166.558,256.029C171.558,256.029 175.658,251.929 175.658,246.929L175.658,229.029L179.358,229.029C199.758,229.029 216.358,212.429 216.358,192.029C216.358,171.629 199.758,155.029 179.358,155.029L153.958,155.029C143.558,155.029 135.158,146.629 135.158,136.229C135.158,125.829 143.558,117.429 153.958,117.429L198.858,117.429C203.858,117.429 207.958,113.329 207.958,108.329C207.958,103.329 203.858,99.229 198.858,99.229L175.758,99.229L175.758,81.729C175.758,76.729 171.658,72.629 166.658,72.629C161.658,72.629 157.558,76.729 157.558,81.729L157.558,99.329L153.858,99.329C133.458,99.329 116.858,115.929 116.858,136.329C116.958,156.629 133.558,173.229 153.858,173.229Z" style="fill-rule:nonzero;"/>
        <g transform="matrix(1,0,0,1,0.05,0.05)">
            <path d="M166.658,310.229C247.258,310.229 312.758,244.629 312.758,164.129C312.758,83.629 247.158,17.929 166.658,17.929C86.158,17.929 20.458,83.529 20.458,164.129C20.458,244.729 86.058,310.229 166.658,310.229ZM166.658,36.129C237.258,36.129 294.658,93.529 294.658,164.129C294.658,234.729 237.258,292.129 166.658,292.129C96.058,292.129 38.658,234.729 38.658,164.129C38.658,93.529 96.058,36.129 166.658,36.129Z" style="fill-rule:nonzero;"/>
        </g>
    </g>
</svg>
