<?xml version="1.0" encoding="UTF-8" standalone="no"?>
<!DOCTYPE svg PUBLIC "-//W3C//DTD SVG 1.1//EN" "http://www.w3.org/Graphics/SVG/1.1/DTD/svg11.dtd">
<svg width="100%" height="100%" viewBox="0 0 513 513" version="1.1" xmlns="http://www.w3.org/2000/svg" xmlns:xlink="http://www.w3.org/1999/xlink" xml:space="preserve" xmlns:serif="http://www.serif.com/" style="fill-rule:evenodd;clip-rule:evenodd;stroke-linejoin:round;stroke-miterlimit:1.41421;">
    <g transform="matrix(0.871676,-0.490082,0.490082,0.871676,-120.93,245.848)">
        <rect x="389" y="337" width="53" height="155.445" style="fill:rgb(255,138,55);"/>
    </g>
    <path d="M351,114C416.678,114 470,165.978 470,230C470,294.022 416.678,346 351,346C285.322,346 232,294.022 232,230C232,165.978 285.322,114 351,114ZM351,148C397.361,148 435,184.743 435,230C435,275.257 397.361,312 351,312C304.639,312 267,275.257 267,230C267,184.743 304.639,148 351,148Z" style="fill:rgb(255,138,55);"/>
    <path d="M439.037,185.945C422.006,154.589 389.239,135.111 353.524,135.111C337.435,135.111 321.416,139.193 307.196,146.917C260.089,172.505 242.58,231.647 268.166,278.755C285.197,310.11 317.963,329.59 353.677,329.591C353.679,329.591 353.679,329.591 353.681,329.591C369.766,329.591 385.786,325.508 400.007,317.785C422.828,305.39 439.455,284.85 446.827,259.949C454.199,235.048 451.432,208.766 439.037,185.945ZM427.649,254.271C421.795,274.05 408.588,290.365 390.461,300.21C379.16,306.347 366.443,309.591 353.68,309.591C353.679,309.591 353.678,309.591 353.677,309.591C325.301,309.59 299.27,294.116 285.74,269.209C265.418,231.792 279.325,184.816 316.741,164.492C328.04,158.355 340.759,155.112 353.523,155.112C381.9,155.112 407.932,170.584 421.461,195.491C431.308,213.617 433.505,234.492 427.649,254.271Z" style="fill-rule:nonzero;"/>
    <path d="M377.289,169.435L376.816,169.258C371.635,167.347 365.885,170.002 363.975,175.184C362.066,180.366 364.719,186.115 369.902,188.024L370.32,188.181C371.468,188.608 372.645,188.81 373.803,188.81C377.863,188.81 381.681,186.319 383.178,182.291C385.103,177.115 382.466,171.359 377.289,169.435Z" style="fill-rule:nonzero;"/>
    <path d="M412.675,200.26C410.632,196.5 408.237,192.938 405.558,189.674C402.054,185.406 395.752,184.786 391.483,188.289C387.215,191.793 386.593,198.094 390.097,202.363C391.977,204.653 393.661,207.158 395.1,209.808C401.222,221.081 402.509,234.037 398.724,246.29C397.094,251.567 400.05,257.166 405.327,258.796C406.31,259.1 407.305,259.244 408.282,259.244C412.553,259.244 416.507,256.487 417.834,252.193C423.222,234.752 421.39,216.309 412.675,200.26Z" style="fill-rule:nonzero;"/>
    <path d="M509.445,449.708L441.421,324.469C457.385,309.299 469.172,290.149 475.591,268.466C485.238,235.881 481.618,201.489 465.398,171.628C448.5,140.517 419.761,118.354 386.481,109.449C360.711,73.085 324.667,46.222 283.754,31.744C283.119,31.445 282.456,31.219 281.778,31.058C259.864,23.545 236.597,19.557 212.793,19.557C115.038,19.557 32.48,85.821 7.645,175.787C7.457,176.312 7.307,176.848 7.208,177.397C2.517,194.935 0,213.354 0,232.352C0,296.394 28.44,353.916 73.35,392.959C73.987,393.681 74.722,394.307 75.535,394.818C112.616,426.194 160.53,445.146 212.794,445.146C280.654,445.146 344.179,412.841 384.26,358.365L451.09,481.403C453.777,486.351 458.24,489.96 463.659,491.563C465.651,492.153 467.682,492.445 469.701,492.445C473.17,492.445 476.601,491.582 479.729,489.884L500.968,478.346C511.199,472.789 515.002,459.943 509.445,449.708ZM357.686,105.177C356.293,105.132 354.897,105.106 353.498,105.106C332.448,105.106 311.486,110.448 292.879,120.554C263.017,136.774 241.258,163.652 231.611,196.237C221.965,228.822 225.584,263.213 241.804,293.075C249.965,308.1 260.896,321.029 273.757,331.398L244.976,353.974L225.222,345.538L210.599,284.457C210.018,282.029 208.549,279.906 206.482,278.505L179.802,260.435L162.082,219.953L209.493,139.355C210.397,137.818 210.874,136.067 210.874,134.285L210.874,101.939L280.95,52.015C310.267,63.099 336.68,81.255 357.686,105.177ZM82.266,305.375L65.648,324.457C63.75,326.637 62.887,329.532 63.283,332.396L66.854,358.194C37.672,324.399 20,280.401 20,232.352C20,224.162 20.517,216.09 21.514,208.165L52.1,264.083C53.029,265.78 54.429,267.172 56.132,268.089L83.142,282.631L82.266,305.375ZM212.794,425.146C166.274,425.146 123.551,408.584 90.208,381.048L83.718,334.162L99.664,315.852C101.162,314.131 102.027,311.95 102.115,309.669L103.367,277.168C103.514,273.353 101.476,269.788 98.115,267.978L68.223,251.884L27.811,178.002C51.335,98.075 125.353,39.557 212.794,39.557C227.781,39.557 242.529,41.318 256.799,44.663L195.071,88.64C192.437,90.516 190.874,93.551 190.874,96.785L190.874,131.562L142.255,214.215C140.628,216.98 140.427,220.357 141.713,223.295L162.64,271.104C163.398,272.834 164.629,274.314 166.193,275.374L192.053,292.889L206.943,355.087C207.68,358.165 209.831,360.712 212.741,361.956L242.564,374.691C243.827,375.231 245.163,375.495 246.49,375.495C248.692,375.495 250.872,374.768 252.664,373.363L291.139,343.183C309.895,353.755 331.357,359.597 353.707,359.597C355.036,359.597 356.365,359.575 357.693,359.533C321.294,400.982 268.662,425.146 212.794,425.146ZM353.706,339.596C314.308,339.596 278.164,318.112 259.378,283.527C245.708,258.36 242.657,229.375 250.787,201.913C258.918,174.45 277.256,151.797 302.424,138.127C318.11,129.607 335.772,125.103 353.497,125.103C361.906,125.103 370.164,126.09 378.139,127.966C378.319,128.008 378.497,128.054 378.679,128.087C407.843,135.106 433.138,154.136 447.823,181.173C461.494,206.34 464.545,235.325 456.415,262.788C450.353,283.261 438.616,301.059 422.608,314.457C422.47,314.566 422.336,314.678 422.207,314.794C416.853,319.231 411.027,323.179 404.779,326.572C389.093,335.094 371.431,339.596 353.706,339.596ZM491.423,460.771L470.184,472.308C469.861,472.483 469.543,472.447 469.335,472.385C469.127,472.323 468.842,472.182 468.666,471.858L402.387,349.834C406.453,348.145 410.443,346.257 414.326,344.148C418.228,342.028 421.988,339.723 425.604,337.251L491.87,459.252C492.154,459.778 491.946,460.487 491.423,460.771Z" style="fill-rule:nonzero;"/>
    <path d="M74.514,137.927C69.62,135.361 63.578,137.251 61.015,142.143L60.59,142.962C58.073,147.878 60.019,153.903 64.935,156.42C66.394,157.167 67.95,157.521 69.483,157.521C73.118,157.521 76.624,155.533 78.393,152.076L78.73,151.427C81.293,146.534 79.405,140.49 74.514,137.927Z" style="fill-rule:nonzero;"/>
    <path d="M160.219,72.057C158.311,66.874 152.562,64.22 147.379,66.129C121.231,75.757 97.93,92.206 79.992,113.7C76.453,117.94 77.022,124.246 81.263,127.785C83.133,129.346 85.406,130.108 87.664,130.108C90.527,130.108 93.369,128.885 95.348,126.515C111.043,107.708 131.425,93.317 154.29,84.897C159.473,82.987 162.127,77.239 160.219,72.057Z" style="fill-rule:nonzero;"/>
</svg>
