<?xml version="1.0" encoding="UTF-8" standalone="no"?>
<!DOCTYPE svg PUBLIC "-//W3C//DTD SVG 1.1//EN" "http://www.w3.org/Graphics/SVG/1.1/DTD/svg11.dtd">
<svg width="100%" height="100%" viewBox="0 0 100 100" version="1.1" xmlns="http://www.w3.org/2000/svg" xmlns:xlink="http://www.w3.org/1999/xlink" xml:space="preserve" xmlns:serif="http://www.serif.com/" style="fill-rule:evenodd;clip-rule:evenodd;stroke-linejoin:round;stroke-miterlimit:1.41421;">
    <g transform="matrix(1,0,0,1,-586.7,-3866.55)">
        <g transform="matrix(1,0,0,4.00463,16,2355.01)">
            <g id="_005-profile" serif:id="005-profile" transform="matrix(1.72414,0,0,0.430536,620.7,389.936)">
                <g transform="matrix(1,0,0,1,-29,-29)">
                    <g>
                        <g transform="matrix(0.0628675,-0.0657127,0.193547,0.185167,27.6593,34.3183)">
                            <rect x="30" y="31" width="27.501" height="27" style="fill:rgb(255,138,55);"/>
                        </g>
                        <g transform="matrix(6.04648e-05,-0.0909421,0.267857,0.00017809,23.9608,48.9708)">
                            <rect x="30" y="31" width="27.501" height="27" style="fill:rgb(255,138,55);"/>
                        </g>
                        <g transform="matrix(-0.0762069,-0.0496284,0.146173,-0.224456,35.3959,62.125)">
                            <rect x="30" y="31" width="27.501" height="27" style="fill:rgb(255,138,55);"/>
                        </g>
                        <g transform="matrix(-0.0684957,0.0598232,-0.1762,-0.201744,61.3376,56.7434)">
                            <rect x="30" y="31" width="27.501" height="27" style="fill:rgb(255,138,55);"/>
                        </g>
                        <g transform="matrix(-0.000349772,0.0909415,-0.267855,-0.0010302,64.4348,41.6396)">
                            <rect x="30" y="31" width="27.501" height="27" style="fill:rgb(255,138,55);"/>
                        </g>
                        <g transform="matrix(0.0623477,0.066206,-0.195,0.183636,56.619,28.5042)">
                            <rect x="30" y="31" width="27.501" height="27" style="fill:rgb(255,138,55);"/>
                        </g>
                        <g transform="matrix(0.0909302,0.00147357,-0.00434019,0.267821,40.7149,25.59)">
                            <rect x="30" y="31" width="27.501" height="27" style="fill:rgb(255,138,55);"/>
                        </g>
                        <g transform="matrix(1,0,0,1,0.147807,0.694725)">
                            <path d="M43.191,35.25C43.572,35.206 43.959,35.183 44.352,35.183C49.765,35.183 54.159,39.527 54.159,44.878C54.159,50.228 49.765,54.573 44.352,54.573C38.94,54.573 34.545,50.228 34.545,44.878C34.545,41.634 36.16,38.76 38.638,37L43.191,37L43.191,35.25ZM44.94,41C47.114,41 48.879,42.697 48.879,44.786C48.879,46.876 47.114,48.573 44.94,48.573C42.765,48.573 41,46.876 41,44.786C41,42.697 42.765,41 44.94,41Z" style="fill:rgb(255,138,55);"/>
                        </g>
                        <g transform="matrix(1,0,0,1,-0.0589284,-1)">
                            <rect x="42" y="36.183" width="2.5" height="2.817" style="fill:rgb(255,138,55);"/>
                        </g>
                        <g transform="matrix(1,0,0,1,7.5,1)">
                            <rect x="42" y="36.183" width="2.5" height="2.817" style="fill:rgb(255,138,55);"/>
                        </g>
                        <g transform="matrix(-0.0909301,-0.00148248,0.00436643,-0.267821,48.2839,65.5843)">
                            <rect x="30" y="31" width="27.501" height="27" style="fill:rgb(255,138,55);"/>
                        </g>
                        <path d="M44.5,40C41.743,40 39.5,42.243 39.5,45C39.5,47.757 41.743,50 44.5,50C47.257,50 49.5,47.757 49.5,45C49.5,42.243 47.257,40 44.5,40ZM44.5,48C42.846,48 41.5,46.654 41.5,45C41.5,43.346 42.846,42 44.5,42C46.154,42 47.5,43.346 47.5,45C47.5,46.654 46.154,48 44.5,48Z" style="fill-rule:nonzero;"/>
                        <path d="M56.688,42.863L55.244,42.586C54.567,42.456 54.034,42.013 53.782,41.37C53.529,40.728 53.619,40.041 54.027,39.485L54.934,38.249C55.226,37.851 55.184,37.299 54.834,36.95L52.875,34.992C52.536,34.653 52.004,34.604 51.607,34.871L50.39,35.695C49.819,36.083 49.129,36.146 48.495,35.87C47.863,35.595 47.44,35.045 47.335,34.362L47.102,32.847C47.028,32.36 46.608,32 46.115,32L43.345,32C42.866,32 42.453,32.341 42.363,32.812L42.005,34.677C41.878,35.339 41.447,35.867 40.824,36.125C40.2,36.386 39.523,36.314 38.964,35.936L37.392,34.872C36.995,34.605 36.464,34.654 36.124,34.993L34.165,36.951C33.815,37.3 33.773,37.851 34.065,38.25L34.972,39.486C35.38,40.042 35.47,40.729 35.217,41.371C34.965,42.014 34.432,42.457 33.755,42.587L32.311,42.864C31.84,42.955 31.499,43.367 31.499,43.846L31.499,46.616C31.499,47.109 31.859,47.529 32.347,47.604L33.862,47.837C34.545,47.942 35.094,48.365 35.37,48.997C35.646,49.63 35.582,50.32 35.195,50.892L34.371,52.109C34.102,52.505 34.153,53.038 34.492,53.377L36.45,55.336C36.798,55.684 37.348,55.727 37.749,55.436L38.985,54.529C39.541,54.122 40.23,54.03 40.87,54.284C41.513,54.536 41.956,55.069 42.086,55.746L42.363,57.19C42.454,57.659 42.866,58 43.346,58L46.116,58C46.609,58 47.029,57.64 47.104,57.152L47.268,56.087C47.373,55.399 47.82,54.831 48.461,54.565C49.104,54.3 49.821,54.386 50.382,54.797L51.251,55.435C51.65,55.728 52.202,55.685 52.55,55.335L54.508,53.376C54.847,53.037 54.898,52.505 54.629,52.108L53.805,50.891C53.418,50.32 53.354,49.629 53.63,48.996C53.905,48.364 54.455,47.941 55.138,47.836L56.653,47.603C57.14,47.528 57.501,47.108 57.501,46.615L57.501,43.845C57.5,43.366 57.159,42.954 56.688,42.863ZM55.5,45.758L54.833,45.861C53.479,46.069 52.344,46.943 51.797,48.198C51.249,49.454 51.381,50.88 52.149,52.013L52.51,52.546L51.742,53.314L51.565,53.184C50.435,52.358 48.99,52.182 47.696,52.717C46.402,53.253 45.504,54.399 45.291,55.782L45.258,56L44.172,56L44.051,55.367C43.792,54.021 42.876,52.92 41.602,52.42C40.326,51.921 38.907,52.106 37.802,52.914L37.258,53.313L36.49,52.545L36.851,52.012C37.619,50.878 37.75,49.452 37.203,48.197C36.656,46.942 35.52,46.068 34.167,45.86L33.5,45.758L33.5,44.672L34.133,44.551C35.479,44.292 36.58,43.376 37.08,42.102C37.58,40.827 37.395,39.407 36.586,38.302L36.187,37.758L36.955,36.99L37.844,37.592C38.951,38.343 40.354,38.484 41.591,37.973C42.828,37.46 43.718,36.369 43.971,35.054L44.172,34L45.258,34L45.361,34.667C45.569,36.021 46.443,37.156 47.698,37.703C48.953,38.251 50.38,38.119 51.513,37.351L52.046,36.99L52.814,37.758L52.415,38.302C51.605,39.406 51.421,40.826 51.921,42.102C52.421,43.376 53.523,44.292 54.868,44.551L55.501,44.672L55.501,45.758L55.5,45.758Z" style="fill-rule:nonzero;"/>
                        <path d="M28,53C27.366,53 26.734,52.969 26.105,52.922C25.996,52.914 25.887,52.907 25.779,52.897C25.145,52.841 24.514,52.766 23.889,52.664C23.861,52.659 23.833,52.654 23.805,52.649C22.483,52.428 21.182,52.103 19.915,51.678C19.876,51.665 19.836,51.652 19.797,51.638C19.168,51.424 18.546,51.188 17.935,50.925C17.931,50.923 17.926,50.921 17.922,50.919C17.344,50.67 16.777,50.394 16.217,50.103C16.144,50.065 16.07,50.029 15.998,49.99C15.487,49.717 14.987,49.422 14.494,49.114C14.348,49.022 14.203,48.929 14.059,48.835C13.605,48.538 13.157,48.229 12.721,47.902C12.676,47.868 12.633,47.832 12.588,47.798C12.62,47.78 12.652,47.762 12.684,47.744L20.591,43.431C21.951,42.689 22.796,41.266 22.796,39.717L22.795,36.115L22.565,35.837C22.543,35.812 20.381,33.182 19.564,29.621L19.473,29.225L19.132,29.004C18.651,28.693 18.363,28.173 18.363,27.612L18.363,24.067C18.363,23.602 18.56,23.169 18.92,22.844L19.25,22.546L19.25,16.976L19.241,16.845C19.238,16.821 18.943,14.416 20.637,12.485C22.083,10.837 24.561,10 28,10C31.426,10 33.896,10.83 35.346,12.466C37.038,14.377 36.761,16.827 36.759,16.847L36.75,22.548L37.08,22.846C37.439,23.17 37.637,23.604 37.637,24.069L37.637,27.614C37.637,28.327 37.152,28.974 36.456,29.189C35.929,29.351 35.633,29.912 35.796,30.439C35.958,30.966 36.516,31.26 37.046,31.099C38.596,30.621 39.637,29.22 39.637,27.614L39.637,24.069C39.637,23.202 39.319,22.361 38.75,21.7L38.75,17.033C38.802,16.513 38.986,13.585 36.867,11.169C35.024,9.065 32.041,8 28,8C23.959,8 20.976,9.065 19.133,11.168C17.014,13.584 17.198,16.514 17.25,17.032L17.25,21.699C16.682,22.36 16.363,23.201 16.363,24.068L16.363,27.613C16.363,28.714 16.857,29.741 17.703,30.434C18.513,33.607 20.18,36.009 20.796,36.823L20.796,39.717C20.796,40.533 20.351,41.283 19.634,41.675L11.727,45.988C11.475,46.125 11.225,46.285 10.975,46.464C5.776,41.792 2.5,35.022 2.5,27.5C2.5,13.439 13.939,2 28,2C42.061,2 53.5,13.439 53.5,27.5C53.5,28.053 53.947,28.5 54.5,28.5C55.053,28.5 55.5,28.053 55.5,27.5C55.5,12.337 43.163,0 28,0C12.837,0 0.5,12.337 0.5,27.5C0.5,35.509 3.944,42.728 9.426,47.758L9.4,47.781L10.292,48.533C10.35,48.582 10.413,48.622 10.47,48.67C10.944,49.063 11.435,49.436 11.935,49.797C12.097,49.914 12.259,50.032 12.424,50.145C12.958,50.513 13.506,50.862 14.066,51.193C14.188,51.265 14.311,51.335 14.434,51.405C15.047,51.754 15.673,52.083 16.314,52.385C16.361,52.407 16.408,52.427 16.456,52.449C18.545,53.42 20.775,54.133 23.107,54.554C23.168,54.565 23.229,54.576 23.291,54.587C24.015,54.712 24.747,54.812 25.488,54.879C25.578,54.887 25.669,54.892 25.759,54.9C26.498,54.961 27.244,55 28,55C28.553,55 29,54.553 29,54C29,53.447 28.553,53 28,53Z" style="fill-rule:nonzero;"/>
                    </g>
                </g>
            </g>
        </g>
    </g>
</svg>
