<?xml version="1.0" encoding="UTF-8" standalone="no"?>
<!DOCTYPE svg PUBLIC "-//W3C//DTD SVG 1.1//EN" "http://www.w3.org/Graphics/SVG/1.1/DTD/svg11.dtd">
<svg width="100%" height="100%" viewBox="0 0 480 480" version="1.1" xmlns="http://www.w3.org/2000/svg" xmlns:xlink="http://www.w3.org/1999/xlink" xml:space="preserve" xmlns:serif="http://www.serif.com/" style="fill-rule:evenodd;clip-rule:evenodd;stroke-linejoin:round;stroke-miterlimit:1.41421;">
    <rect x="155" y="159" width="170" height="36" style="fill:rgb(255,138,55);"/>
    <g transform="matrix(1.68317,0,0,1.33824,-127.772,-65.9559)">
        <ellipse cx="218.5" cy="161" rx="50.5" ry="34" style="fill:rgb(255,138,55);"/>
    </g>
    <g transform="matrix(2.35,0,0,2.11111,-277,-22.5556)">
        <ellipse cx="220" cy="36.5" rx="20" ry="22.5" style="fill:rgb(255,138,55);"/>
    </g>
    <path d="M277.648,97.336C288.888,87.088 296,72.376 296,56C296,25.128 270.88,0 240,0C209.12,0 184,25.128 184,56C184,72.376 191.112,87.088 202.352,97.336C169.16,103.736 144,132.968 144,168L144,200C144,204.424 147.584,208 152,208L328,208C332.416,208 336,204.424 336,200L336,168C336,132.968 310.84,103.736 277.648,97.336ZM200,56C200,33.944 217.944,16 240,16C262.056,16 280,33.944 280,56C280,78.056 262.056,96 240,96C217.944,96 200,78.056 200,56ZM320,192L160,192L160,168C160,137.128 185.12,112 216,112L264,112C294.88,112 320,137.128 320,168L320,192Z" style="fill-rule:nonzero;"/>
    <path d="M133.648,369.336C144.888,359.088 152,344.376 152,328C152,297.128 126.88,272 96,272C65.12,272 40,297.128 40,328C40,344.376 47.112,359.088 58.352,369.336C25.16,375.736 0,404.968 0,440L0,472C0,476.424 3.584,480 8,480L184,480C188.416,480 192,476.424 192,472L192,440C192,404.968 166.84,375.736 133.648,369.336ZM56,328C56,305.944 73.944,288 96,288C118.056,288 136,305.944 136,328C136,350.056 118.056,368 96,368C73.944,368 56,350.056 56,328ZM176,464L16,464L16,440C16,409.128 41.12,384 72,384L120,384C150.88,384 176,409.128 176,440L176,464Z" style="fill-rule:nonzero;"/>
    <path d="M421.648,369.336C432.888,359.088 440,344.376 440,328C440,297.128 414.88,272 384,272C353.12,272 328,297.128 328,328C328,344.376 335.112,359.088 346.352,369.336C313.16,375.736 288,404.968 288,440L288,472C288,476.424 291.584,480 296,480L472,480C476.416,480 480,476.424 480,472L480,440C480,404.968 454.84,375.736 421.648,369.336ZM344,328C344,305.944 361.944,288 384,288C406.056,288 424,305.944 424,328C424,350.056 406.056,368 384,368C361.944,368 344,350.056 344,328ZM464,464L304,464L304,440C304,409.128 329.12,384 360,384L408,384C438.88,384 464,409.128 464,440L464,464Z" style="fill-rule:nonzero;"/>
    <path d="M48.152,255.744L32.168,256.368C32.384,261.88 32.824,267.464 33.48,272.952L49.368,271.048C48.76,265.984 48.352,260.832 48.152,255.744Z" style="fill-rule:nonzero;"/>
    <path d="M33.472,223.176C32.824,228.632 32.376,234.208 32.168,239.752L48.152,240.376C48.352,235.256 48.76,230.112 49.36,225.064L33.472,223.176Z" style="fill-rule:nonzero;"/>
    <path d="M113.912,82.544C109.536,85.88 105.224,89.448 101.088,93.16L111.784,105.064C115.592,101.64 119.568,98.344 123.608,95.272L113.912,82.544Z" style="fill-rule:nonzero;"/>
    <path d="M51.736,159.44C49.384,164.44 47.208,169.592 45.256,174.784L60.232,180.408C62.032,175.624 64.04,170.872 66.208,166.272L51.736,159.44Z" style="fill-rule:nonzero;"/>
    <path d="M40.024,190.584C38.504,195.872 37.184,201.32 36.088,206.744L51.776,209.904C52.784,204.904 54,199.88 55.408,194.992L40.024,190.584Z" style="fill-rule:nonzero;"/>
    <path d="M89.176,104.776C85.344,108.808 81.664,113.008 78.208,117.272L90.648,127.336C93.832,123.4 97.24,119.512 100.776,115.792L89.176,104.776Z" style="fill-rule:nonzero;"/>
    <path d="M141.864,64.568C137.024,67.152 132.2,69.992 127.512,73.008L136.184,86.464C140.504,83.672 144.952,81.056 149.4,78.68L141.864,64.568Z" style="fill-rule:nonzero;"/>
    <path d="M68.272,130.6C65.144,135.168 62.168,139.904 59.424,144.696L73.304,152.648C75.832,148.232 78.584,143.856 81.472,139.648L68.272,130.6Z" style="fill-rule:nonzero;"/>
    <path d="M202.096,436.256L198.936,451.944C204.32,453.032 209.856,453.904 215.384,454.552L217.24,438.664C212.16,438.064 207.056,437.256 202.096,436.256Z" style="fill-rule:nonzero;"/>
    <path d="M278.408,436.16C273.44,437.168 268.344,437.992 263.24,438.616L265.168,454.504C270.688,453.832 276.208,452.936 281.584,451.848L278.408,436.16Z" style="fill-rule:nonzero;"/>
    <path d="M247.944,439.84C242.832,440.04 237.664,440.064 232.584,439.864L231.952,455.848C234.616,455.96 237.304,456.008 240.024,456.008C242.888,455.992 245.744,455.936 248.584,455.824L247.944,439.84Z" style="fill-rule:nonzero;"/>
    <path d="M378.944,93.224L368.256,105.128C372.064,108.552 375.76,112.152 379.256,115.832L390.872,104.832C387.08,100.832 383.072,96.928 378.944,93.224Z" style="fill-rule:nonzero;"/>
    <path d="M401.824,117.32L389.384,127.384C392.576,131.328 395.664,135.48 398.56,139.704L411.752,130.656C408.616,126.088 405.28,121.6 401.824,117.32Z" style="fill-rule:nonzero;"/>
    <path d="M447.832,239.776L431.848,240.4C431.952,242.92 432,245.464 432,248C432,250.6 431.952,253.184 431.848,255.768L447.832,256.392C447.944,253.608 448,250.808 448,247.984C448,245.24 447.944,242.496 447.832,239.776Z" style="fill-rule:nonzero;"/>
    <path d="M420.608,144.736L406.72,152.696C409.256,157.12 411.64,161.704 413.816,166.312L428.288,159.48C425.936,154.488 423.352,149.528 420.608,144.736Z" style="fill-rule:nonzero;"/>
    <path d="M434.76,174.816L419.784,180.448C421.576,185.216 423.192,190.12 424.6,195.016L439.984,190.608C438.464,185.296 436.704,179.984 434.76,174.816Z" style="fill-rule:nonzero;"/>
    <path d="M443.904,206.776L428.224,209.928C429.232,214.936 430.048,220.04 430.64,225.096L446.528,223.208C445.88,217.736 445,212.208 443.904,206.776Z" style="fill-rule:nonzero;"/>
    <path d="M352.536,73.04L343.872,86.496C348.144,89.248 352.368,92.216 356.44,95.328L366.152,82.6C361.744,79.232 357.168,76.024 352.536,73.04Z" style="fill-rule:nonzero;"/>
    <path d="M323.232,57.328L316.824,71.984C321.488,74.024 326.128,76.28 330.632,78.696L338.2,64.6C333.328,61.976 328.288,59.528 323.232,57.328Z" style="fill-rule:nonzero;"/>
</svg>
