<?xml version="1.0" encoding="UTF-8" standalone="no"?>
<!DOCTYPE svg PUBLIC "-//W3C//DTD SVG 1.1//EN" "http://www.w3.org/Graphics/SVG/1.1/DTD/svg11.dtd">
<svg width="100%" height="100%" viewBox="0 0 909 792" version="1.1" xmlns="http://www.w3.org/2000/svg" xmlns:xlink="http://www.w3.org/1999/xlink" xml:space="preserve" style="fill-rule:evenodd;clip-rule:evenodd;stroke-linejoin:round;stroke-miterlimit:1.41421;">
    <g transform="matrix(1,0,0,1,-122.38,-167.58)">
        <path d="M645.487,287.828C520.483,333.442 430.95,455.313 430.95,598.33C430.95,619.459 432.904,640.126 436.638,660.153L329.17,845.31L541.069,846.066C598.027,897.075 672.695,928.02 754.4,928.02C835.296,928.02 909.293,897.688 966.034,847.584L966.75,847.586L1030.53,958.72L122.38,958.72L349.42,563.15L576.47,167.58L645.487,287.828Z" style="fill:white;fill-opacity:0.976471;"/>
        <g transform="matrix(1.04491,0,0,1.02009,-25.4266,-12.0283)">
            <g>
                <path id="bda34KnbZ" d="M623.07,369.68L628.58,367.03L633.8,364.38L641.34,362.02L648.6,358.78L657.01,356.43L664.55,352.3L673.25,350.24L680.5,347.59L690.66,345.23L696.2,344.35L703.42,343.17L711.86,341.69L722.56,339.93L732.42,338.45L740.84,337.28L747.21,337.28L755.71,336.1L769.55,336.1L776.22,337.28L782.9,337.28L792.18,338.45L801.75,339.93L811.61,341.69L819.15,343.17L826.44,345.23L832.24,346.7L838.91,348.77L847.96,352.3L853.71,354.07L859.22,356.43L865.61,358.78L869.95,360.85L874.01,364.38L873.14,368.51L871.37,373.51L868.21,374.35L864.15,374.35L859.22,375.87L851.93,377.01L847.96,373.51L846.46,369.68L842.36,364.38L835.69,362.91L828.18,362.91L819.85,362.91L812.48,366.15L804.94,370.57L798.88,374.99L792.79,377.01L788.99,381.43L781.77,387.03L777.68,392.04L772.16,395.87L767.81,402.06L764.91,406.47L764.91,414.72L766.4,422.38L769.55,425.63L774.48,423.56L784.64,423.56L788.99,425.63L792.18,428.97L792.79,434.17L792.18,439.18L784.64,443.89L777.68,445.96L767.81,445.96L761.72,445.96L756.79,443.04L751.89,439.18L743.74,439.18L734.78,440.95L727.27,445.96L717.63,451.26L711.86,455.97L704.29,461.02L697.91,466.67L694.14,471.88L694.14,492.06L699.16,496.63L714.44,495.75L727.27,495.75L739.1,496.63L752.73,496.63L763.46,495.75L773.03,496.63L779.42,495.75L779.42,491.33L779.42,487.5L777.68,483.37L779.42,479.25L784.64,480.72L792.79,482.19L796.82,485.59L801.75,486.32L804.94,489.7L809.87,489.7L813.39,492.06L818.03,497.36L818.03,503.26L817.12,508.56L815.67,514.45L808.73,514.45L799.72,514.45L786.09,514.45L777.68,514.45L771.58,512.48L764.91,511.21L754.18,511.21L749.28,509.44L737.65,508.56L727.27,508.56L722.56,512.48L714.44,516.51L707.51,516.51L704.29,515.34L699.16,521.23L690.66,522.7L687.17,525.76L682.53,522.7L674.12,522.7L667.74,521.23L664.55,524.47L657.01,527.12L647.44,527.12L638.15,531.25L633.8,534.73L633.8,550.4L630.61,556.64L628.58,563.95L625.61,567.55L622.2,572.91L620.46,576.68L623.07,582.87L623.07,589.51L622.2,593.71L622.2,601.43L624.12,607.47L627.42,613.45L631.77,618.23L637.28,622.65L643.08,624.12L648.6,624.12L655.27,626.06L660.2,630.04L663.1,634.07L664.55,639.08L664.55,648.97L667.74,652.04L673.25,653.62L678.89,653.62L684.31,656.53L688.37,657.24L696.2,657.93L701.42,659L707.51,657.93L711.86,657.24L718.25,656.53L723.76,657.93L723.76,672.87L725.21,679.51L728.4,685.7L731.59,693.48L734.78,699.55L738.26,703.79L741.45,707.91L745.51,712.33L749.28,717.64L749.28,723.23L750.73,727.99L750.73,736.2L751.89,741.79L749.28,748.28L749.28,753.29L747.21,759.47L749.28,765.37L755.71,771.85L760.89,776.9L766.4,781.57L775.1,786.28L781.77,789.82L787.81,791.88L792.79,795.71L798.88,802.47L806.43,806.91L813.39,810.74L818.03,809.85L822.96,809.85L829.33,813.09L837.17,814.27L845.59,813.09L851.1,809.85L851.1,806.91L846.46,803.79L843.55,802.47L838.91,798.15L836.3,795.71L831.37,791.29L827.31,787.17L824.12,779.56L820.93,773.25L819.85,767.94L818.03,760.36L818.03,754.32L818.03,747.39L818.03,742.68L819.85,735.02L821.8,728.94L824.12,722.05L826.44,715.37L828.18,709.27C829.15,705.54 829.53,702.3 829.33,699.55C829.12,696.8 829.12,694.24 829.33,691.88L832.24,685.7L839.78,679.51L844.72,674.5L852.55,670.38L860.38,667.76L867.05,664.19L873.14,661.54L875.46,656.53L875.46,648.97L874.01,645.33L872.27,640.03L872.27,636.2L869.95,631.37L868.21,626.77L869.95,622.65L873.14,618.23L877.2,614.4L880.65,610.27L883,605.56L885.61,601.43L888.23,597.15L889.97,591.57L889.97,587.88L884.45,584.86L881.26,582.87L875.46,581.4L869.95,579.63L865.02,576.68L859.22,574.92L855.16,570.59L853.71,567.55L853.71,565.19L857.19,563.28L859.22,561.66L864.15,560.87L868.21,560.87L872.27,563.28L877.2,566.67L889.97,566.67L895.48,569.32L903.6,574.92L911.72,579.63L927.67,589.51L935.51,592.89L942.1,594.66L949.72,595.54L952.91,601.43L955.5,611.75L958.42,624.12L959.29,631.37L962.19,635.36L966.25,642.13L970.02,648.97L973.8,653.62L976.99,662.46L976.12,667.76L976.12,688.39L978.44,698.41L980.18,705.18L978.44,713.14L980.18,721.35L979.54,728.94L976.99,732.39L972.75,739.28L968.08,745.96L960.4,755.32L955.5,760.96L947.98,770.92L942.1,776.9L933.6,785.2L926.08,792.51L919.87,798.15L914.64,802.47L906.14,808.11L897.64,816.74L889.15,821.39L880.65,826.04L865.61,834.67L858.42,837.66L847.96,843.3L837.83,846.62L829.33,849.61L819.85,853.93C815.49,854.59 811.79,855.15 808.73,855.59C805.68,856.03 802.09,856.58 797.95,857.25L787.81,859.24L778.34,859.24L768.78,860.57L762.57,860.57L755.71,860.57L747.21,859.24L736.1,859.24L727.27,859.24L719.75,857.25L709.29,855.59L699.16,853.93L688.37,851.27L678.89,847.62L669.74,845.3L660.92,841.98L651.11,838.99L642.28,833.01L634.44,829.69L625.61,824.71L619.73,821.39L613.85,817.74L606.98,813.09L601.1,808.11L595.22,803.79L588.02,798.15L582.47,792.51L574.62,785.2L568.41,779.56L561.33,773.25L557.62,767.94L552.72,760.96L546.84,754.32L542.97,749.34L539.11,743.7L536.7,736.95L538.01,727.99L540.63,721.35L541.61,715.37L540.63,710.39L545.86,704.42L546.84,695.12L548.15,687.15L550.43,678.85L551.67,672.87L556.32,664.91L557.62,657.93L557.62,648.97L556.32,643.99L550.43,641.33L544.55,635.36L548.15,631.37L551.67,630.04L551.67,626.06L556.32,621.74L558.93,619.42L558.93,616.1L563.18,612.45L563.18,607.47L563.18,604.45L561.33,599.47L557.62,597.15L551.67,589.51L548.15,584.86L542.97,578.89L538.01,573.91L532.78,573.91L523.3,573.91L515.78,573.91L512.19,572.91L505.98,573.91L501.08,572.91L501.08,570.59L501.08,563.28L501.08,556.64L502.71,551.66L503.69,544.69L505.98,534.73L507.29,525.76L508.92,519.12L510.23,512.48L512.19,506.18L515.78,499.87L517.42,492.9L521.67,485.59L524.61,478.62L527.23,473.64L531.15,466.67L534.09,461.02L539.11,451.87L542.97,443.04L551.67,443.04L561.33,447.95L571.24,443.04L581.62,438.13L590.31,435.19L599.97,432.25L610.6,426.36L617.36,415.57L621.22,405.75L624.12,394.96L621.22,383.19L617.36,374.35L623.07,369.68Z" style="fill:white;fill-rule:nonzero;"/>
            </g>
        </g>
        <path d="M754.405,317.865C906.803,317.865 1030.53,443.537 1030.53,598.33C1030.53,753.123 906.803,878.795 754.405,878.795C602.007,878.795 478.28,753.123 478.28,598.33C478.28,443.537 602.007,317.865 754.405,317.865ZM754.405,336.095C895.879,336.095 1010.74,453.599 1010.74,598.33C1010.74,743.061 895.879,860.565 754.405,860.565C612.931,860.565 498.073,743.061 498.073,598.33C498.073,453.599 612.931,336.095 754.405,336.095Z" style="fill:white;"/>
    </g>
</svg>
