<?xml version="1.0" ?><!DOCTYPE svg  PUBLIC '-//W3C//DTD SVG 1.1//EN'  'http://www.w3.org/Graphics/SVG/1.1/DTD/svg11.dtd'><svg enable-background="new 0 0 512 512" height="512px" version="1.1" viewBox="0 0 512 512" width="512px" xml:space="preserve" xmlns="http://www.w3.org/2000/svg" xmlns:xlink="http://www.w3.org/1999/xlink"><g><g id="Guides"/><g id="Layer_2"><g><path d="M507,257c0,138.066-111.934,250-250,250C118.933,507,7,395.066,7,257C7,118.933,118.933,7,257,7      C395.066,7,507,118.933,507,257L507,257z M507,257" fill="#3C5A99"/><path d="M319.843,266.792h-44.608v163.417h-67.583V266.792h-32.143v-57.449h32.143v-37.16      c0-26.572,12.618-68.201,68.192-68.201l50.048,0.217v55.752h-36.317c-5.962,0-14.34,2.979-14.34,15.646v33.815h50.527      L319.843,266.792z M319.843,266.792" fill="#FFFFFF"/></g></g></g></svg>