<?xml version="1.0" encoding="UTF-8" standalone="no"?><!DOCTYPE svg PUBLIC "-//W3C//DTD SVG 1.1//EN" "http://www.w3.org/Graphics/SVG/1.1/DTD/svg11.dtd"><svg width="100%" height="100%" viewBox="0 0 7 7" version="1.1" xmlns="http://www.w3.org/2000/svg" xmlns:xlink="http://www.w3.org/1999/xlink" xml:space="preserve" xmlns:serif="http://www.serif.com/" style="fill-rule:evenodd;clip-rule:evenodd;stroke-linejoin:round;stroke-miterlimit:1.41421;"><g><g><g><g><path d="M4.027,0.551c0.619,0.37 0.831,1.191 0.474,1.832c-0.357,0.642 -1.149,0.862 -1.768,0.491c-0.619,-0.37 -0.831,-1.191 -0.474,-1.832c0.358,-0.641 1.15,-0.861 1.768,-0.491Z" style="fill:#ff9700;"/><path d="M4.501,2.383l-2.242,-1.341l-2.013,3.614l2.242,1.342l2.013,-3.615Z" style="fill:#ff9700;"/><path d="M2.058,4.086c0.619,0.37 0.831,1.191 0.474,1.832c-0.357,0.641 -1.149,0.861 -1.768,0.491c-0.619,-0.37 -0.831,-1.191 -0.474,-1.832c0.357,-0.642 1.15,-0.862 1.768,-0.491Z" style="fill:#ff9700;"/></g><ellipse cx="5.483" cy="5.18" rx="1.36" ry="1.409" style="fill:#00deb5;"/></g></g></g></svg>