<svg xmlns="http://www.w3.org/2000/svg" width="1280" height="720"><path d="M-164,-206L113,-207L410,-224Z" fill="#e2f4f3" stroke="#e2f4f3" stroke-width="1.51"/><path d="M58,943L-200,952L762,951Z" fill="#67977a" stroke="#67977a" stroke-width="1.51"/><path d="M381,918L58,943L762,951Z" fill="#539170" stroke="#539170" stroke-width="1.51"/><path d="M1010,897L762,951L1232,893Z" fill="#1a773e" stroke="#1a773e" stroke-width="1.51"/><path d="M666,-214L981,-194L1369,-220Z" fill="#97caa8" stroke="#97caa8" stroke-width="1.51"/><path d="M981,-194L1159,-159L1369,-220Z" fill="#8dbe99" stroke="#8dbe99" stroke-width="1.51"/><path d="M1367,459L1360,594L1472,633Z" fill="#208246" stroke="#208246" stroke-width="1.51"/><path d="M1367,459L1472,633L1475,407Z" fill="#26844f" stroke="#26844f" stroke-width="1.51"/><path d="M666,-214L1369,-220L1486,-228Z" fill="#8ebe99" stroke="#8ebe99" stroke-width="1.51"/><path d="M410,-224L666,-214L1486,-228Z" fill="#a1d6b9" stroke="#a1d6b9" stroke-width="1.51"/><path d="M1486,-228L1369,-220L1514,-53Z" fill="#7da689" stroke="#7da689" stroke-width="1.51"/><path d="M1514,-53L1365,162L1529,87Z" fill="#6a9d7d" stroke="#6a9d7d" stroke-width="1.51"/><path d="M1365,162L1454,311L1529,87Z" fill="#579774" stroke="#579774" stroke-width="1.51"/><path d="M1454,311L1475,407L1529,87Z" fill="#488e6a" stroke="#488e6a" stroke-width="1.51"/><path d="M1487,767L1328,877L1536,842Z" fill="#006228" stroke="#006228" stroke-width="1.51"/><path d="M1472,633L1487,767L1536,842Z" fill="#09662c" stroke="#09662c" stroke-width="1.51"/><path d="M1475,407L1472,633L1536,842Z" fill="#177238" stroke="#177238" stroke-width="1.51"/><path d="M1529,87L1475,407L1536,842Z" fill="#2d8153" stroke="#2d8153" stroke-width="1.51"/><path d="M1275,-81L1365,162L1514,-53Z" fill="#74a785" stroke="#74a785" stroke-width="1.51"/><path d="M1369,-220L1275,-81L1514,-53Z" fill="#7eab8b" stroke="#7eab8b" stroke-width="1.51"/><path d="M1472,633L1343,697L1487,767Z" fill="#107032" stroke="#107032" stroke-width="1.51"/><path d="M1343,697L1328,877L1487,767Z" fill="#056d2d" stroke="#056d2d" stroke-width="1.51"/><path d="M1365,162L1296,248L1454,311Z" fill="#519c72" stroke="#519c72" stroke-width="1.51"/><path d="M1360,594L1343,697L1472,633Z" fill="#177a3b" stroke="#177a3b" stroke-width="1.51"/><path d="M1454,311L1367,459L1475,407Z" fill="#368c5d" stroke="#368c5d" stroke-width="1.51"/><path d="M1296,248L1367,459L1454,311Z" fill="#3f9567" stroke="#3f9567" stroke-width="1.51"/><path d="M1226,780L1328,877L1343,697Z" fill="#097331" stroke="#097331" stroke-width="1.51"/><path d="M1275,-81L1150,-25L1365,162Z" fill="#79b18b" stroke="#79b18b" stroke-width="1.51"/><path d="M1150,-25L1165,189L1365,162Z" fill="#6eaf87" stroke="#6eaf87" stroke-width="1.51"/><path d="M1296,248L1207,258L1367,459Z" fill="#469c6d" stroke="#469c6d" stroke-width="1.51"/><path d="M1207,258L1117,501L1367,459Z" fill="#3c9b66" stroke="#3c9b66" stroke-width="1.51"/><path d="M1148,548L1360,594L1367,459Z" fill="#278e50" stroke="#278e50" stroke-width="1.51"/><path d="M1159,-159L1275,-81L1369,-220Z" fill="#86b692" stroke="#86b692" stroke-width="1.51"/><path d="M1117,501L1148,548L1367,459Z" fill="#2f965a" stroke="#2f965a" stroke-width="1.51"/><path d="M1165,189L1296,248L1365,162Z" fill="#5ca67c" stroke="#5ca67c" stroke-width="1.51"/><path d="M1148,548L1343,697L1360,594Z" fill="#1f8644" stroke="#1f8644" stroke-width="1.51"/><path d="M1148,548L1226,780L1343,697Z" fill="#1a823d" stroke="#1a823d" stroke-width="1.51"/><path d="M1226,780L1232,893L1328,877Z" fill="#066e2e" stroke="#066e2e" stroke-width="1.51"/><path d="M1076,457L1117,501L1207,258Z" fill="#41a16b" stroke="#41a16b" stroke-width="1.51"/><path d="M1063,343L1076,457L1207,258Z" fill="#49a674" stroke="#49a674" stroke-width="1.51"/><path d="M1148,548L1065,650L1226,780Z" fill="#228944" stroke="#228944" stroke-width="1.51"/><path d="M1165,189L1207,258L1296,248Z" fill="#5aa77c" stroke="#5aa77c" stroke-width="1.51"/><path d="M1159,-159L1150,-25L1275,-81Z" fill="#85b995" stroke="#85b995" stroke-width="1.51"/><path d="M1150,-25L1062,15L1165,189Z" fill="#7bb991" stroke="#7bb991" stroke-width="1.51"/><path d="M1065,650L1023,703L1226,780Z" fill="#1f8741" stroke="#1f8741" stroke-width="1.51"/><path d="M1226,780L1010,897L1232,893Z" fill="#107433" stroke="#107433" stroke-width="1.51"/><path d="M1023,703L1010,897L1226,780Z" fill="#19803d" stroke="#19803d" stroke-width="1.51"/><path d="M1165,189L1063,343L1207,258Z" fill="#57ab7d" stroke="#57ab7d" stroke-width="1.51"/><path d="M1062,15L1150,-25L1159,-159Z" fill="#86bd98" stroke="#86bd98" stroke-width="1.51"/><path d="M981,-194L1062,15L1159,-159Z" fill="#8ec3a0" stroke="#8ec3a0" stroke-width="1.51"/><path d="M989,125L1063,343L1165,189Z" fill="#63b388" stroke="#63b388" stroke-width="1.51"/><path d="M1062,15L989,125L1165,189Z" fill="#76ba91" stroke="#76ba91" stroke-width="1.51"/><path d="M1117,501L1065,650L1148,548Z" fill="#2e9655" stroke="#2e9655" stroke-width="1.51"/><path d="M981,-194L917,-138L1062,15Z" fill="#92c9a9" stroke="#92c9a9" stroke-width="1.51"/><path d="M1076,457L1065,650L1117,501Z" fill="#329b5c" stroke="#329b5c" stroke-width="1.51"/><path d="M917,-138L875,-33L1062,15Z" fill="#8fcaaa" stroke="#8fcaaa" stroke-width="1.51"/><path d="M989,125L808,267L1063,343Z" fill="#65ba91" stroke="#65ba91" stroke-width="1.51"/><path d="M883,456L820,616L1065,650Z" fill="#39a367" stroke="#39a367" stroke-width="1.51"/><path d="M883,456L1065,650L1076,457Z" fill="#38a366" stroke="#38a366" stroke-width="1.51"/><path d="M1063,343L883,456L1076,457Z" fill="#46aa75" stroke="#46aa75" stroke-width="1.51"/><path d="M861,735L1010,897L1023,703Z" fill="#248b4a" stroke="#248b4a" stroke-width="1.51"/><path d="M820,616L1023,703L1065,650Z" fill="#2e9655" stroke="#2e9655" stroke-width="1.51"/><path d="M808,267L883,456L1063,343Z" fill="#53b588" stroke="#53b588" stroke-width="1.51"/><path d="M875,-33L989,125L1062,15Z" fill="#86c6a2" stroke="#86c6a2" stroke-width="1.51"/><path d="M814,861L762,951L1010,897Z" fill="#25824c" stroke="#25824c" stroke-width="1.51"/><path d="M861,735L814,861L1010,897Z" fill="#248a4d" stroke="#248a4d" stroke-width="1.51"/><path d="M820,616L861,735L1023,703Z" fill="#309959" stroke="#309959" stroke-width="1.51"/><path d="M666,-214L917,-138L981,-194Z" fill="#9ed5b8" stroke="#9ed5b8" stroke-width="1.51"/><path d="M820,121L808,267L989,125Z" fill="#76c5a2" stroke="#76c5a2" stroke-width="1.51"/><path d="M875,-33L820,121L989,125Z" fill="#86caa8" stroke="#86caa8" stroke-width="1.51"/><path d="M410,-224L508,-200L666,-214Z" fill="#bae4d8" stroke="#bae4d8" stroke-width="1.51"/><path d="M808,267L704,390L883,456Z" fill="#59ba93" stroke="#59ba93" stroke-width="1.51"/><path d="M666,-214L875,-33L917,-138Z" fill="#9dd5bc" stroke="#9dd5bc" stroke-width="1.51"/><path d="M769,274L704,390L808,267Z" fill="#66c19e" stroke="#66c19e" stroke-width="1.51"/><path d="M713,117L820,121L875,-33Z" fill="#8dcfb3" stroke="#8dcfb3" stroke-width="1.51"/><path d="M658,-13L713,117L875,-33Z" fill="#96d4bb" stroke="#96d4bb" stroke-width="1.51"/><path d="M666,-214L658,-13L875,-33Z" fill="#a0d7c3" stroke="#a0d7c3" stroke-width="1.51"/><path d="M704,390L820,616L883,456Z" fill="#4bb381" stroke="#4bb381" stroke-width="1.51"/><path d="M704,390L723,636L820,616Z" fill="#49b07d" stroke="#49b07d" stroke-width="1.51"/><path d="M704,747L814,861L861,735Z" fill="#32945c" stroke="#32945c" stroke-width="1.51"/><path d="M820,616L723,636L861,735Z" fill="#3ba065" stroke="#3ba065" stroke-width="1.51"/><path d="M723,636L704,747L861,735Z" fill="#3b9d65" stroke="#3b9d65" stroke-width="1.51"/><path d="M571,858L381,918L762,951Z" fill="#418e66" stroke="#418e66" stroke-width="1.51"/><path d="M769,274L808,267L820,121Z" fill="#73c5a4" stroke="#73c5a4" stroke-width="1.51"/><path d="M713,117L769,274L820,121Z" fill="#7ecaad" stroke="#7ecaad" stroke-width="1.51"/><path d="M704,747L762,951L814,861Z" fill="#318d59" stroke="#318d59" stroke-width="1.51"/><path d="M704,390L540,472L723,636Z" fill="#55b98e" stroke="#55b98e" stroke-width="1.51"/><path d="M704,747L571,858L762,951Z" fill="#389161" stroke="#389161" stroke-width="1.51"/><path d="M507,262L704,390L769,274Z" fill="#6ec5a8" stroke="#6ec5a8" stroke-width="1.51"/><path d="M713,117L526,173L769,274Z" fill="#81cdb5" stroke="#81cdb5" stroke-width="1.51"/><path d="M526,173L507,262L769,274Z" fill="#7fcdb5" stroke="#7fcdb5" stroke-width="1.51"/><path d="M565,-13L658,-13L666,-214Z" fill="#a7dccd" stroke="#a7dccd" stroke-width="1.51"/><path d="M540,472L502,532L723,636Z" fill="#58b78c" stroke="#58b78c" stroke-width="1.51"/><path d="M505,696L704,747L723,636Z" fill="#46a471" stroke="#46a471" stroke-width="1.51"/><path d="M502,532L505,696L723,636Z" fill="#54af80" stroke="#54af80" stroke-width="1.51"/><path d="M658,-13L565,-13L713,117Z" fill="#9cd8c5" stroke="#9cd8c5" stroke-width="1.51"/><path d="M565,-13L526,173L713,117Z" fill="#98d7c4" stroke="#98d7c4" stroke-width="1.51"/><path d="M508,-200L565,-13L666,-214Z" fill="#b0e0d3" stroke="#b0e0d3" stroke-width="1.51"/><path d="M507,262L540,472L704,390Z" fill="#6bc4a6" stroke="#6bc4a6" stroke-width="1.51"/><path d="M505,696L571,858L704,747Z" fill="#479e6f" stroke="#479e6f" stroke-width="1.51"/><path d="M210,892L58,943L381,918Z" fill="#689c7c" stroke="#689c7c" stroke-width="1.51"/><path d="M502,532L408,640L505,696Z" fill="#60b488" stroke="#60b488" stroke-width="1.51"/><path d="M507,262L417,318L540,472Z" fill="#79cab1" stroke="#79cab1" stroke-width="1.51"/><path d="M391,94L526,173L565,-13Z" fill="#a5dccd" stroke="#a5dccd" stroke-width="1.51"/><path d="M435,-73L391,94L565,-13Z" fill="#b1e1d6" stroke="#b1e1d6" stroke-width="1.51"/><path d="M508,-200L435,-73L565,-13Z" fill="#b5e2d9" stroke="#b5e2d9" stroke-width="1.51"/><path d="M505,696L369,786L571,858Z" fill="#53a376" stroke="#53a376" stroke-width="1.51"/><path d="M369,786L381,918L571,858Z" fill="#539c73" stroke="#539c73" stroke-width="1.51"/><path d="M350,450L502,532L540,472Z" fill="#6dc39f" stroke="#6dc39f" stroke-width="1.51"/><path d="M417,318L350,450L540,472Z" fill="#78c8ac" stroke="#78c8ac" stroke-width="1.51"/><path d="M391,94L507,262L526,173Z" fill="#97d7c6" stroke="#97d7c6" stroke-width="1.51"/><path d="M113,-207L272,-172L410,-224Z" fill="#d5efeb" stroke="#d5efeb" stroke-width="1.51"/><path d="M408,640L369,786L505,696Z" fill="#5fad81" stroke="#5fad81" stroke-width="1.51"/><path d="M391,94L417,318L507,262Z" fill="#93d5c4" stroke="#93d5c4" stroke-width="1.51"/><path d="M410,-224L435,-73L508,-200Z" fill="#bfe6de" stroke="#bfe6de" stroke-width="1.51"/><path d="M350,450L408,640L502,532Z" fill="#6cc09a" stroke="#6cc09a" stroke-width="1.51"/><path d="M220,163L250,294L391,94Z" fill="#aadfd2" stroke="#aadfd2" stroke-width="1.51"/><path d="M350,450L260,646L408,640Z" fill="#73be98" stroke="#73be98" stroke-width="1.51"/><path d="M302,758L369,786L408,640Z" fill="#65ad83" stroke="#65ad83" stroke-width="1.51"/><path d="M391,94L250,294L417,318Z" fill="#9ad9c9" stroke="#9ad9c9" stroke-width="1.51"/><path d="M249,-62L391,94L435,-73Z" fill="#bde6de" stroke="#bde6de" stroke-width="1.51"/><path d="M410,-224L272,-172L435,-73Z" fill="#c6e9e3" stroke="#c6e9e3" stroke-width="1.51"/><path d="M272,-172L249,-62L435,-73Z" fill="#c9ebe6" stroke="#c9ebe6" stroke-width="1.51"/><path d="M260,646L302,758L408,640Z" fill="#6db489" stroke="#6db489" stroke-width="1.51"/><path d="M250,294L350,450L417,318Z" fill="#89d1bb" stroke="#89d1bb" stroke-width="1.51"/><path d="M192,469L260,646L350,450Z" fill="#80c8a6" stroke="#80c8a6" stroke-width="1.51"/><path d="M302,758L210,892L369,786Z" fill="#66a77f" stroke="#66a77f" stroke-width="1.51"/><path d="M369,786L210,892L381,918Z" fill="#609f7a" stroke="#609f7a" stroke-width="1.51"/><path d="M249,-62L220,163L391,94Z" fill="#bee6dd" stroke="#bee6dd" stroke-width="1.51"/><path d="M250,294L192,469L350,450Z" fill="#8cd0b9" stroke="#8cd0b9" stroke-width="1.51"/><path d="M138,377L192,469L250,294Z" fill="#97d5c0" stroke="#97d5c0" stroke-width="1.51"/><path d="M260,646L132,715L302,758Z" fill="#75b58c" stroke="#75b58c" stroke-width="1.51"/><path d="M132,715L210,892L302,758Z" fill="#71ae86" stroke="#71ae86" stroke-width="1.51"/><path d="M104,-89L110,183L220,163Z" fill="#c8eae3" stroke="#c8eae3" stroke-width="1.51"/><path d="M104,-89L220,163L249,-62Z" fill="#ceede8" stroke="#ceede8" stroke-width="1.51"/><path d="M192,469L103,529L260,646Z" fill="#87c9a7" stroke="#87c9a7" stroke-width="1.51"/><path d="M104,-89L249,-62L272,-172Z" fill="#d5efed" stroke="#d5efed" stroke-width="1.51"/><path d="M113,-207L104,-89L272,-172Z" fill="#dcf2f0" stroke="#dcf2f0" stroke-width="1.51"/><path d="M220,163L110,183L250,294Z" fill="#afe1d5" stroke="#afe1d5" stroke-width="1.51"/><path d="M103,529L132,715L260,646Z" fill="#82c09a" stroke="#82c09a" stroke-width="1.51"/><path d="M53,266L138,377L250,294Z" fill="#a4dbcb" stroke="#a4dbcb" stroke-width="1.51"/><path d="M110,183L53,266L250,294Z" fill="#aee0d4" stroke="#aee0d4" stroke-width="1.51"/><path d="M-164,-206L-7,-166L113,-207Z" fill="#e8f7f8" stroke="#e8f7f8" stroke-width="1.51"/><path d="M132,715L58,943L210,892Z" fill="#73a884" stroke="#73a884" stroke-width="1.51"/><path d="M104,-89L-62,142L110,183Z" fill="#ceede8" stroke="#ceede8" stroke-width="1.51"/><path d="M-16,759L58,943L132,715Z" fill="#7bb08b" stroke="#7bb08b" stroke-width="1.51"/><path d="M138,377L103,529L192,469Z" fill="#93d1b7" stroke="#93d1b7" stroke-width="1.51"/><path d="M-27,-82L-62,142L104,-89Z" fill="#daf1f0" stroke="#daf1f0" stroke-width="1.51"/><path d="M-7,-166L104,-89L113,-207Z" fill="#e1f4f4" stroke="#e1f4f4" stroke-width="1.51"/><path d="M103,529L-26,529L132,715Z" fill="#8ac7a4" stroke="#8ac7a4" stroke-width="1.51"/><path d="M-26,529L-16,759L132,715Z" fill="#87bf99" stroke="#87bf99" stroke-width="1.51"/><path d="M-56,452L103,529L138,377Z" fill="#98d3ba" stroke="#98d3ba" stroke-width="1.51"/><path d="M53,266L-56,452L138,377Z" fill="#a2d9c9" stroke="#a2d9c9" stroke-width="1.51"/><path d="M-56,452L-26,529L103,529Z" fill="#96d2b5" stroke="#96d2b5" stroke-width="1.51"/><path d="M-65,898L-200,952L58,943Z" fill="#79a086" stroke="#79a086" stroke-width="1.51"/><path d="M-16,759L-65,898L58,943Z" fill="#7aa989" stroke="#7aa989" stroke-width="1.51"/><path d="M-62,142L-10,230L110,183Z" fill="#bfe7e0" stroke="#bfe7e0" stroke-width="1.51"/><path d="M-10,230L53,266L110,183Z" fill="#b6e3da" stroke="#b6e3da" stroke-width="1.51"/><path d="M-7,-166L-27,-82L104,-89Z" fill="#e1f4f5" stroke="#e1f4f5" stroke-width="1.51"/><path d="M-10,230L-56,452L53,266Z" fill="#abded1" stroke="#abded1" stroke-width="1.51"/><path d="M-178,76L-62,142L-27,-82Z" fill="#daf1f0" stroke="#daf1f0" stroke-width="1.51"/><path d="M-202,-21L-178,76L-27,-82Z" fill="#e1f3f3" stroke="#e1f3f3" stroke-width="1.51"/><path d="M-26,529L-270,639L-16,759Z" fill="#8fc4a1" stroke="#8fc4a1" stroke-width="1.51"/><path d="M-270,639L-233,804L-16,759Z" fill="#8abb97" stroke="#8abb97" stroke-width="1.51"/><path d="M-252,278L-179,401L-10,230Z" fill="#b4e1d5" stroke="#b4e1d5" stroke-width="1.51"/><path d="M-179,401L-56,452L-10,230Z" fill="#a9dcce" stroke="#a9dcce" stroke-width="1.51"/><path d="M-164,-206L-27,-82L-7,-166Z" fill="#e8f6fa" stroke="#e8f6fa" stroke-width="1.51"/><path d="M-233,804L-65,898L-16,759Z" fill="#82b18f" stroke="#82b18f" stroke-width="1.51"/><path d="M-62,142L-252,278L-10,230Z" fill="#c0e7e0" stroke="#c0e7e0" stroke-width="1.51"/><path d="M-164,-206L-202,-21L-27,-82Z" fill="#e8f6fa" stroke="#e8f6fa" stroke-width="1.51"/><path d="M-56,452L-179,401L-26,529Z" fill="#9fd6bf" stroke="#9fd6bf" stroke-width="1.51"/><path d="M-179,401L-270,639L-26,529Z" fill="#9cd3b5" stroke="#9cd3b5" stroke-width="1.51"/><path d="M-178,76L-252,278L-62,142Z" fill="#caebe5" stroke="#caebe5" stroke-width="1.51"/><path d="M-233,804L-200,952L-65,898Z" fill="#7fa88a" stroke="#7fa88a" stroke-width="1.51"/><path d="M-252,278L-270,639L-179,401Z" fill="#a7d9c3" stroke="#a7d9c3" stroke-width="1.51"/><path d="M-202,-21L-252,278L-178,76Z" fill="#d5efeb" stroke="#d5efeb" stroke-width="1.51"/></svg>