<svg xmlns="http://www.w3.org/2000/svg" width="1280" height="720"><path d="M23,834L-125,837L492,870Z" fill="#cc7a54" stroke="#cc7a54" stroke-width="1.51"/><path d="M-114,-102L391,-121L522,-154Z" fill="#ffe0bc" stroke="#ffe0bc" stroke-width="1.51"/><path d="M561,860L492,870L704,858Z" fill="#c35631" stroke="#c35631" stroke-width="1.51"/><path d="M704,858L492,870L812,860Z" fill="#c14d2b" stroke="#c14d2b" stroke-width="1.51"/><path d="M522,-154L815,-126L897,-135Z" fill="#ffb898" stroke="#ffb898" stroke-width="1.51"/><path d="M522,-154L897,-135L1042,-136Z" fill="#ffb195" stroke="#ffb195" stroke-width="1.51"/><path d="M1019,817L926,834L1144,827Z" fill="#b82113" stroke="#b82113" stroke-width="1.51"/><path d="M1144,827L926,834L1201,843Z" fill="#b2180e" stroke="#b2180e" stroke-width="1.51"/><path d="M926,834L812,860L1201,843Z" fill="#b72918" stroke="#b72918" stroke-width="1.51"/><path d="M1241,-82L1351,-71L1394,-80Z" fill="#dc8566" stroke="#dc8566" stroke-width="1.51"/><path d="M1149,-126L1241,-82L1394,-80Z" fill="#e58a69" stroke="#e58a69" stroke-width="1.51"/><path d="M1335,663L1359,711L1404,598Z" fill="#b4160c" stroke="#b4160c" stroke-width="1.51"/><path d="M1326,382L1406,519L1427,370Z" fill="#c64729" stroke="#c64729" stroke-width="1.51"/><path d="M1396,70L1326,165L1430,204Z" fill="#ce7248" stroke="#ce7248" stroke-width="1.51"/><path d="M1427,276L1427,370L1430,204Z" fill="#c65e38" stroke="#c65e38" stroke-width="1.51"/><path d="M1404,598L1359,711L1431,765Z" fill="#ab0f08" stroke="#ab0f08" stroke-width="1.51"/><path d="M1427,370L1406,519L1431,765Z" fill="#b82d1b" stroke="#b82d1b" stroke-width="1.51"/><path d="M1406,519L1404,598L1431,765Z" fill="#b21a10" stroke="#b21a10" stroke-width="1.51"/><path d="M1309,799L1201,843L1437,822Z" fill="#9f0001" stroke="#9f0001" stroke-width="1.51"/><path d="M1427,370L1431,765L1437,822Z" fill="#ac160d" stroke="#ac160d" stroke-width="1.51"/><path d="M1338,9L1396,70L1454,-36Z" fill="#cf7d59" stroke="#cf7d59" stroke-width="1.51"/><path d="M1394,-80L1338,9L1454,-36Z" fill="#d18060" stroke="#d18060" stroke-width="1.51"/><path d="M1396,70L1430,204L1454,-36Z" fill="#ca774f" stroke="#ca774f" stroke-width="1.51"/><path d="M1427,370L1437,822L1454,-36Z" fill="#c14c2b" stroke="#c14c2b" stroke-width="1.51"/><path d="M1430,204L1427,370L1454,-36Z" fill="#c66c45" stroke="#c66c45" stroke-width="1.51"/><path d="M1351,-71L1338,9L1394,-80Z" fill="#d68362" stroke="#d68362" stroke-width="1.51"/><path d="M1427,276L1326,382L1427,370Z" fill="#c9542f" stroke="#c9542f" stroke-width="1.51"/><path d="M1326,165L1427,276L1430,204Z" fill="#cc6b42" stroke="#cc6b42" stroke-width="1.51"/><path d="M1431,765L1309,799L1437,822Z" fill="#9b0001" stroke="#9b0001" stroke-width="1.51"/><path d="M1282,297L1326,382L1427,276Z" fill="#d05b33" stroke="#d05b33" stroke-width="1.51"/><path d="M1326,165L1282,297L1427,276Z" fill="#d2693e" stroke="#d2693e" stroke-width="1.51"/><path d="M1359,711L1309,799L1431,765Z" fill="#a60001" stroke="#a60001" stroke-width="1.51"/><path d="M1311,72L1326,165L1396,70Z" fill="#d4784c" stroke="#d4784c" stroke-width="1.51"/><path d="M1293,548L1404,598L1406,519Z" fill="#bf2d1b" stroke="#bf2d1b" stroke-width="1.51"/><path d="M1326,382L1293,548L1406,519Z" fill="#c93e25" stroke="#c93e25" stroke-width="1.51"/><path d="M1293,548L1335,663L1404,598Z" fill="#bd2213" stroke="#bd2213" stroke-width="1.51"/><path d="M1338,9L1311,72L1396,70Z" fill="#d57c54" stroke="#d57c54" stroke-width="1.51"/><path d="M1259,398L1293,548L1326,382Z" fill="#d14628" stroke="#d14628" stroke-width="1.51"/><path d="M1229,224L1282,297L1326,165Z" fill="#db6e41" stroke="#db6e41" stroke-width="1.51"/><path d="M1335,663L1218,748L1359,711Z" fill="#b50d05" stroke="#b50d05" stroke-width="1.51"/><path d="M1218,748L1309,799L1359,711Z" fill="#b00000" stroke="#b00000" stroke-width="1.51"/><path d="M1241,-82L1338,9L1351,-71Z" fill="#dd8563" stroke="#dd8563" stroke-width="1.51"/><path d="M1311,72L1231,134L1326,165Z" fill="#db794b" stroke="#db794b" stroke-width="1.51"/><path d="M1293,548L1178,653L1335,663Z" fill="#c51e10" stroke="#c51e10" stroke-width="1.51"/><path d="M1190,-45L1311,72L1338,9Z" fill="#e0825a" stroke="#e0825a" stroke-width="1.51"/><path d="M1241,-82L1190,-45L1338,9Z" fill="#e48763" stroke="#e48763" stroke-width="1.51"/><path d="M1282,297L1259,398L1326,382Z" fill="#d6552d" stroke="#d6552d" stroke-width="1.51"/><path d="M1178,653L1218,748L1335,663Z" fill="#be1409" stroke="#be1409" stroke-width="1.51"/><path d="M1259,398L1185,520L1293,548Z" fill="#d34027" stroke="#d34027" stroke-width="1.51"/><path d="M1231,134L1229,224L1326,165Z" fill="#de7547" stroke="#de7547" stroke-width="1.51"/><path d="M1151,-4L1231,134L1311,72Z" fill="#e38155" stroke="#e38155" stroke-width="1.51"/><path d="M1190,-45L1151,-4L1311,72Z" fill="#e6865f" stroke="#e6865f" stroke-width="1.51"/><path d="M1218,748L1201,843L1309,799Z" fill="#ad0402" stroke="#ad0402" stroke-width="1.51"/><path d="M1185,307L1259,398L1282,297Z" fill="#dc5c33" stroke="#dc5c33" stroke-width="1.51"/><path d="M1185,520L1178,653L1293,548Z" fill="#ce301c" stroke="#ce301c" stroke-width="1.51"/><path d="M1229,224L1185,307L1282,297Z" fill="#de683c" stroke="#de683c" stroke-width="1.51"/><path d="M1115,421L1185,520L1259,398Z" fill="#db4c2e" stroke="#db4c2e" stroke-width="1.51"/><path d="M1185,307L1115,421L1259,398Z" fill="#df5932" stroke="#df5932" stroke-width="1.51"/><path d="M1095,130L1229,224L1231,134Z" fill="#e57b4d" stroke="#e57b4d" stroke-width="1.51"/><path d="M1151,-4L1095,130L1231,134Z" fill="#e88457" stroke="#e88457" stroke-width="1.51"/><path d="M1149,-126L1190,-45L1241,-82Z" fill="#ea8e6d" stroke="#ea8e6d" stroke-width="1.51"/><path d="M1114,547L1178,653L1185,520Z" fill="#d33420" stroke="#d33420" stroke-width="1.51"/><path d="M1144,827L1201,843L1218,748Z" fill="#af0d06" stroke="#af0d06" stroke-width="1.51"/><path d="M1101,243L1185,307L1229,224Z" fill="#e47043" stroke="#e47043" stroke-width="1.51"/><path d="M1095,130L1101,243L1229,224Z" fill="#e77a4d" stroke="#e77a4d" stroke-width="1.51"/><path d="M1111,313L1115,421L1185,307Z" fill="#e46138" stroke="#e46138" stroke-width="1.51"/><path d="M1178,653L1073,720L1218,748Z" fill="#c31b0e" stroke="#c31b0e" stroke-width="1.51"/><path d="M1073,720L1144,827L1218,748Z" fill="#bb1309" stroke="#bb1309" stroke-width="1.51"/><path d="M522,-154L695,-116L815,-126Z" fill="#ffbd9b" stroke="#ffbd9b" stroke-width="1.51"/><path d="M1114,547L1084,625L1178,653Z" fill="#d32e1d" stroke="#d32e1d" stroke-width="1.51"/><path d="M1101,243L1111,313L1185,307Z" fill="#e66d41" stroke="#e66d41" stroke-width="1.51"/><path d="M1115,421L1114,547L1185,520Z" fill="#dc462e" stroke="#dc462e" stroke-width="1.51"/><path d="M1149,-126L1151,-4L1190,-45Z" fill="#ec8e6c" stroke="#ec8e6c" stroke-width="1.51"/><path d="M1084,625L1073,720L1178,653Z" fill="#cc2617" stroke="#cc2617" stroke-width="1.51"/><path d="M1073,720L1019,817L1144,827Z" fill="#bc1b0e" stroke="#bc1b0e" stroke-width="1.51"/><path d="M1149,-126L1042,-136L1151,-4Z" fill="#f19373" stroke="#f19373" stroke-width="1.51"/><path d="M1042,-136L989,-1L1151,-4Z" fill="#f49572" stroke="#f49572" stroke-width="1.51"/><path d="M989,-1L1022,66L1151,-4Z" fill="#f39069" stroke="#f39069" stroke-width="1.51"/><path d="M1022,66L1095,130L1151,-4Z" fill="#ef8a5f" stroke="#ef8a5f" stroke-width="1.51"/><path d="M273,824L23,834L492,870Z" fill="#ca734a" stroke="#ca734a" stroke-width="1.51"/><path d="M1009,437L1114,547L1115,421Z" fill="#e34f33" stroke="#e34f33" stroke-width="1.51"/><path d="M-114,-102L28,-82L391,-121Z" fill="#ffe7c8" stroke="#ffe7c8" stroke-width="1.51"/><path d="M1095,130L1023,206L1101,243Z" fill="#ed7f52" stroke="#ed7f52" stroke-width="1.51"/><path d="M1101,243L1018,292L1111,313Z" fill="#eb7146" stroke="#eb7146" stroke-width="1.51"/><path d="M1018,292L1009,437L1111,313Z" fill="#ec673f" stroke="#ec673f" stroke-width="1.51"/><path d="M998,560L1084,625L1114,547Z" fill="#db3a26" stroke="#db3a26" stroke-width="1.51"/><path d="M1009,437L998,560L1114,547Z" fill="#e24b32" stroke="#e24b32" stroke-width="1.51"/><path d="M1111,313L1009,437L1115,421Z" fill="#e75d38" stroke="#e75d38" stroke-width="1.51"/><path d="M1023,206L1018,292L1101,243Z" fill="#ee7a4f" stroke="#ee7a4f" stroke-width="1.51"/><path d="M978,686L1073,720L1084,625Z" fill="#d02c1b" stroke="#d02c1b" stroke-width="1.51"/><path d="M1022,66L1023,206L1095,130Z" fill="#f0875a" stroke="#f0875a" stroke-width="1.51"/><path d="M998,560L965,580L1084,625Z" fill="#dd3f29" stroke="#dd3f29" stroke-width="1.51"/><path d="M965,580L978,686L1084,625Z" fill="#d93723" stroke="#d93723" stroke-width="1.51"/><path d="M978,686L1019,817L1073,720Z" fill="#c82615" stroke="#c82615" stroke-width="1.51"/><path d="M944,537L998,560L1009,437Z" fill="#e65238" stroke="#e65238" stroke-width="1.51"/><path d="M902,386L1009,437L1018,292Z" fill="#ef6a43" stroke="#ef6a43" stroke-width="1.51"/><path d="M918,290L902,386L1018,292Z" fill="#f1764c" stroke="#f1764c" stroke-width="1.51"/><path d="M1022,66L911,80L1023,206Z" fill="#f38f62" stroke="#f38f62" stroke-width="1.51"/><path d="M897,-135L989,-1L1042,-136Z" fill="#f99f80" stroke="#f99f80" stroke-width="1.51"/><path d="M909,236L918,290L1018,292Z" fill="#f28054" stroke="#f28054" stroke-width="1.51"/><path d="M978,686L926,834L1019,817Z" fill="#c52c19" stroke="#c52c19" stroke-width="1.51"/><path d="M989,-1L911,80L1022,66Z" fill="#f5966d" stroke="#f5966d" stroke-width="1.51"/><path d="M909,236L1018,292L1023,206Z" fill="#f18255" stroke="#f18255" stroke-width="1.51"/><path d="M911,80L909,236L1023,206Z" fill="#f48d61" stroke="#f48d61" stroke-width="1.51"/><path d="M897,-135L909,8L989,-1Z" fill="#f9a17e" stroke="#f9a17e" stroke-width="1.51"/><path d="M878,707L926,834L978,686Z" fill="#ce351f" stroke="#ce351f" stroke-width="1.51"/><path d="M909,8L911,80L989,-1Z" fill="#f79b73" stroke="#f79b73" stroke-width="1.51"/><path d="M902,386L944,537L1009,437Z" fill="#ec6040" stroke="#ec6040" stroke-width="1.51"/><path d="M965,580L893,637L978,686Z" fill="#dc3f29" stroke="#dc3f29" stroke-width="1.51"/><path d="M944,537L965,580L998,560Z" fill="#e34b32" stroke="#e34b32" stroke-width="1.51"/><path d="M893,637L878,707L978,686Z" fill="#d83e27" stroke="#d83e27" stroke-width="1.51"/><path d="M944,537L893,637L965,580Z" fill="#e24a31" stroke="#e24a31" stroke-width="1.51"/><path d="M897,-135L819,-49L909,8Z" fill="#fca787" stroke="#fca787" stroke-width="1.51"/><path d="M808,200L909,236L911,80Z" fill="#f79568" stroke="#f79568" stroke-width="1.51"/><path d="M878,707L825,753L926,834Z" fill="#ce3a23" stroke="#ce3a23" stroke-width="1.51"/><path d="M902,386L791,543L944,537Z" fill="#ee6345" stroke="#ee6345" stroke-width="1.51"/><path d="M791,543L893,637L944,537Z" fill="#e65339" stroke="#e65339" stroke-width="1.51"/><path d="M28,-82L195,-79L391,-121Z" fill="#ffe2bc" stroke="#ffe2bc" stroke-width="1.51"/><path d="M782,393L791,543L902,386Z" fill="#f3704c" stroke="#f3704c" stroke-width="1.51"/><path d="M828,67L808,200L911,80Z" fill="#f99d70" stroke="#f99d70" stroke-width="1.51"/><path d="M783,303L902,386L918,290Z" fill="#f67e54" stroke="#f67e54" stroke-width="1.51"/><path d="M825,753L812,860L926,834Z" fill="#c43b24" stroke="#c43b24" stroke-width="1.51"/><path d="M815,-126L819,-49L897,-135Z" fill="#fead8f" stroke="#fead8f" stroke-width="1.51"/><path d="M909,8L828,67L911,80Z" fill="#f99f76" stroke="#f99f76" stroke-width="1.51"/><path d="M909,236L783,303L918,290Z" fill="#f6875b" stroke="#f6875b" stroke-width="1.51"/><path d="M783,303L782,393L902,386Z" fill="#f77c51" stroke="#f77c51" stroke-width="1.51"/><path d="M808,200L783,303L909,236Z" fill="#f89063" stroke="#f89063" stroke-width="1.51"/><path d="M819,-49L828,67L909,8Z" fill="#fba57f" stroke="#fba57f" stroke-width="1.51"/><path d="M791,543L780,629L893,637Z" fill="#e65437" stroke="#e65437" stroke-width="1.51"/><path d="M780,629L878,707L893,637Z" fill="#de4930" stroke="#de4930" stroke-width="1.51"/><path d="M782,393L726,480L791,543Z" fill="#f3704c" stroke="#f3704c" stroke-width="1.51"/><path d="M780,629L825,753L878,707Z" fill="#da472d" stroke="#da472d" stroke-width="1.51"/><path d="M815,-126L695,-116L819,-49Z" fill="#ffb391" stroke="#ffb391" stroke-width="1.51"/><path d="M780,629L725,720L825,753Z" fill="#dc4c2e" stroke="#dc4c2e" stroke-width="1.51"/><path d="M704,858L812,860L825,753Z" fill="#c54327" stroke="#c54327" stroke-width="1.51"/><path d="M725,720L704,858L825,753Z" fill="#d04829" stroke="#d04829" stroke-width="1.51"/><path d="M819,-49L655,8L828,67Z" fill="#fdac83" stroke="#fdac83" stroke-width="1.51"/><path d="M655,8L692,116L828,67Z" fill="#fdac7d" stroke="#fdac7d" stroke-width="1.51"/><path d="M692,116L808,200L828,67Z" fill="#fba272" stroke="#fba272" stroke-width="1.51"/><path d="M695,-116L655,8L819,-49Z" fill="#ffb58e" stroke="#ffb58e" stroke-width="1.51"/><path d="M654,191L783,303L808,200Z" fill="#fa9a69" stroke="#fa9a69" stroke-width="1.51"/><path d="M692,116L654,191L808,200Z" fill="#fca371" stroke="#fca371" stroke-width="1.51"/><path d="M701,650L725,720L780,629Z" fill="#e15433" stroke="#e15433" stroke-width="1.51"/><path d="M664,315L782,393L783,303Z" fill="#fa8858" stroke="#fa8858" stroke-width="1.51"/><path d="M654,191L664,315L783,303Z" fill="#fb9865" stroke="#fb9865" stroke-width="1.51"/><path d="M701,650L780,629L791,543Z" fill="#e85939" stroke="#e85939" stroke-width="1.51"/><path d="M726,480L701,650L791,543Z" fill="#ed6442" stroke="#ed6442" stroke-width="1.51"/><path d="M654,440L726,480L782,393Z" fill="#f67a50" stroke="#f67a50" stroke-width="1.51"/><path d="M664,315L654,440L782,393Z" fill="#f98455" stroke="#f98455" stroke-width="1.51"/><path d="M654,191L618,268L664,315Z" fill="#fd9f69" stroke="#fd9f69" stroke-width="1.51"/><path d="M655,8L620,83L692,116Z" fill="#feb27f" stroke="#feb27f" stroke-width="1.51"/><path d="M625,-14L655,8L695,-116Z" fill="#ffba8f" stroke="#ffba8f" stroke-width="1.51"/><path d="M561,860L704,858L725,720Z" fill="#cb502b" stroke="#cb502b" stroke-width="1.51"/><path d="M556,693L561,860L725,720Z" fill="#d8582f" stroke="#d8582f" stroke-width="1.51"/><path d="M654,440L563,532L726,480Z" fill="#f67a50" stroke="#f67a50" stroke-width="1.51"/><path d="M581,619L701,650L726,480Z" fill="#ed6741" stroke="#ed6741" stroke-width="1.51"/><path d="M563,532L581,619L726,480Z" fill="#f2734a" stroke="#f2734a" stroke-width="1.51"/><path d="M701,650L556,693L725,720Z" fill="#e15a33" stroke="#e15a33" stroke-width="1.51"/><path d="M601,409L654,440L664,315Z" fill="#fb8957" stroke="#fb8957" stroke-width="1.51"/><path d="M522,-154L582,-86L695,-116Z" fill="#ffc49f" stroke="#ffc49f" stroke-width="1.51"/><path d="M582,-86L625,-14L695,-116Z" fill="#ffbd95" stroke="#ffbd95" stroke-width="1.51"/><path d="M581,619L556,693L701,650Z" fill="#e6633b" stroke="#e6633b" stroke-width="1.51"/><path d="M620,83L654,191L692,116Z" fill="#fead78" stroke="#fead78" stroke-width="1.51"/><path d="M601,409L563,532L654,440Z" fill="#f88256" stroke="#f88256" stroke-width="1.51"/><path d="M620,83L573,181L654,191Z" fill="#feaf78" stroke="#feaf78" stroke-width="1.51"/><path d="M618,268L601,409L664,315Z" fill="#fd945e" stroke="#fd945e" stroke-width="1.51"/><path d="M573,181L618,268L654,191Z" fill="#fda972" stroke="#fda972" stroke-width="1.51"/><path d="M625,-14L620,83L655,8Z" fill="#ffb887" stroke="#ffb887" stroke-width="1.51"/><path d="M556,693L485,715L561,860Z" fill="#da6337" stroke="#da6337" stroke-width="1.51"/><path d="M483,340L524,415L601,409Z" fill="#fb9561" stroke="#fb9561" stroke-width="1.51"/><path d="M524,415L563,532L601,409Z" fill="#f8885b" stroke="#f8885b" stroke-width="1.51"/><path d="M483,340L601,409L618,268Z" fill="#fd9964" stroke="#fd9964" stroke-width="1.51"/><path d="M520,27L620,83L625,-14Z" fill="#ffbc8a" stroke="#ffbc8a" stroke-width="1.51"/><path d="M582,-86L520,27L625,-14Z" fill="#ffc195" stroke="#ffc195" stroke-width="1.51"/><path d="M469,132L573,181L620,83Z" fill="#feb780" stroke="#feb780" stroke-width="1.51"/><path d="M520,27L469,132L620,83Z" fill="#febe88" stroke="#febe88" stroke-width="1.51"/><path d="M573,181L483,340L618,268Z" fill="#fda771" stroke="#fda771" stroke-width="1.51"/><path d="M454,177L483,340L573,181Z" fill="#fdb37c" stroke="#fdb37c" stroke-width="1.51"/><path d="M195,-79L265,-81L391,-121Z" fill="#ffddb7" stroke="#ffddb7" stroke-width="1.51"/><path d="M485,715L492,870L561,860Z" fill="#ce6139" stroke="#ce6139" stroke-width="1.51"/><path d="M450,555L509,648L563,532Z" fill="#f07a4f" stroke="#f07a4f" stroke-width="1.51"/><path d="M563,532L509,648L581,619Z" fill="#ee7248" stroke="#ee7248" stroke-width="1.51"/><path d="M509,648L556,693L581,619Z" fill="#e86b41" stroke="#e86b41" stroke-width="1.51"/><path d="M522,-154L520,27L582,-86Z" fill="#ffc89f" stroke="#ffc89f" stroke-width="1.51"/><path d="M391,-121L520,27L522,-154Z" fill="#ffcfa7" stroke="#ffcfa7" stroke-width="1.51"/><path d="M524,415L450,555L563,532Z" fill="#f6875b" stroke="#f6875b" stroke-width="1.51"/><path d="M469,132L454,177L573,181Z" fill="#fdba83" stroke="#fdba83" stroke-width="1.51"/><path d="M418,451L450,555L524,415Z" fill="#f89163" stroke="#f89163" stroke-width="1.51"/><path d="M391,-121L365,-38L520,27Z" fill="#ffd2a8" stroke="#ffd2a8" stroke-width="1.51"/><path d="M509,648L485,715L556,693Z" fill="#e46b41" stroke="#e46b41" stroke-width="1.51"/><path d="M454,177L404,192L483,340Z" fill="#fdb880" stroke="#fdb880" stroke-width="1.51"/><path d="M358,806L273,824L492,870Z" fill="#cb6d43" stroke="#cb6d43" stroke-width="1.51"/><path d="M485,715L358,806L492,870Z" fill="#d26a3f" stroke="#d26a3f" stroke-width="1.51"/><path d="M483,340L418,451L524,415Z" fill="#fb9967" stroke="#fb9967" stroke-width="1.51"/><path d="M347,82L469,132L520,27Z" fill="#fdc892" stroke="#fdc892" stroke-width="1.51"/><path d="M365,-38L347,82L520,27Z" fill="#fece9e" stroke="#fece9e" stroke-width="1.51"/><path d="M418,451L397,502L450,555Z" fill="#f79064" stroke="#f79064" stroke-width="1.51"/><path d="M358,623L485,715L509,648Z" fill="#e8764a" stroke="#e8764a" stroke-width="1.51"/><path d="M450,555L358,623L509,648Z" fill="#ef7e51" stroke="#ef7e51" stroke-width="1.51"/><path d="M187,806L23,834L273,824Z" fill="#d17a52" stroke="#d17a52" stroke-width="1.51"/><path d="M404,192L335,321L483,340Z" fill="#fdb37c" stroke="#fdb37c" stroke-width="1.51"/><path d="M346,733L358,806L485,715Z" fill="#dd7143" stroke="#dd7143" stroke-width="1.51"/><path d="M335,321L418,451L483,340Z" fill="#fda46f" stroke="#fda46f" stroke-width="1.51"/><path d="M358,623L346,733L485,715Z" fill="#e5774a" stroke="#e5774a" stroke-width="1.51"/><path d="M404,192L454,177L469,132Z" fill="#fdc088" stroke="#fdc088" stroke-width="1.51"/><path d="M347,82L404,192L469,132Z" fill="#fdc68e" stroke="#fdc68e" stroke-width="1.51"/><path d="M314,272L335,321L404,192Z" fill="#fdba83" stroke="#fdba83" stroke-width="1.51"/><path d="M397,502L358,623L450,555Z" fill="#f3885c" stroke="#f3885c" stroke-width="1.51"/><path d="M245,401L397,502L418,451Z" fill="#fa9c6c" stroke="#fa9c6c" stroke-width="1.51"/><path d="M335,321L245,401L418,451Z" fill="#fda672" stroke="#fda672" stroke-width="1.51"/><path d="M-114,-102L-47,-86L28,-82Z" fill="#ffedd4" stroke="#ffedd4" stroke-width="1.51"/><path d="M229,555L358,623L397,502Z" fill="#f48d60" stroke="#f48d60" stroke-width="1.51"/><path d="M347,82L251,208L404,192Z" fill="#fdc790" stroke="#fdc790" stroke-width="1.51"/><path d="M251,208L314,272L404,192Z" fill="#fdc28b" stroke="#fdc28b" stroke-width="1.51"/><path d="M292,60L347,82L365,-38Z" fill="#fed2a1" stroke="#fed2a1" stroke-width="1.51"/><path d="M245,401L229,555L397,502Z" fill="#f99b6e" stroke="#f99b6e" stroke-width="1.51"/><path d="M265,-81L365,-38L391,-121Z" fill="#ffd9b2" stroke="#ffd9b2" stroke-width="1.51"/><path d="M292,60L251,208L347,82Z" fill="#fdce97" stroke="#fdce97" stroke-width="1.51"/><path d="M346,733L273,824L358,806Z" fill="#d67347" stroke="#d67347" stroke-width="1.51"/><path d="M280,714L346,733L358,623Z" fill="#e57c4e" stroke="#e57c4e" stroke-width="1.51"/><path d="M229,555L237,611L358,623Z" fill="#f18b5d" stroke="#f18b5d" stroke-width="1.51"/><path d="M261,6L292,60L365,-38Z" fill="#fed5a6" stroke="#fed5a6" stroke-width="1.51"/><path d="M265,-81L261,6L365,-38Z" fill="#fed9ae" stroke="#fed9ae" stroke-width="1.51"/><path d="M280,714L273,824L346,733Z" fill="#dd7749" stroke="#dd7749" stroke-width="1.51"/><path d="M237,611L280,714L358,623Z" fill="#ec8255" stroke="#ec8255" stroke-width="1.51"/><path d="M197,433L229,555L245,401Z" fill="#fba374" stroke="#fba374" stroke-width="1.51"/><path d="M314,272L198,321L335,321Z" fill="#feb780" stroke="#feb780" stroke-width="1.51"/><path d="M198,321L245,401L335,321Z" fill="#feb07b" stroke="#feb07b" stroke-width="1.51"/><path d="M197,433L177,499L229,555Z" fill="#f99f73" stroke="#f99f73" stroke-width="1.51"/><path d="M189,199L251,208L292,60Z" fill="#fdcd96" stroke="#fdcd96" stroke-width="1.51"/><path d="M166,60L189,199L292,60Z" fill="#fdd39d" stroke="#fdd39d" stroke-width="1.51"/><path d="M251,208L198,321L314,272Z" fill="#fdbf88" stroke="#fdbf88" stroke-width="1.51"/><path d="M237,611L175,709L280,714Z" fill="#e98355" stroke="#e98355" stroke-width="1.51"/><path d="M187,806L273,824L280,714Z" fill="#d8794c" stroke="#d8794c" stroke-width="1.51"/><path d="M261,6L166,60L292,60Z" fill="#fed7a6" stroke="#fed7a6" stroke-width="1.51"/><path d="M195,-79L261,6L265,-81Z" fill="#fedeb4" stroke="#fedeb4" stroke-width="1.51"/><path d="M175,709L187,806L280,714Z" fill="#e07e4f" stroke="#e07e4f" stroke-width="1.51"/><path d="M189,199L198,321L251,208Z" fill="#fdc68f" stroke="#fdc68f" stroke-width="1.51"/><path d="M195,-79L146,6L261,6Z" fill="#fedeb3" stroke="#fedeb3" stroke-width="1.51"/><path d="M146,6L166,60L261,6Z" fill="#fedbac" stroke="#fedbac" stroke-width="1.51"/><path d="M146,597L175,709L237,611Z" fill="#ee895d" stroke="#ee895d" stroke-width="1.51"/><path d="M198,321L197,433L245,401Z" fill="#feae7a" stroke="#feae7a" stroke-width="1.51"/><path d="M229,555L146,597L237,611Z" fill="#f39063" stroke="#f39063" stroke-width="1.51"/><path d="M177,499L146,597L229,555Z" fill="#f6976c" stroke="#f6976c" stroke-width="1.51"/><path d="M175,709L99,767L187,806Z" fill="#de7e53" stroke="#de7e53" stroke-width="1.51"/><path d="M99,767L23,834L187,806Z" fill="#d67e57" stroke="#d67e57" stroke-width="1.51"/><path d="M20,210L40,312L189,199Z" fill="#fecc9c" stroke="#fecc9c" stroke-width="1.51"/><path d="M166,60L72,106L189,199Z" fill="#fed5a3" stroke="#fed5a3" stroke-width="1.51"/><path d="M96,381L177,499L197,433Z" fill="#fda97c" stroke="#fda97c" stroke-width="1.51"/><path d="M189,199L40,312L198,321Z" fill="#ffc390" stroke="#ffc390" stroke-width="1.51"/><path d="M40,312L96,381L198,321Z" fill="#ffba89" stroke="#ffba89" stroke-width="1.51"/><path d="M96,381L197,433L198,321Z" fill="#ffb17f" stroke="#ffb17f" stroke-width="1.51"/><path d="M28,-82L146,6L195,-79Z" fill="#fee3bf" stroke="#fee3bf" stroke-width="1.51"/><path d="M72,106L20,210L189,199Z" fill="#fed3a3" stroke="#fed3a3" stroke-width="1.51"/><path d="M60,517L146,597L177,499Z" fill="#f89c72" stroke="#f89c72" stroke-width="1.51"/><path d="M96,381L60,517L177,499Z" fill="#fca77e" stroke="#fca77e" stroke-width="1.51"/><path d="M146,597L19,663L175,709Z" fill="#ee8b62" stroke="#ee8b62" stroke-width="1.51"/><path d="M19,663L99,767L175,709Z" fill="#e6865d" stroke="#e6865d" stroke-width="1.51"/><path d="M146,6L79,32L166,60Z" fill="#feddb1" stroke="#feddb1" stroke-width="1.51"/><path d="M79,32L72,106L166,60Z" fill="#fedcae" stroke="#fedcae" stroke-width="1.51"/><path d="M60,517L19,663L146,597Z" fill="#f5956f" stroke="#f5956f" stroke-width="1.51"/><path d="M28,-82L79,32L146,6Z" fill="#fee3bd" stroke="#fee3bd" stroke-width="1.51"/><path d="M-47,398L-46,486L60,517Z" fill="#fead8a" stroke="#fead8a" stroke-width="1.51"/><path d="M-47,398L60,517L96,381Z" fill="#feb088" stroke="#feb088" stroke-width="1.51"/><path d="M-11,804L23,834L99,767Z" fill="#d7815e" stroke="#d7815e" stroke-width="1.51"/><path d="M19,663L-11,804L99,767Z" fill="#e38660" stroke="#e38660" stroke-width="1.51"/><path d="M-51,741L-11,804L19,663Z" fill="#e58965" stroke="#e58965" stroke-width="1.51"/><path d="M40,312L-47,398L96,381Z" fill="#ffba8e" stroke="#ffba8e" stroke-width="1.51"/><path d="M-46,649L19,663L60,517Z" fill="#f49572" stroke="#f49572" stroke-width="1.51"/><path d="M-32,33L72,106L79,32Z" fill="#fedfb6" stroke="#fedfb6" stroke-width="1.51"/><path d="M28,-82L-32,33L79,32Z" fill="#fee5c2" stroke="#fee5c2" stroke-width="1.51"/><path d="M-46,486L-46,649L60,517Z" fill="#f89f7e" stroke="#f89f7e" stroke-width="1.51"/><path d="M-69,120L20,210L72,106Z" fill="#fed9ae" stroke="#fed9ae" stroke-width="1.51"/><path d="M-32,33L-69,120L72,106Z" fill="#fedfb6" stroke="#fedfb6" stroke-width="1.51"/><path d="M-79,214L-80,307L20,210Z" fill="#ffd1a8" stroke="#ffd1a8" stroke-width="1.51"/><path d="M-47,-86L-32,33L28,-82Z" fill="#fee9cc" stroke="#fee9cc" stroke-width="1.51"/><path d="M20,210L-80,307L40,312Z" fill="#ffca9f" stroke="#ffca9f" stroke-width="1.51"/><path d="M-80,307L-47,398L40,312Z" fill="#ffc097" stroke="#ffc097" stroke-width="1.51"/><path d="M-46,486L-108,520L-46,649Z" fill="#faa182" stroke="#faa182" stroke-width="1.51"/><path d="M-46,649L-51,741L19,663Z" fill="#ec8f6c" stroke="#ec8f6c" stroke-width="1.51"/><path d="M-69,120L-79,214L20,210Z" fill="#ffd8af" stroke="#ffd8af" stroke-width="1.51"/><path d="M-11,804L-125,837L23,834Z" fill="#d38263" stroke="#d38263" stroke-width="1.51"/><path d="M-47,-86L-135,-20L-32,33Z" fill="#ffeacd" stroke="#ffeacd" stroke-width="1.51"/><path d="M-51,741L-125,837L-11,804Z" fill="#db8566" stroke="#db8566" stroke-width="1.51"/><path d="M-47,398L-166,438L-46,486Z" fill="#ffb391" stroke="#ffb391" stroke-width="1.51"/><path d="M-152,657L-51,741L-46,649Z" fill="#ee9171" stroke="#ee9171" stroke-width="1.51"/><path d="M-108,520L-152,657L-46,649Z" fill="#f79a7b" stroke="#f79a7b" stroke-width="1.51"/><path d="M-180,79L-69,120L-32,33Z" fill="#ffe3bf" stroke="#ffe3bf" stroke-width="1.51"/><path d="M-135,-20L-180,79L-32,33Z" fill="#ffe7c8" stroke="#ffe7c8" stroke-width="1.51"/><path d="M-108,223L-80,307L-79,214Z" fill="#ffd1ab" stroke="#ffd1ab" stroke-width="1.51"/><path d="M-152,657L-171,696L-51,741Z" fill="#ec9072" stroke="#ec9072" stroke-width="1.51"/><path d="M-80,307L-144,330L-47,398Z" fill="#ffc19a" stroke="#ffc19a" stroke-width="1.51"/><path d="M-114,-102L-135,-20L-47,-86Z" fill="#ffeed6" stroke="#ffeed6" stroke-width="1.51"/><path d="M-166,438L-108,520L-46,486Z" fill="#feae90" stroke="#feae90" stroke-width="1.51"/><path d="M-144,330L-166,438L-47,398Z" fill="#ffbc98" stroke="#ffbc98" stroke-width="1.51"/><path d="M-108,223L-79,214L-69,120Z" fill="#ffd9b2" stroke="#ffd9b2" stroke-width="1.51"/><path d="M-171,696L-125,837L-51,741Z" fill="#e48a6b" stroke="#e48a6b" stroke-width="1.51"/><path d="M-180,79L-108,223L-69,120Z" fill="#ffdeb9" stroke="#ffdeb9" stroke-width="1.51"/><path d="M-108,223L-144,330L-80,307Z" fill="#ffcca6" stroke="#ffcca6" stroke-width="1.51"/><path d="M-180,79L-135,-20L-114,-102Z" fill="#ffecd2" stroke="#ffecd2" stroke-width="1.51"/><path d="M-180,79L-144,330L-108,223Z" fill="#ffd8b5" stroke="#ffd8b5" stroke-width="1.51"/><path d="M-166,438L-152,657L-108,520Z" fill="#fca68a" stroke="#fca68a" stroke-width="1.51"/><path d="M-166,438L-171,696L-152,657Z" fill="#f89d82" stroke="#f89d82" stroke-width="1.51"/><path d="M-180,79L-166,438L-144,330Z" fill="#ffceab" stroke="#ffceab" stroke-width="1.51"/><path d="M-180,79L-171,696L-166,438Z" fill="#ffbb9b" stroke="#ffbb9b" stroke-width="1.51"/></svg>