<svg xmlns="http://www.w3.org/2000/svg" width="1280" height="720"><path d="M-70,-167L106,-173L863,-204Z" fill="#ffdf8f" stroke="#ffdf8f" stroke-width="1.51"/><path d="M422,-164L685,-172L863,-204Z" fill="#ffc17a" stroke="#ffc17a" stroke-width="1.51"/><path d="M242,-169L422,-164L863,-204Z" fill="#ffce80" stroke="#ffce80" stroke-width="1.51"/><path d="M106,-173L242,-169L863,-204Z" fill="#ffd685" stroke="#ffd685" stroke-width="1.51"/><path d="M744,911L413,921L1284,920Z" fill="#c6362b" stroke="#c6362b" stroke-width="1.51"/><path d="M868,903L744,911L1284,920Z" fill="#c12126" stroke="#c12126" stroke-width="1.51"/><path d="M1037,870L868,903L1284,920Z" fill="#bf1223" stroke="#bf1223" stroke-width="1.51"/><path d="M1161,-209L1292,-179L1424,-212Z" fill="#e9936d" stroke="#e9936d" stroke-width="1.51"/><path d="M1292,-179L1324,10L1424,-212Z" fill="#e18c64" stroke="#e18c64" stroke-width="1.51"/><path d="M1356,731L1284,920L1435,738Z" fill="#b80126" stroke="#b80126" stroke-width="1.51"/><path d="M1438,264L1329,407L1474,464Z" fill="#cf4f31" stroke="#cf4f31" stroke-width="1.51"/><path d="M1438,264L1474,464L1476,149Z" fill="#ca5b35" stroke="#ca5b35" stroke-width="1.51"/><path d="M1324,10L1476,149L1495,22Z" fill="#d17c4c" stroke="#d17c4c" stroke-width="1.51"/><path d="M1424,-212L1324,10L1495,22Z" fill="#d6845b" stroke="#d6845b" stroke-width="1.51"/><path d="M1474,464L1479,590L1495,22Z" fill="#c55132" stroke="#c55132" stroke-width="1.51"/><path d="M1476,149L1474,464L1495,22Z" fill="#c76539" stroke="#c76539" stroke-width="1.51"/><path d="M1435,738L1284,920L1504,915Z" fill="#a60026" stroke="#a60026" stroke-width="1.51"/><path d="M1479,590L1435,738L1504,915Z" fill="#af0525" stroke="#af0525" stroke-width="1.51"/><path d="M1495,22L1479,590L1504,915Z" fill="#c32c2a" stroke="#c32c2a" stroke-width="1.51"/><path d="M1356,731L1435,738L1479,590Z" fill="#bd0a23" stroke="#bd0a23" stroke-width="1.51"/><path d="M1329,407L1292,633L1474,464Z" fill="#d53129" stroke="#d53129" stroke-width="1.51"/><path d="M1324,171L1438,264L1476,149Z" fill="#d16a3b" stroke="#d16a3b" stroke-width="1.51"/><path d="M1324,10L1324,171L1476,149Z" fill="#d97745" stroke="#d97745" stroke-width="1.51"/><path d="M1292,633L1356,731L1479,590Z" fill="#c81122" stroke="#c81122" stroke-width="1.51"/><path d="M1474,464L1292,633L1479,590Z" fill="#c92527" stroke="#c92527" stroke-width="1.51"/><path d="M1141,869L1037,870L1284,920Z" fill="#bb0923" stroke="#bb0923" stroke-width="1.51"/><path d="M1274,251L1329,407L1438,264Z" fill="#da5d34" stroke="#da5d34" stroke-width="1.51"/><path d="M1324,171L1274,251L1438,264Z" fill="#db6937" stroke="#db6937" stroke-width="1.51"/><path d="M1292,-179L1202,-37L1324,10Z" fill="#e88b5c" stroke="#e88b5c" stroke-width="1.51"/><path d="M1324,10L1158,131L1324,171Z" fill="#e67d45" stroke="#e67d45" stroke-width="1.51"/><path d="M1181,609L1292,633L1329,407Z" fill="#dd2b25" stroke="#dd2b25" stroke-width="1.51"/><path d="M1149,442L1181,609L1329,407Z" fill="#e43b27" stroke="#e43b27" stroke-width="1.51"/><path d="M1292,633L1203,765L1356,731Z" fill="#cc0c23" stroke="#cc0c23" stroke-width="1.51"/><path d="M1203,765L1284,920L1356,731Z" fill="#c00226" stroke="#c00226" stroke-width="1.51"/><path d="M1202,-37L1158,131L1324,10Z" fill="#eb864d" stroke="#eb864d" stroke-width="1.51"/><path d="M1274,251L1150,325L1329,407Z" fill="#e45e31" stroke="#e45e31" stroke-width="1.51"/><path d="M1150,325L1149,442L1329,407Z" fill="#e7542d" stroke="#e7542d" stroke-width="1.51"/><path d="M1158,131L1274,251L1324,171Z" fill="#e6733a" stroke="#e6733a" stroke-width="1.51"/><path d="M1203,765L1141,869L1284,920Z" fill="#bd0624" stroke="#bd0624" stroke-width="1.51"/><path d="M1161,-209L1202,-37L1292,-179Z" fill="#ef9264" stroke="#ef9264" stroke-width="1.51"/><path d="M1181,609L1203,765L1292,633Z" fill="#d61320" stroke="#d61320" stroke-width="1.51"/><path d="M1158,131L1150,325L1274,251Z" fill="#ea6d34" stroke="#ea6d34" stroke-width="1.51"/><path d="M976,15L1006,120L1158,131Z" fill="#f88944" stroke="#f88944" stroke-width="1.51"/><path d="M1001,275L1150,325L1158,131Z" fill="#f27031" stroke="#f27031" stroke-width="1.51"/><path d="M863,-204L1041,-142L1161,-209Z" fill="#ff9e6b" stroke="#ff9e6b" stroke-width="1.51"/><path d="M1149,442L1046,466L1181,609Z" fill="#ed3824" stroke="#ed3824" stroke-width="1.51"/><path d="M976,15L1158,131L1202,-37Z" fill="#f58b4a" stroke="#f58b4a" stroke-width="1.51"/><path d="M1161,-209L1041,-142L1202,-37Z" fill="#f69561" stroke="#f69561" stroke-width="1.51"/><path d="M1181,609L1013,759L1203,765Z" fill="#d9141f" stroke="#d9141f" stroke-width="1.51"/><path d="M1013,759L1141,869L1203,765Z" fill="#cf0d22" stroke="#cf0d22" stroke-width="1.51"/><path d="M1041,-142L976,15L1202,-37Z" fill="#fa9357" stroke="#fa9357" stroke-width="1.51"/><path d="M1006,120L1001,275L1158,131Z" fill="#f67c38" stroke="#f67c38" stroke-width="1.51"/><path d="M1046,466L973,629L1181,609Z" fill="#ec3120" stroke="#ec3120" stroke-width="1.51"/><path d="M973,629L1013,759L1181,609Z" fill="#e51f1d" stroke="#e51f1d" stroke-width="1.51"/><path d="M1013,759L1037,870L1141,869Z" fill="#cd1423" stroke="#cd1423" stroke-width="1.51"/><path d="M1046,466L1149,442L1150,325Z" fill="#ef5329" stroke="#ef5329" stroke-width="1.51"/><path d="M1001,275L1046,466L1150,325Z" fill="#f3622c" stroke="#f3622c" stroke-width="1.51"/><path d="M825,-45L976,15L1041,-142Z" fill="#ff9c5c" stroke="#ff9c5c" stroke-width="1.51"/><path d="M863,-204L825,-45L1041,-142Z" fill="#ffa467" stroke="#ffa467" stroke-width="1.51"/><path d="M849,543L973,629L1046,466Z" fill="#f44125" stroke="#f44125" stroke-width="1.51"/><path d="M847,451L849,543L1046,466Z" fill="#fa502a" stroke="#fa502a" stroke-width="1.51"/><path d="M1001,275L847,451L1046,466Z" fill="#f7612d" stroke="#f7612d" stroke-width="1.51"/><path d="M870,242L1001,275L1006,120Z" fill="#fa7e37" stroke="#fa7e37" stroke-width="1.51"/><path d="M1013,759L868,903L1037,870Z" fill="#cf2225" stroke="#cf2225" stroke-width="1.51"/><path d="M870,242L847,451L1001,275Z" fill="#fb7233" stroke="#fb7233" stroke-width="1.51"/><path d="M843,169L870,242L1006,120Z" fill="#fd873d" stroke="#fd873d" stroke-width="1.51"/><path d="M973,629L820,736L1013,759Z" fill="#e52e23" stroke="#e52e23" stroke-width="1.51"/><path d="M820,736L868,903L1013,759Z" fill="#dc2d27" stroke="#dc2d27" stroke-width="1.51"/><path d="M976,15L843,169L1006,120Z" fill="#fd8f46" stroke="#fd8f46" stroke-width="1.51"/><path d="M825,-45L843,169L976,15Z" fill="#ff9a50" stroke="#ff9a50" stroke-width="1.51"/><path d="M849,543L820,736L973,629Z" fill="#f13a23" stroke="#f13a23" stroke-width="1.51"/><path d="M-5,852L-173,851L255,910Z" fill="#d7845a" stroke="#d7845a" stroke-width="1.51"/><path d="M422,-164L535,-141L685,-172Z" fill="#ffc97b" stroke="#ffc97b" stroke-width="1.51"/><path d="M685,-172L733,-43L825,-45Z" fill="#ffb268" stroke="#ffb268" stroke-width="1.51"/><path d="M733,-43L733,174L825,-45Z" fill="#ffa858" stroke="#ffa858" stroke-width="1.51"/><path d="M825,-45L733,174L843,169Z" fill="#ff9c4c" stroke="#ff9c4c" stroke-width="1.51"/><path d="M704,263L687,410L847,451Z" fill="#fd7d36" stroke="#fd7d36" stroke-width="1.51"/><path d="M761,592L820,736L849,543Z" fill="#f34926" stroke="#f34926" stroke-width="1.51"/><path d="M685,-172L825,-45L863,-204Z" fill="#ffaf6e" stroke="#ffaf6e" stroke-width="1.51"/><path d="M820,736L744,911L868,903Z" fill="#d43a2b" stroke="#d43a2b" stroke-width="1.51"/><path d="M843,169L733,174L870,242Z" fill="#ff8d3e" stroke="#ff8d3e" stroke-width="1.51"/><path d="M733,174L704,263L870,242Z" fill="#fe8f3d" stroke="#fe8f3d" stroke-width="1.51"/><path d="M704,263L847,451L870,242Z" fill="#fe7e37" stroke="#fe7e37" stroke-width="1.51"/><path d="M531,866L413,921L744,911Z" fill="#cb5934" stroke="#cb5934" stroke-width="1.51"/><path d="M761,592L710,710L820,736Z" fill="#ee4a28" stroke="#ee4a28" stroke-width="1.51"/><path d="M687,410L761,592L847,451Z" fill="#fd642f" stroke="#fd642f" stroke-width="1.51"/><path d="M847,451L761,592L849,543Z" fill="#fb532a" stroke="#fb532a" stroke-width="1.51"/><path d="M710,710L744,911L820,736Z" fill="#e0462c" stroke="#e0462c" stroke-width="1.51"/><path d="M733,-43L581,-42L733,174Z" fill="#ffb15b" stroke="#ffb15b" stroke-width="1.51"/><path d="M581,-42L541,171L733,174Z" fill="#ffb054" stroke="#ffb054" stroke-width="1.51"/><path d="M710,710L531,866L744,911Z" fill="#d95330" stroke="#d95330" stroke-width="1.51"/><path d="M687,410L547,463L761,592Z" fill="#fd7133" stroke="#fd7133" stroke-width="1.51"/><path d="M547,463L559,618L761,592Z" fill="#f96d30" stroke="#f96d30" stroke-width="1.51"/><path d="M559,618L710,710L761,592Z" fill="#f25c2b" stroke="#f25c2b" stroke-width="1.51"/><path d="M685,-172L581,-42L733,-43Z" fill="#ffbb6c" stroke="#ffbb6c" stroke-width="1.51"/><path d="M518,737L531,866L710,710Z" fill="#e35e31" stroke="#e35e31" stroke-width="1.51"/><path d="M541,171L704,263L733,174Z" fill="#fe9e44" stroke="#fe9e44" stroke-width="1.51"/><path d="M520,332L687,410L704,263Z" fill="#fd913d" stroke="#fd913d" stroke-width="1.51"/><path d="M559,618L518,737L710,710Z" fill="#ee622d" stroke="#ee622d" stroke-width="1.51"/><path d="M541,171L520,332L704,263Z" fill="#fe9f43" stroke="#fe9f43" stroke-width="1.51"/><path d="M535,-141L581,-42L685,-172Z" fill="#ffc373" stroke="#ffc373" stroke-width="1.51"/><path d="M520,332L547,463L687,410Z" fill="#fd8a3b" stroke="#fd8a3b" stroke-width="1.51"/><path d="M417,282L520,332L541,171Z" fill="#fea646" stroke="#fea646" stroke-width="1.51"/><path d="M389,-23L374,151L541,171Z" fill="#ffbf5b" stroke="#ffbf5b" stroke-width="1.51"/><path d="M520,332L443,396L547,463Z" fill="#fe923e" stroke="#fe923e" stroke-width="1.51"/><path d="M547,463L373,563L559,618Z" fill="#fc7935" stroke="#fc7935" stroke-width="1.51"/><path d="M389,-23L541,171L581,-42Z" fill="#ffc062" stroke="#ffc062" stroke-width="1.51"/><path d="M535,-141L389,-23L581,-42Z" fill="#ffc770" stroke="#ffc770" stroke-width="1.51"/><path d="M441,717L518,737L559,618Z" fill="#ee6a31" stroke="#ee6a31" stroke-width="1.51"/><path d="M373,563L441,717L559,618Z" fill="#f57432" stroke="#f57432" stroke-width="1.51"/><path d="M518,737L441,717L531,866Z" fill="#e46734" stroke="#e46734" stroke-width="1.51"/><path d="M422,-164L389,-23L535,-141Z" fill="#ffce78" stroke="#ffce78" stroke-width="1.51"/><path d="M443,396L373,563L547,463Z" fill="#ff893b" stroke="#ff893b" stroke-width="1.51"/><path d="M441,717L413,921L531,866Z" fill="#da6737" stroke="#da6737" stroke-width="1.51"/><path d="M374,151L417,282L541,171Z" fill="#feb14c" stroke="#feb14c" stroke-width="1.51"/><path d="M417,282L443,396L520,332Z" fill="#fe9f43" stroke="#fe9f43" stroke-width="1.51"/><path d="M305,107L374,151L389,-23Z" fill="#fec864" stroke="#fec864" stroke-width="1.51"/><path d="M295,722L255,910L413,921Z" fill="#d87241" stroke="#d87241" stroke-width="1.51"/><path d="M295,722L413,921L441,717Z" fill="#e3713a" stroke="#e3713a" stroke-width="1.51"/><path d="M373,563L295,722L441,717Z" fill="#f37937" stroke="#f37937" stroke-width="1.51"/><path d="M417,282L276,399L443,396Z" fill="#fea347" stroke="#fea347" stroke-width="1.51"/><path d="M276,399L373,563L443,396Z" fill="#ff9443" stroke="#ff9443" stroke-width="1.51"/><path d="M107,854L-5,852L255,910Z" fill="#d58052" stroke="#d58052" stroke-width="1.51"/><path d="M276,399L309,567L373,563Z" fill="#ff8e43" stroke="#ff8e43" stroke-width="1.51"/><path d="M309,567L295,722L373,563Z" fill="#f8823d" stroke="#f8823d" stroke-width="1.51"/><path d="M374,151L284,240L417,282Z" fill="#feb651" stroke="#feb651" stroke-width="1.51"/><path d="M284,240L276,399L417,282Z" fill="#ffae4f" stroke="#ffae4f" stroke-width="1.51"/><path d="M242,-169L389,-23L422,-164Z" fill="#ffd680" stroke="#ffd680" stroke-width="1.51"/><path d="M248,5L305,107L389,-23Z" fill="#ffd16f" stroke="#ffd16f" stroke-width="1.51"/><path d="M242,-169L248,5L389,-23Z" fill="#ffd87e" stroke="#ffd87e" stroke-width="1.51"/><path d="M305,107L284,240L374,151Z" fill="#ffc05b" stroke="#ffc05b" stroke-width="1.51"/><path d="M158,269L276,399L284,240Z" fill="#ffb657" stroke="#ffb657" stroke-width="1.51"/><path d="M135,773L255,910L295,722Z" fill="#e37e48" stroke="#e37e48" stroke-width="1.51"/><path d="M158,269L284,240L305,107Z" fill="#ffc15c" stroke="#ffc15c" stroke-width="1.51"/><path d="M81,90L158,269L305,107Z" fill="#ffcd6a" stroke="#ffcd6a" stroke-width="1.51"/><path d="M276,399L146,413L309,567Z" fill="#ff9e4d" stroke="#ff9e4d" stroke-width="1.51"/><path d="M146,413L131,578L309,567Z" fill="#ff984e" stroke="#ff984e" stroke-width="1.51"/><path d="M131,578L295,722L309,567Z" fill="#f88944" stroke="#f88944" stroke-width="1.51"/><path d="M131,578L135,773L295,722Z" fill="#f28848" stroke="#f28848" stroke-width="1.51"/><path d="M248,5L81,90L305,107Z" fill="#fed673" stroke="#fed673" stroke-width="1.51"/><path d="M242,-169L97,-64L248,5Z" fill="#ffe189" stroke="#ffe189" stroke-width="1.51"/><path d="M135,773L107,854L255,910Z" fill="#da804e" stroke="#da804e" stroke-width="1.51"/><path d="M158,269L146,413L276,399Z" fill="#ffb358" stroke="#ffb358" stroke-width="1.51"/><path d="M106,-173L97,-64L242,-169Z" fill="#ffe796" stroke="#ffe796" stroke-width="1.51"/><path d="M97,-64L81,90L248,5Z" fill="#ffde82" stroke="#ffde82" stroke-width="1.51"/><path d="M131,578L10,753L135,773Z" fill="#f28c50" stroke="#f28c50" stroke-width="1.51"/><path d="M-45,303L-7,438L146,413Z" fill="#ffb766" stroke="#ffb766" stroke-width="1.51"/><path d="M-7,438L131,578L146,413Z" fill="#ffa45a" stroke="#ffa45a" stroke-width="1.51"/><path d="M81,90L-18,151L158,269Z" fill="#ffd072" stroke="#ffd072" stroke-width="1.51"/><path d="M-45,303L146,413L158,269Z" fill="#ffbc64" stroke="#ffbc64" stroke-width="1.51"/><path d="M-18,151L-45,303L158,269Z" fill="#ffc96f" stroke="#ffc96f" stroke-width="1.51"/><path d="M-8,-21L81,90L97,-64Z" fill="#ffe38b" stroke="#ffe38b" stroke-width="1.51"/><path d="M-46,547L10,753L131,578Z" fill="#fb9557" stroke="#fb9557" stroke-width="1.51"/><path d="M-7,438L-46,547L131,578Z" fill="#ffa05d" stroke="#ffa05d" stroke-width="1.51"/><path d="M10,753L107,854L135,773Z" fill="#e68754" stroke="#e68754" stroke-width="1.51"/><path d="M-70,-167L-8,-21L97,-64Z" fill="#ffea9b" stroke="#ffea9b" stroke-width="1.51"/><path d="M-70,-167L97,-64L106,-173Z" fill="#ffec9f" stroke="#ffec9f" stroke-width="1.51"/><path d="M10,753L-5,852L107,854Z" fill="#e28859" stroke="#e28859" stroke-width="1.51"/><path d="M-8,-21L-18,151L81,90Z" fill="#ffdf84" stroke="#ffdf84" stroke-width="1.51"/><path d="M-162,147L-18,151L-8,-21Z" fill="#ffe089" stroke="#ffe089" stroke-width="1.51"/><path d="M-195,-17L-162,147L-8,-21Z" fill="#ffe897" stroke="#ffe897" stroke-width="1.51"/><path d="M-165,756L-5,852L10,753Z" fill="#e98d60" stroke="#e98d60" stroke-width="1.51"/><path d="M-46,547L-165,756L10,753Z" fill="#f7945e" stroke="#f7945e" stroke-width="1.51"/><path d="M-191,543L-165,756L-46,547Z" fill="#fe9d66" stroke="#fe9d66" stroke-width="1.51"/><path d="M-162,147L-45,303L-18,151Z" fill="#ffd27c" stroke="#ffd27c" stroke-width="1.51"/><path d="M-70,-167L-157,-136L-8,-21Z" fill="#ffefa7" stroke="#ffefa7" stroke-width="1.51"/><path d="M-157,-136L-195,-17L-8,-21Z" fill="#ffeea4" stroke="#ffeea4" stroke-width="1.51"/><path d="M-45,303L-185,476L-7,438Z" fill="#ffb86f" stroke="#ffb86f" stroke-width="1.51"/><path d="M-185,476L-46,547L-7,438Z" fill="#ffaa69" stroke="#ffaa69" stroke-width="1.51"/><path d="M-165,756L-173,851L-5,852Z" fill="#e48e66" stroke="#e48e66" stroke-width="1.51"/><path d="M-225,319L-185,476L-45,303Z" fill="#ffc179" stroke="#ffc179" stroke-width="1.51"/><path d="M-185,476L-191,543L-46,547Z" fill="#ffa76d" stroke="#ffa76d" stroke-width="1.51"/><path d="M-162,147L-225,319L-45,303Z" fill="#ffcf7e" stroke="#ffcf7e" stroke-width="1.51"/><path d="M-195,-17L-225,319L-162,147Z" fill="#ffde8e" stroke="#ffde8e" stroke-width="1.51"/><path d="M-191,543L-173,851L-165,756Z" fill="#f49669" stroke="#f49669" stroke-width="1.51"/><path d="M-191,543L-225,319L-173,851Z" fill="#ffa46f" stroke="#ffa46f" stroke-width="1.51"/><path d="M-225,319L-191,543L-185,476Z" fill="#ffb677" stroke="#ffb677" stroke-width="1.51"/></svg>