<?xml version="1.0" ?><svg style="enable-background:new 0 0 100 100;" version="1.1" viewBox="0 0 100 100" xml:space="preserve" xmlns="http://www.w3.org/2000/svg" xmlns:xlink="http://www.w3.org/1999/xlink"><style type="text/css">
	.st0{fill:#231F20;}
	.st1{fill-rule:evenodd;clip-rule:evenodd;fill:#231F20;}
	.st2{fill-rule:evenodd;clip-rule:evenodd;}
</style><g id="Layer_3"/><g id="Layer_1"><g id="slack"><rect height="7.9" transform="matrix(-0.3176 -0.9482 0.9482 -0.3176 21.1472 109.4277)" width="7.6" x="46.2" y="43.2"/><g><rect height="7.9" transform="matrix(-0.3176 -0.9482 0.9482 -0.3176 21.1473 109.4277)" width="7.6" x="46.2" y="43.2"/><path d="M75.6,39.4c-5.8-19.2-14.1-23.7-33.4-18c-19.2,5.8-23.7,14.1-18,33.4c5.8,19.2,14.1,23.7,33.4,18     C76.9,67,81.4,58.6,75.6,39.4z M65.9,51.9l-3.6,1.2l1.3,3.8c0.5,1.5-0.3,3.2-1.8,3.7c-0.3,0.1-0.7,0.2-1,0.2     c-1.2,0-2.3-0.8-2.7-2L56.7,55l-7.5,2.5l1.3,3.8c0.5,1.5-0.3,3.2-1.8,3.7c-0.3,0.1-0.7,0.2-1,0.2c-1.2,0-2.3-0.8-2.7-2l-1.3-3.8     l-3.6,1.2c-0.3,0.1-0.7,0.2-1,0.2c-1.2,0-2.3-0.8-2.7-2c-0.5-1.5,0.3-3.2,1.8-3.7l3.6-1.2l-2.4-7.2l-3.6,1.2     c-0.3,0.1-0.7,0.2-1,0.2c-1.2,0-2.3-0.8-2.7-2c-0.5-1.5,0.3-3.2,1.8-3.7l3.6-1.2l-1.3-3.8c-0.5-1.5,0.3-3.2,1.8-3.7     c1.5-0.5,3.2,0.3,3.7,1.8l1.3,3.8l7.5-2.5L49.4,33c-0.5-1.5,0.3-3.2,1.8-3.7c1.5-0.5,3.2,0.3,3.7,1.8l1.3,3.8l3.6-1.2     c1.5-0.5,3.2,0.3,3.7,1.8c0.5,1.5-0.3,3.2-1.8,3.7L58,40.4l2.4,7.2l3.6-1.2c1.5-0.5,3.2,0.3,3.7,1.8     C68.2,49.7,67.4,51.4,65.9,51.9z"/></g></g></g></svg>