<?xml version="1.0" encoding="UTF-8" standalone="no"?>
<!DOCTYPE svg PUBLIC "-//W3C//DTD SVG 1.1//EN" "http://www.w3.org/Graphics/SVG/1.1/DTD/svg11.dtd">
<svg version="1.1" xmlns="http://www.w3.org/2000/svg" xmlns:xlink="http://www.w3.org/1999/xlink" preserveAspectRatio="xMidYMid meet" viewBox="0 0 24 24" width="24" height="24"><defs><path d="M23.95 12C23.95 18.62 18.59 24 12 24C5.41 24 0.06 18.62 0.06 12C0.06 5.38 5.41 0 12 0C18.59 0 23.95 5.38 23.95 12Z" id="bLTMjpeaX"></path><path d="M23 12C23 18.07 18.07 23 12 23C7.08 23 2.91 19.77 1.51 15.31C1.18 14.27 1 13.15 1 12C1 5.93 5.93 1 12 1C18.07 1 23 5.93 23 12Z" id="i1PsTkhBwS"></path><path d="" id="is6IRhJr1"></path><path d="M21.81 17.31L21.86 16.71L21.77 15.77L21.77 14.61L20.46 11.76L19.53 11.48L17.76 10.5L16.26 10.18L16.12 11.11L17.62 11.72L17.29 12.37C16.79 12.93 16.62 13.44 16.78 13.91C16.93 14.37 16.9 14.59 16.68 14.56C15.72 15 15.18 15.43 15.05 15.87C14.93 16.3 14.85 16.67 14.82 16.99L14.59 17.82L14.49 18.9L14.77 20.02L15.71 20.85C15.39 20.95 15.04 20.93 14.63 20.81C14.23 20.68 13.92 20.48 13.7 20.2L12.4 19.41L11.98 18.85L11.98 17.87L11.93 16.94L10.95 15.26L10.72 14.33L8.48 14.09L8.06 13.16L6.99 12.7L6.61 12.04L6.47 11.06L6.89 10.09L7.03 9.34L9.13 9.01L10.48 8.73L11.04 8.41L11.74 8.41L13.05 8.59L14.68 8.59L15.01 7.8L14.54 7.15L12.58 6.68L12.81 7.43L12.21 7.52L11.42 7.66L10.34 7.61L9.6 7.47L9.6 6.68L10.02 6.36L10.95 5.66L11.65 5.47L12.49 5.66L13.47 5.66L14.03 5.19L13.61 4.63L13.19 4.3L12.77 4.44L12.67 4.02C12.74 3.87 12.78 3.78 12.8 3.74C12.84 3.65 12.91 3.58 12.99 3.53C13.05 3.49 13.21 3.39 13.47 3.23L14.03 2.67L14.87 2.35L15.47 2.3L16.12 2.77L17.06 2.77L17.24 2.11L18.83 2.91L20.37 4.44L22.05 6.45L22.88 8.03L23.35 10.5L23.35 13.16L21.81 17.31Z" id="dIzwDO8lX"></path><path d="" id="c46Bn2qjph"></path><path d="M2.98 5.33L3.74 5.42L4.64 5.05L5.63 4.68L6.21 3.74L6.21 3.05L5.63 2.63" id="afRJy9eyK"></path><path d="M2.56 18.52L2.56 17.54L2.93 15.86L3.2 15.07L3.25 14.56C3.24 14.23 3.21 14.03 3.16 13.95C2.95 13.58 2.95 13.64 3.16 14.14L3.02 13.5L3.58 12.41L2.7 11.29L0.93 11.16L0.79 13.4L2.56 18.52Z" id="b1lf8axTgY"></path></defs><g><g><g><use xlink:href="#bLTMjpeaX" opacity="1" fill="#ffffff" fill-opacity="1"></use></g><g><use xlink:href="#i1PsTkhBwS" opacity="1" fill="#d9d9d9" fill-opacity="1"></use></g><g><g><use xlink:href="#is6IRhJr1" opacity="1" fill-opacity="0" stroke="#000000" stroke-width="1" stroke-opacity="1"></use></g></g><g><use xlink:href="#dIzwDO8lX" opacity="1" fill="#ffffff" fill-opacity="1"></use><g><use xlink:href="#dIzwDO8lX" opacity="1" fill-opacity="0" stroke="#ffffff" stroke-width="0.5" stroke-opacity="1"></use></g></g><g><g><use xlink:href="#c46Bn2qjph" opacity="1" fill-opacity="0" stroke="#000000" stroke-width="0.5" stroke-opacity="1"></use></g></g><g><use xlink:href="#afRJy9eyK" opacity="1" fill="#ffffff" fill-opacity="1"></use><g><use xlink:href="#afRJy9eyK" opacity="1" fill-opacity="0" stroke="#ffffff" stroke-width="0.5" stroke-opacity="1"></use></g></g><g><use xlink:href="#b1lf8axTgY" opacity="1" fill="#ffffff" fill-opacity="1"></use><g><use xlink:href="#b1lf8axTgY" opacity="1" fill-opacity="0" stroke="#ffffff" stroke-width="0.5" stroke-opacity="1"></use></g></g></g></g></svg>